<svg width="320" height="644" fill="none" xmlns="http://www.w3.org/2000/svg"><g clip-path="url(#clip0_90_2701)"><path fill="url(#paint0_linear_90_2701)" d="M0 0h320v644H0z"/><path d="M-359.654-308C-8.05-253.907 479.524 360.909 434.529 574.699 405.024 714.849 59.345 711.701-35.096 736.977-163.887 771.4 79.974 642.536 129.64 493.559c59.011-177.031-30.562-642.427 253.598-560.6C631.231 4.411 684.93 235.832 862.699 230.471c160.781-4.918 286.031-199.16 366.361-361.44" stroke="url(#paint1_linear_90_2701)" stroke-width="3" stroke-miterlimit="10" stroke-dasharray="10 10"/><path d="M-359.679-293.812c336.852 60.313 805.912 655.729 768.415 860.569-24.587 134.2-351.973 129.725-439.357 152.444-121.144 31.448 112.316-92.401 161.566-235.329 59.01-171.376-22.424-616.758 251.901-537.856 244.721 70.198 294.118 307.002 473.485 307.346 161.079-.295 291.269-190.333 375.139-349.145" stroke="url(#paint2_linear_90_2701)" stroke-width="3" stroke-miterlimit="10" stroke-dasharray="10 10"/><path d="M-359.707-279.7c322.099 66.535 772.644 642.502 742.671 838.441-19.67 128.25-328.787 122.447-409.115 142.609-113.521 28.374 109.563-90.36 158.394-227.264 59.011-165.721-14.26-591.04 250.205-515.088C623.899 27.966 668.993 270.77 849.983 276.179 1011.33 281.097 1146.46 94.697 1233.9-60.672" stroke="url(#paint3_linear_90_2701)" stroke-width="3" stroke-miterlimit="10" stroke-dasharray="10 10"/><path d="M-359.707-265.488c307.346 72.78 739.377 629.2 716.903 816.312-14.752 122.225-305.6 115.169-378.872 132.774-105.948 25.128 106.834-88.418 155.223-219.274 59.182-160.09-6.098-565.345 248.532-492.368C620.236 39.719 660.977 288.277 843.59 298.972c161.62 9.565 301.72-172.581 392.72-324.558" stroke="url(#paint4_linear_90_2701)" stroke-width="3" stroke-miterlimit="10" stroke-dasharray="10 10"/><path d="M-359.731-251.325c292.742 79 706.11 615.823 691.161 794.183-9.835 116.176-282.39 107.866-348.605 122.791-98.35 22.129 104.105-86.254 152.026-211.086 59.281-154.435 2.066-539.626 246.836-469.625C616.574 51.472 652.988 305.513 837.273 321.79 999.109 336.075 1144.23 158.06 1238.74 9.526" stroke="url(#paint5_linear_90_2701)" stroke-width="3" stroke-miterlimit="10" stroke-dasharray="10 10"/><path d="M-359.755-237.163c278.038 85.246 672.843 602.399 665.393 772.054C300.72 644.946 46.483 635.455-12.699 647.823c-90.68 18.932 101.448-84.238 148.854-203.021C195.558 295.997 146.383-69.081 381.319-2.055c231.567 65.33 263.654 324.927 449.586 346.687 162.107 18.981 312.265-154.903 410.275-299.97" stroke="url(#paint6_linear_90_2701)" stroke-width="3" stroke-miterlimit="10" stroke-dasharray="10 10"/><path d="M-359.755-222.975c263.31 91.466 639.526 588.58 639.625 749.925 0 103.834-236.042 93.187-288.094 103.023-83.058 15.662 98.793-82.173 145.682-194.907 59.551-143.199 18.367-488.238 243.418-424.114 228.297 64.076 256.007 329.23 443.636 356.522 162.279 23.604 317.398-145.977 419.048-287.676" stroke="url(#paint7_linear_90_2701)" stroke-width="3" stroke-miterlimit="10" stroke-dasharray="10 10"/><path d="M-359.78-208.813c248.582 97.687 606.186 574.787 613.882 727.796 4.917 97.564-212.684 85.811-257.827 93.163-75.46 12.294 96.187-80.131 142.609-186.867 59.748-137.691 26.407-462.052 241.771-401.37C605.534 87.273 628.99 357.418 818.316 390.268c162.598 28.226 322.644-137.102 427.824-275.383" stroke="url(#paint8_linear_90_2701)" stroke-width="3" stroke-miterlimit="10" stroke-dasharray="10 10"/><path d="M-359.802-194.65c233.878 103.932 572.746 560.846 588.113 705.667 9.688 91.196-189.325 78.41-227.56 83.279-67.787 8.655 93.606-78.066 139.339-178.728 59.921-131.987 34.423-436.309 240.075-378.65 221.584 62.182 240.738 337.71 431.686 376.19 162.82 32.8 327.879-128.225 436.609-263.088" stroke="url(#paint9_linear_90_2701)" stroke-width="3" stroke-miterlimit="10" stroke-dasharray="10 10"/><path d="M-359.802-180.488c219.15 110.153 539.184 546.707 562.345 683.538 14.359 84.754-165.967 70.935-197.316 73.419-60.093 4.745 90.974-76.025 136.167-170.663 60.19-126.357 42.684-410.615 238.5-355.858C598.184 110.95 613.01 391.84 805.606 435.975c163.066 37.348 333.114-119.374 445.404-250.795" stroke="url(#paint10_linear_90_2701)" stroke-width="3" stroke-miterlimit="10" stroke-dasharray="10 10"/><path d="M-359.827-166.326c204.447 116.398 505.45 532.423 536.602 661.41 18.884 78.238-142.412 63.411-167.196 63.559-52.224.295 88.516-73.96 132.995-162.599C203.059 275.294 193.396 11.198 379.28 62.93c214.97 59.847 225.469 346.048 419.736 395.862 163.312 41.799 338.324-110.497 454.164-238.501" stroke="url(#paint11_linear_90_2701)" stroke-width="3" stroke-miterlimit="10" stroke-dasharray="10 10"/><path d="M-359.852-152.138c189.744 122.594 471.494 517.964 510.859 639.28 23.236 71.624-119.398 59.822-136.806 53.65-43.963 4.918 86.057-71.869 129.799-154.484 60.83-115.144 59.01-359.153 235.009-310.37 211.7 58.641 217.872 350.153 413.762 405.696 163.582 46.348 343.569-101.621 462.959-226.206" stroke="url(#paint12_linear_90_2701)" stroke-width="3" stroke-miterlimit="10" stroke-dasharray="10 10"/><path d="M-359.852-137.976c174.991 128.84 437.17 503.433 485.067 617.151 27.39 65.01-96.114 52.815-106.539 43.791-36.242 2.262 83.77-69.78 126.627-146.42C206.551 267.033 212.452 43.112 378.616 88.87c208.405 57.462 210.274 354.26 407.811 415.532 163.853 50.823 348.773-92.745 471.743-213.913" stroke="url(#paint13_linear_90_2701)" stroke-width="3" stroke-miterlimit="10" stroke-dasharray="10 10"/><path d="M-359.874-123.813c160.287 135.06 402.5 488.926 459.322 595.022 31.276 58.421-72.877 45.807-76.221 33.907-28.547-.418 81.459-67.666 123.454-138.306 61.74-103.908 75.313-307.764 231.641-264.883 205.111 56.256 202.677 358.316 401.837 425.367 164.123 55.248 354.061-83.869 480.491-201.619" stroke="url(#paint14_linear_90_2701)" stroke-width="3" stroke-miterlimit="10" stroke-dasharray="10 10"/><path d="M-359.904-109.651C-214.32 31.654 7.51 364.891 73.676 463.242c34.915 51.905-49.618 38.8-46.053 24.047-20.826-3.123 79.222-65.526 120.283-130.315 62.33-98.351 83.476-282.07 229.944-242.14 201.841 55.052 195.104 362.349 395.863 435.203 164.418 59.699 359.247-74.993 489.297-189.326" stroke="url(#paint15_linear_90_2701)" stroke-width="3" stroke-miterlimit="10" stroke-dasharray="10 10"/><path d="M-359.904-95.488C-229.048 52.038-27.969 365.015 47.884 455.276c38.332 45.561-26.358 31.792-15.761 14.187-13.13-5.802 77.033-63.362 117.087-122.151 63.018-92.499 91.638-256.425 228.247-219.396 198.571 53.798 187.555 366.356 389.912 445.037 164.738 64.076 364.461-66.141 498.071-177.031" stroke="url(#paint16_linear_90_2701)" stroke-width="3" stroke-miterlimit="10" stroke-dasharray="10 10"/><path d="M-359.928-81.326C-243.776 72.445-63.99 365.629 22.116 447.31c41.578 39.463-3.098 24.784 14.482 4.302-5.41-8.482 74.943-61.1 113.915-114.062 63.805-86.696 99.801-230.756 226.576-196.702 195.275 52.544 180.006 370.291 383.912 454.873 165.057 68.452 369.699-57.265 506.849-164.738" stroke="url(#paint17_linear_90_2701)" stroke-width="3" stroke-miterlimit="10" stroke-dasharray="10 10"/><path d="M-359.953-67.14C-258.528 92.828-100.134 366.907-3.652 439.367c44.774 33.611 20.137 17.752 44.725-5.581 2.311-11.163 72.952-58.814 110.645-105.998 64.764-80.771 107.989-205.086 224.879-173.884 192.005 51.265 172.507 374.274 377.962 464.707 165.377 72.805 374.941-48.388 515.631-152.443" stroke="url(#paint18_linear_90_2701)" stroke-width="3" stroke-miterlimit="10" stroke-dasharray="10 10"/><path d="M-359.953-52.976C-273.256 113.237-136.327 368.85-29.42 431.402c47.995 28.079 46.938 14.506 74.968-15.441 11.68-12.491 71.034-56.552 107.596-97.909 65.846-74.697 116.152-179.49 223.182-151.14 188.736 49.962 164.984 378.183 371.963 474.543 165.746 77.156 380.171-39.537 524.431-140.15" stroke="url(#paint19_linear_90_2701)" stroke-width="3" stroke-miterlimit="10" stroke-dasharray="10 10"/><path d="M-359.975-38.74c71.992 172.433 187.653 410.27 304.887 462.248 51.413 22.818 68.256 5.729 105.26-25.325 18.564-15.589 69.165-53.921 104.4-89.819 67.149-68.378 124.315-153.845 221.486-128.397 185.489 48.61 157.508 382.118 366.012 484.378 166.115 81.483 385.39-30.636 533.18-127.856" stroke="url(#paint20_linear_90_2701)" stroke-width="3" stroke-miterlimit="10" stroke-dasharray="10 10"/><path d="M-360-24.65c57.289 178.678 152.026 399.206 279.021 440.12 55.003 17.727 90.508-2.459 135.503-35.185 25.768-18.761 67.37-51.29 101.228-81.73 68.649-61.74 132.552-128.397 219.789-105.727C557.884 239.79 525.748 578.56 735.579 687.041c166.606 85.59 390.621-21.785 541.991-115.562" stroke="url(#paint21_linear_90_2701)" stroke-width="3" stroke-miterlimit="10" stroke-dasharray="10 10"/><path d="M-360-10.488c42.561 184.899 116.816 388.485 253.253 417.991 176.22 38.234 312.092-244.992 481.919-201.619 179.048 45.757 142.609 389.887 354.063 504.048C896.112 800.07 1125.1 697.048 1280 606.663" stroke="url(#paint22_linear_90_2701)" stroke-width="3" stroke-miterlimit="10" stroke-dasharray="10 10"/></g><defs><linearGradient id="paint0_linear_90_2701" x1="0" y1="0" x2="400.207" y2="54.447" gradientUnits="userSpaceOnUse"><stop offset=".318" stop-color="#318DDF"/><stop offset=".802" stop-color="#4CBCED"/><stop offset="1" stop-color="#64E6FA"/></linearGradient><linearGradient id="paint1_linear_90_2701" x1="-359.654" y1="-308" x2="1367.9" y2="407.263" gradientUnits="userSpaceOnUse"><stop stop-color="#64E6FA"/><stop offset=".323" stop-color="#3493E1"/><stop offset="1" stop-color="#318DDF"/></linearGradient><linearGradient id="paint2_linear_90_2701" x1="-359.679" y1="-293.812" x2="1353.36" y2="439.318" gradientUnits="userSpaceOnUse"><stop stop-color="#64E6FA"/><stop offset=".323" stop-color="#3493E1"/><stop offset="1" stop-color="#318DDF"/></linearGradient><linearGradient id="paint3_linear_90_2701" x1="-359.707" y1="-279.7" x2="1337.4" y2="471.852" gradientUnits="userSpaceOnUse"><stop stop-color="#64E6FA"/><stop offset=".323" stop-color="#3493E1"/><stop offset="1" stop-color="#318DDF"/></linearGradient><linearGradient id="paint4_linear_90_2701" x1="-359.707" y1="-265.488" x2="1319.86" y2="504.975" gradientUnits="userSpaceOnUse"><stop stop-color="#64E6FA"/><stop offset=".323" stop-color="#3493E1"/><stop offset="1" stop-color="#318DDF"/></linearGradient><linearGradient id="paint5_linear_90_2701" x1="-359.731" y1="-251.325" x2="1300.56" y2="538.614" gradientUnits="userSpaceOnUse"><stop stop-color="#64E6FA"/><stop offset=".323" stop-color="#3493E1"/><stop offset="1" stop-color="#318DDF"/></linearGradient><linearGradient id="paint6_linear_90_2701" x1="-359.755" y1="-237.163" x2="1279.43" y2="572.654" gradientUnits="userSpaceOnUse"><stop stop-color="#64E6FA"/><stop offset=".323" stop-color="#3493E1"/><stop offset="1" stop-color="#318DDF"/></linearGradient><linearGradient id="paint7_linear_90_2701" x1="-359.755" y1="-222.975" x2="1256.17" y2="607.075" gradientUnits="userSpaceOnUse"><stop stop-color="#64E6FA"/><stop offset=".323" stop-color="#3493E1"/><stop offset="1" stop-color="#318DDF"/></linearGradient><linearGradient id="paint8_linear_90_2701" x1="-359.78" y1="-208.813" x2="1230.8" y2="641.939" gradientUnits="userSpaceOnUse"><stop stop-color="#64E6FA"/><stop offset=".323" stop-color="#3493E1"/><stop offset="1" stop-color="#318DDF"/></linearGradient><linearGradient id="paint9_linear_90_2701" x1="-359.802" y1="-194.65" x2="1202.77" y2="676.811" gradientUnits="userSpaceOnUse"><stop stop-color="#64E6FA"/><stop offset=".323" stop-color="#3493E1"/><stop offset="1" stop-color="#318DDF"/></linearGradient><linearGradient id="paint10_linear_90_2701" x1="-359.802" y1="-180.488" x2="1172.24" y2="711.908" gradientUnits="userSpaceOnUse"><stop stop-color="#64E6FA"/><stop offset=".323" stop-color="#3493E1"/><stop offset="1" stop-color="#318DDF"/></linearGradient><linearGradient id="paint11_linear_90_2701" x1="-359.827" y1="-166.326" x2="1139.86" y2="745.954" gradientUnits="userSpaceOnUse"><stop stop-color="#64E6FA"/><stop offset=".323" stop-color="#3493E1"/><stop offset="1" stop-color="#318DDF"/></linearGradient><linearGradient id="paint12_linear_90_2701" x1="-359.852" y1="-152.138" x2="1108.02" y2="778.519" gradientUnits="userSpaceOnUse"><stop stop-color="#64E6FA"/><stop offset=".323" stop-color="#3493E1"/><stop offset="1" stop-color="#318DDF"/></linearGradient><linearGradient id="paint13_linear_90_2701" x1="-359.852" y1="-137.976" x2="1071.85" y2="811.235" gradientUnits="userSpaceOnUse"><stop stop-color="#64E6FA"/><stop offset=".323" stop-color="#3493E1"/><stop offset="1" stop-color="#318DDF"/></linearGradient><linearGradient id="paint14_linear_90_2701" x1="-359.874" y1="-123.813" x2="1066.62" y2="829.977" gradientUnits="userSpaceOnUse"><stop stop-color="#64E6FA"/><stop offset=".323" stop-color="#3493E1"/><stop offset="1" stop-color="#318DDF"/></linearGradient><linearGradient id="paint15_linear_90_2701" x1="-359.904" y1="-109.651" x2="1081.5" y2="840.146" gradientUnits="userSpaceOnUse"><stop stop-color="#64E6FA"/><stop offset=".323" stop-color="#3493E1"/><stop offset="1" stop-color="#318DDF"/></linearGradient><linearGradient id="paint16_linear_90_2701" x1="-359.904" y1="-95.488" x2="1096.51" y2="850.113" gradientUnits="userSpaceOnUse"><stop stop-color="#64E6FA"/><stop offset=".323" stop-color="#3493E1"/><stop offset="1" stop-color="#318DDF"/></linearGradient><linearGradient id="paint17_linear_90_2701" x1="-359.928" y1="-81.326" x2="1111.21" y2="860.005" gradientUnits="userSpaceOnUse"><stop stop-color="#64E6FA"/><stop offset=".323" stop-color="#3493E1"/><stop offset="1" stop-color="#318DDF"/></linearGradient><linearGradient id="paint18_linear_90_2701" x1="-359.953" y1="-67.14" x2="1125.88" y2="869.656" gradientUnits="userSpaceOnUse"><stop stop-color="#64E6FA"/><stop offset=".323" stop-color="#3493E1"/><stop offset="1" stop-color="#318DDF"/></linearGradient><linearGradient id="paint19_linear_90_2701" x1="-359.953" y1="-52.976" x2="1140.5" y2="879.292" gradientUnits="userSpaceOnUse"><stop stop-color="#64E6FA"/><stop offset=".323" stop-color="#3493E1"/><stop offset="1" stop-color="#318DDF"/></linearGradient><linearGradient id="paint20_linear_90_2701" x1="-359.975" y1="-38.741" x2="1154.96" y2="888.892" gradientUnits="userSpaceOnUse"><stop stop-color="#64E6FA"/><stop offset=".323" stop-color="#3493E1"/><stop offset="1" stop-color="#318DDF"/></linearGradient><linearGradient id="paint21_linear_90_2701" x1="-360" y1="-24.65" x2="1169.05" y2="898.11" gradientUnits="userSpaceOnUse"><stop stop-color="#64E6FA"/><stop offset=".323" stop-color="#3493E1"/><stop offset="1" stop-color="#318DDF"/></linearGradient><linearGradient id="paint22_linear_90_2701" x1="-360" y1="-10.488" x2="1183.44" y2="907.16" gradientUnits="userSpaceOnUse"><stop stop-color="#64E6FA"/><stop offset=".323" stop-color="#3493E1"/><stop offset="1" stop-color="#318DDF"/></linearGradient><clipPath id="clip0_90_2701"><path fill="#fff" d="M0 0h320v644H0z"/></clipPath></defs></svg>