<svg width="1720" height="721" fill="none" xmlns="http://www.w3.org/2000/svg"><g clip-path="url(#clip0_121_233)"><path transform="matrix(1 0 0 -1 0 720.356)" fill="url(#paint0_linear_121_233)" d="M0 0h1720v720H0z"/><path d="M-886.393-540.644C-269.799-445.783 585.239 632.394 506.333 1007.31c-51.743 245.77-657.945 240.25-823.563 284.58-225.854 60.37 201.795-165.62 288.894-426.872C75.148 554.565-81.932-261.581 416.387-118.083 851.28 7.219 945.451 413.05 1257.2 403.65c281.95-8.623 501.59-349.259 642.46-633.841" stroke="url(#paint1_linear_121_233)" stroke-width="3" stroke-miterlimit="10" stroke-dasharray="10 10"/><path d="M-886.436-515.764C-295.713-409.994 526.857 634.162 461.102 993.382c-43.119 235.338-617.241 227.488-770.484 267.338-212.444 55.14 196.965-162.04 283.332-412.691C77.433 547.494-65.376-233.553 415.697-95.186 844.856 27.917 931.481 443.19 1246.03 443.794c282.47-.517 510.78-333.78 657.86-612.282" stroke="url(#paint2_linear_121_233)" stroke-width="3" stroke-miterlimit="10" stroke-dasharray="10 10"/><path d="M-886.487-491.015C-321.635-374.336 468.467 635.713 415.905 979.324c-34.494 224.906-576.579 214.726-717.447 250.086-199.078 49.76 192.135-158.46 277.769-398.542C79.71 540.249-48.782-205.614 415-72.421c423.423 120.947 502.502 546.742 819.9 556.228 282.94 8.624 519.92-318.257 673.25-590.723" stroke="url(#paint3_linear_121_233)" stroke-width="3" stroke-miterlimit="10" stroke-dasharray="10 10"/><path d="M-886.487-466.092C-347.507-338.461 410.128 637.309 370.717 965.44c-25.871 214.34-535.919 201.97-664.412 232.84-185.797 44.07 187.35-155.05 272.207-384.53C82.298 533.006-32.181-177.673 414.353-49.697 831.998 69.137 903.446 505.022 1223.69 523.778c283.41 16.773 529.1-302.648 688.68-569.163" stroke="url(#paint4_linear_121_233)" stroke-width="3" stroke-miterlimit="10" stroke-dasharray="10 10"/><path d="M-886.527-441.256C-373.159-302.716 351.748 638.689 325.532 951.47c-17.247 203.73-495.215 189.16-611.333 215.33-172.474 38.81 182.563-151.26 266.601-370.169 103.96-270.827 3.622-946.32 432.866-823.562C825.577 89.748 889.435 535.247 1212.61 563.792c283.8 25.052 538.29-287.126 704.04-547.604" stroke="url(#paint5_linear_121_233)" stroke-width="3" stroke-miterlimit="10" stroke-dasharray="10 10"/><path d="M-886.57-416.419C-398.987-266.927 293.366 639.983 280.301 937.5c-8.624 193-454.468 176.35-558.254 198.04-159.021 33.2 177.906-147.721 261.039-356.026C87.26 518.561 1.023-121.661 413.02-4.12c406.089 114.565 462.359 569.81 788.42 607.97 284.28 33.287 547.6-271.647 719.47-526.045" stroke="url(#paint6_linear_121_233)" stroke-width="3" stroke-miterlimit="10" stroke-dasharray="10 10"/><path d="M-886.57-391.539C-424.815-231.138 234.94 640.63 235.113 923.573c0 182.087-413.937 163.417-505.219 180.667-145.654 27.47 173.25-144.102 255.477-341.8C89.804 511.318 17.58-93.763 412.243 18.69c400.355 112.367 448.949 577.356 777.987 625.217 284.58 41.394 556.62-255.994 734.87-504.486" stroke="url(#paint7_linear_121_233)" stroke-width="3" stroke-miterlimit="10" stroke-dasharray="10 10"/><path d="M-886.613-366.704C-450.686-195.395 176.429 641.276 189.925 909.602c8.623 171.098-372.975 150.488-452.14 163.378-132.331 21.56 168.68-140.525 250.087-327.702C92.65 503.814 34.182-65.004 411.855 41.412 806.217 152.528 847.352 626.27 1179.36 683.877c285.15 49.5 565.8-240.429 750.26-482.927" stroke="url(#paint8_linear_121_233)" stroke-width="3" stroke-miterlimit="10" stroke-dasharray="10 10"/><path d="M-886.654-341.866C-476.511-159.605 117.747 641.665 144.696 895.633c16.989 159.927-332.012 137.507-399.061 146.047-118.877 15.17 164.152-136.906 244.353-313.433C95.068 496.787 50.353-36.889 410.995 64.223 799.579 173.27 833.169 656.455 1168.03 723.935c285.53 57.52 574.98-224.862 765.65-461.367" stroke="url(#paint9_linear_121_233)" stroke-width="3" stroke-miterlimit="10" stroke-dasharray="10 10"/><path d="M-886.654-317.031C-502.339-123.861 58.891 641.707 99.508 881.661 124.69 1030.29-191.54 1006.06-246.517 1010.41c-105.382 8.32 159.538-133.319 238.79-299.282C97.827 489.542 67.126-8.95 410.522 87.075c382.805 106.977 408.806 599.562 746.548 676.959 285.97 65.497 584.17-209.34 781.1-439.808" stroke="url(#paint10_linear_121_233)" stroke-width="3" stroke-miterlimit="10" stroke-dasharray="10 10"/><path d="M-886.697-292.195C-528.167-88.073-.311 641.491 54.32 867.691c33.115 137.199-249.742 111.202-293.205 111.461-91.584.517 155.226-129.7 233.228-285.142C100.414 482.255 83.468 19.12 409.444 109.841 786.428 214.791 804.84 716.69 1145.52 804.048c286.39 73.301 593.31-193.774 796.44-418.249" stroke="url(#paint11_linear_121_233)" stroke-width="3" stroke-miterlimit="10" stroke-dasharray="10 10"/><path d="M-886.74-267.315C-553.994-52.327-59.9 641.017 9.132 853.764 49.88 979.368-200.25 958.671-230.779 947.848c-77.095 8.624 150.915-126.035 227.623-270.913C103.519 475.011 100.328 47.105 408.97 132.651c371.25 102.838 382.072 614.05 725.6 711.454 286.86 81.279 602.49-178.208 811.87-396.689" stroke="url(#paint12_linear_121_233)" stroke-width="3" stroke-miterlimit="10" stroke-dasharray="10 10"/><path d="M-886.74-242.48C-579.866-16.54-120.094 640.37-36.099 839.792c48.034 114.006-168.55 92.619-186.832 76.794-63.557 3.967 146.905-122.37 222.06-256.77C106.537 467.766 116.885 75.086 408.28 155.33c365.472 100.768 368.749 621.251 715.16 728.702 287.34 89.126 611.64-162.643 827.27-375.131" stroke="url(#paint13_linear_121_233)" stroke-width="3" stroke-miterlimit="10" stroke-dasharray="10 10"/><path d="M-886.78-217.643c281.089 236.85 705.849 857.41 805.496 1043.467 54.847 102.449-127.803 80.329-133.667 59.46-50.061-.733 142.851-118.662 216.497-242.541 108.271-182.219 132.072-539.714 406.219-464.515 359.694 98.655 355.425 628.365 704.685 745.949 287.82 96.883 620.91-147.077 842.62-353.571" stroke="url(#paint14_linear_121_233)" stroke-width="3" stroke-miterlimit="10" stroke-dasharray="10 10"/><path d="M-886.831-192.809C-631.527 54.993-242.512 639.377-126.48 811.851c61.228 91.023-87.013 68.041-80.761 42.17-36.521-5.476 138.928-114.911 210.935-228.528C113 453.019 150.081 130.838 406.938 200.863c353.959 96.542 342.145 635.436 694.202 763.196 288.34 104.691 630.01-131.511 858.06-332.012" stroke="url(#paint15_linear_121_233)" stroke-width="3" stroke-miterlimit="10" stroke-dasharray="10 10"/><path d="M-886.831-167.971c229.477 258.711 582.099 807.566 715.12 965.853 67.221 79.899-46.223 55.753-27.639 24.88-23.026-10.176 135.09-111.116 205.33-214.213 110.512-162.211 160.702-449.682 400.268-384.746 348.225 94.344 328.907 642.465 683.772 780.447 288.89 112.36 639.14-115.991 873.45-310.455" stroke="url(#paint16_linear_121_233)" stroke-width="3" stroke-miterlimit="10" stroke-dasharray="10 10"/><path d="M-886.874-143.135C-683.182 126.528-367.9 640.672-216.899 783.912c72.913 69.205-5.433 43.463 25.396 7.545-9.486-14.875 131.425-107.149 199.768-200.026 111.892-152.036 175.018-404.667 397.337-344.948 342.446 92.145 315.67 649.364 673.248 797.687 289.46 120.05 648.33-100.418 888.85-288.889" stroke="url(#paint17_linear_121_233)" stroke-width="3" stroke-miterlimit="10" stroke-dasharray="10 10"/><path d="M-886.917-118.257c177.864 280.529 455.633 761.17 624.83 888.24 78.518 58.943 35.314 31.131 78.432-9.788 4.053-19.576 127.933-103.139 194.033-185.883C123.952 432.668 199.754 214.661 404.74 269.378c336.712 89.902 302.519 656.349 662.821 814.942 290.01 127.67 657.51-84.861 904.23-267.338" stroke="url(#paint18_linear_121_233)" stroke-width="3" stroke-miterlimit="10" stroke-dasharray="10 10"/><path d="M-886.917-93.419c152.036 291.481 392.163 739.74 579.642 849.433 84.167 49.242 82.313 25.44 131.468-27.078 20.481-21.904 124.569-99.173 188.686-171.698C128.35 426.244 216.57 242.474 404.265 292.189c330.977 87.617 289.325 663.205 652.295 832.191 290.66 135.3 666.7-69.34 919.67-245.78" stroke="url(#paint19_linear_121_233)" stroke-width="3" stroke-miterlimit="10" stroke-dasharray="10 10"/><path d="M-886.957-68.455c126.251 302.39 329.08 719.474 534.669 810.627 90.16 40.014 119.696 10.046 184.59-44.412 32.554-27.337 121.292-94.559 183.08-157.512C133.14 420.336 233.39 270.456 403.794 315.083c325.286 85.246 276.217 670.104 641.857 849.437 291.31 142.89 675.84-53.73 935.03-224.219" stroke="url(#paint20_linear_121_233)" stroke-width="3" stroke-miterlimit="10" stroke-dasharray="10 10"/><path d="M-887-43.745c100.466 313.342 266.601 700.071 489.308 771.82 96.456 31.088 158.719-4.312 237.626-61.703 45.188-32.899 118.144-89.945 177.518-143.325 120.387-108.271 232.452-225.165 385.436-185.41 319.767 82.357 263.411 676.443 631.382 866.683 292.17 150.09 685.02-38.2 950.46-202.66" stroke="url(#paint21_linear_121_233)" stroke-width="3" stroke-miterlimit="10" stroke-dasharray="10 10"/><path d="M-887-18.91c74.638 324.251 204.856 681.271 444.12 733.013 309.03 67.05 547.302-429.632 845.121-353.571 313.989 80.244 250.087 683.728 620.909 883.928 292.64 158.07 694.2-22.59 965.85-181.1" stroke="url(#paint22_linear_121_233)" stroke-width="3" stroke-miterlimit="10" stroke-dasharray="10 10"/></g><defs><linearGradient id="paint0_linear_121_233" x1="0" y1="0" x2="1534.47" y2="1003.65" gradientUnits="userSpaceOnUse"><stop offset=".318" stop-color="#318DDF"/><stop offset=".802" stop-color="#4CBCED"/><stop offset="1" stop-color="#64E6FA"/></linearGradient><linearGradient id="paint1_linear_121_233" x1="-886.393" y1="-540.644" x2="2143.14" y2="713.684" gradientUnits="userSpaceOnUse"><stop stop-color="#64E6FA"/><stop offset=".323" stop-color="#3493E1"/><stop offset="1" stop-color="#318DDF"/></linearGradient><linearGradient id="paint2_linear_121_233" x1="-886.436" y1="-515.764" x2="2117.64" y2="769.897" gradientUnits="userSpaceOnUse"><stop stop-color="#64E6FA"/><stop offset=".323" stop-color="#3493E1"/><stop offset="1" stop-color="#318DDF"/></linearGradient><linearGradient id="paint3_linear_121_233" x1="-886.487" y1="-491.015" x2="2089.66" y2="826.95" gradientUnits="userSpaceOnUse"><stop stop-color="#64E6FA"/><stop offset=".323" stop-color="#3493E1"/><stop offset="1" stop-color="#318DDF"/></linearGradient><linearGradient id="paint4_linear_121_233" x1="-886.487" y1="-466.092" x2="2058.89" y2="885.036" gradientUnits="userSpaceOnUse"><stop stop-color="#64E6FA"/><stop offset=".323" stop-color="#3493E1"/><stop offset="1" stop-color="#318DDF"/></linearGradient><linearGradient id="paint5_linear_121_233" x1="-886.527" y1="-441.256" x2="2025.05" y2="944.027" gradientUnits="userSpaceOnUse"><stop stop-color="#64E6FA"/><stop offset=".323" stop-color="#3493E1"/><stop offset="1" stop-color="#318DDF"/></linearGradient><linearGradient id="paint6_linear_121_233" x1="-886.57" y1="-416.419" x2="1987.99" y2="1003.72" gradientUnits="userSpaceOnUse"><stop stop-color="#64E6FA"/><stop offset=".323" stop-color="#3493E1"/><stop offset="1" stop-color="#318DDF"/></linearGradient><linearGradient id="paint7_linear_121_233" x1="-886.57" y1="-391.539" x2="1947.21" y2="1064.09" gradientUnits="userSpaceOnUse"><stop stop-color="#64E6FA"/><stop offset=".323" stop-color="#3493E1"/><stop offset="1" stop-color="#318DDF"/></linearGradient><linearGradient id="paint8_linear_121_233" x1="-886.613" y1="-366.704" x2="1902.71" y2="1125.22" gradientUnits="userSpaceOnUse"><stop stop-color="#64E6FA"/><stop offset=".323" stop-color="#3493E1"/><stop offset="1" stop-color="#318DDF"/></linearGradient><linearGradient id="paint9_linear_121_233" x1="-886.654" y1="-341.866" x2="1853.56" y2="1186.38" gradientUnits="userSpaceOnUse"><stop stop-color="#64E6FA"/><stop offset=".323" stop-color="#3493E1"/><stop offset="1" stop-color="#318DDF"/></linearGradient><linearGradient id="paint10_linear_121_233" x1="-886.654" y1="-317.031" x2="1800.02" y2="1247.93" gradientUnits="userSpaceOnUse"><stop stop-color="#64E6FA"/><stop offset=".323" stop-color="#3493E1"/><stop offset="1" stop-color="#318DDF"/></linearGradient><linearGradient id="paint11_linear_121_233" x1="-886.697" y1="-292.195" x2="1743.24" y2="1307.63" gradientUnits="userSpaceOnUse"><stop stop-color="#64E6FA"/><stop offset=".323" stop-color="#3493E1"/><stop offset="1" stop-color="#318DDF"/></linearGradient><linearGradient id="paint12_linear_121_233" x1="-886.74" y1="-267.315" x2="1687.41" y2="1364.74" gradientUnits="userSpaceOnUse"><stop stop-color="#64E6FA"/><stop offset=".323" stop-color="#3493E1"/><stop offset="1" stop-color="#318DDF"/></linearGradient><linearGradient id="paint13_linear_121_233" x1="-886.74" y1="-242.48" x2="1623.98" y2="1422.11" gradientUnits="userSpaceOnUse"><stop stop-color="#64E6FA"/><stop offset=".323" stop-color="#3493E1"/><stop offset="1" stop-color="#318DDF"/></linearGradient><linearGradient id="paint14_linear_121_233" x1="-886.78" y1="-217.643" x2="1614.8" y2="1454.98" gradientUnits="userSpaceOnUse"><stop stop-color="#64E6FA"/><stop offset=".323" stop-color="#3493E1"/><stop offset="1" stop-color="#318DDF"/></linearGradient><linearGradient id="paint15_linear_121_233" x1="-886.831" y1="-192.809" x2="1640.89" y2="1472.81" gradientUnits="userSpaceOnUse"><stop stop-color="#64E6FA"/><stop offset=".323" stop-color="#3493E1"/><stop offset="1" stop-color="#318DDF"/></linearGradient><linearGradient id="paint16_linear_121_233" x1="-886.831" y1="-167.971" x2="1667.22" y2="1490.29" gradientUnits="userSpaceOnUse"><stop stop-color="#64E6FA"/><stop offset=".323" stop-color="#3493E1"/><stop offset="1" stop-color="#318DDF"/></linearGradient><linearGradient id="paint17_linear_121_233" x1="-886.874" y1="-143.135" x2="1692.99" y2="1507.64" gradientUnits="userSpaceOnUse"><stop stop-color="#64E6FA"/><stop offset=".323" stop-color="#3493E1"/><stop offset="1" stop-color="#318DDF"/></linearGradient><linearGradient id="paint18_linear_121_233" x1="-886.917" y1="-118.257" x2="1718.72" y2="1524.56" gradientUnits="userSpaceOnUse"><stop stop-color="#64E6FA"/><stop offset=".323" stop-color="#3493E1"/><stop offset="1" stop-color="#318DDF"/></linearGradient><linearGradient id="paint19_linear_121_233" x1="-886.917" y1="-93.419" x2="1744.36" y2="1541.46" gradientUnits="userSpaceOnUse"><stop stop-color="#64E6FA"/><stop offset=".323" stop-color="#3493E1"/><stop offset="1" stop-color="#318DDF"/></linearGradient><linearGradient id="paint20_linear_121_233" x1="-886.957" y1="-68.455" x2="1769.73" y2="1558.3" gradientUnits="userSpaceOnUse"><stop stop-color="#64E6FA"/><stop offset=".323" stop-color="#3493E1"/><stop offset="1" stop-color="#318DDF"/></linearGradient><linearGradient id="paint21_linear_121_233" x1="-887" y1="-43.745" x2="1794.44" y2="1574.46" gradientUnits="userSpaceOnUse"><stop stop-color="#64E6FA"/><stop offset=".323" stop-color="#3493E1"/><stop offset="1" stop-color="#318DDF"/></linearGradient><linearGradient id="paint22_linear_121_233" x1="-887" y1="-18.91" x2="1819.67" y2="1590.33" gradientUnits="userSpaceOnUse"><stop stop-color="#64E6FA"/><stop offset=".323" stop-color="#3493E1"/><stop offset="1" stop-color="#318DDF"/></linearGradient><clipPath id="clip0_121_233"><path fill="#fff" transform="translate(0 .356)" d="M0 0h1720v720H0z"/></clipPath></defs></svg>