<svg width="320" height="644" fill="none" xmlns="http://www.w3.org/2000/svg"><g clip-path="url(#clip0_91_3104)"><path fill="url(#paint0_linear_91_3104)" d="M0 0h320v644H0z"/><path d="M-359.654-308C-8.05-253.907 479.524 360.909 434.529 574.699 405.024 714.849 59.345 711.701-35.096 736.977-163.887 771.4 79.974 642.536 129.64 493.559c59.011-177.031-30.562-642.427 253.598-560.6C631.231 4.411 684.93 235.832 862.699 230.471c160.781-4.918 286.031-199.16 366.361-361.44" stroke="url(#paint1_linear_91_3104)" stroke-width="3" stroke-miterlimit="10" stroke-dasharray="10 10"/><path d="M-359.679-293.812c336.852 60.313 805.912 655.729 768.415 860.569-24.587 134.2-351.973 129.725-439.357 152.444-121.144 31.448 112.316-92.401 161.566-235.329 59.01-171.376-22.424-616.758 251.901-537.856 244.721 70.198 294.118 307.002 473.485 307.346 161.079-.295 291.269-190.333 375.139-349.145" stroke="url(#paint2_linear_91_3104)" stroke-width="3" stroke-miterlimit="10" stroke-dasharray="10 10"/><path d="M-359.707-279.699c322.099 66.534 772.644 642.501 742.671 838.441C363.294 686.991 54.178 681.188-26.151 701.35c-113.521 28.375 109.563-90.359 158.395-227.264 59.01-165.721-14.261-591.039 250.204-515.088C623.899 27.967 668.993 270.77 849.983 276.18 1011.33 281.097 1146.46 94.698 1233.9-60.672" stroke="url(#paint3_linear_91_3104)" stroke-width="3" stroke-miterlimit="10" stroke-dasharray="10 10"/><path d="M-359.707-265.488c307.346 72.779 739.377 629.199 716.903 816.312-14.752 122.225-305.6 115.168-378.872 132.773-105.948 25.129 106.834-88.417 155.223-219.273 59.182-160.091-6.098-565.345 248.532-492.369C620.236 39.72 660.978 288.276 843.59 298.972c161.62 9.564 301.72-172.581 392.72-324.558" stroke="url(#paint4_linear_91_3104)" stroke-width="3" stroke-miterlimit="10" stroke-dasharray="10 10"/><path d="M-359.73-251.324c292.74 79 706.109 615.823 691.16 794.183C321.595 659.035 49.04 650.725-17.175 665.65c-98.35 22.129 104.105-86.254 152.026-211.086 59.281-154.435 2.066-539.626 246.836-469.625 234.887 66.534 271.301 320.574 455.586 336.852 161.836 14.285 306.957-163.73 401.467-312.264" stroke="url(#paint5_linear_91_3104)" stroke-width="3" stroke-miterlimit="10" stroke-dasharray="10 10"/><path d="M-359.755-237.162c278.038 85.245 672.843 602.399 665.393 772.054C300.72 644.946 46.483 635.456-12.699 647.823c-90.68 18.933 101.448-84.237 148.854-203.02C195.558 295.998 146.383-69.081 381.319-2.054c231.567 65.329 263.654 324.926 449.586 346.686 162.107 18.982 312.265-154.902 410.275-299.97" stroke="url(#paint6_linear_91_3104)" stroke-width="3" stroke-miterlimit="10" stroke-dasharray="10 10"/><path d="M-359.755-222.975c263.31 91.467 639.526 588.581 639.625 749.926 0 103.833-236.042 93.187-288.094 103.022-83.058 15.662 98.793-82.172 145.682-194.907 59.551-143.199 18.367-488.238 243.418-424.113 228.297 64.075 256.007 329.229 443.636 356.522 162.279 23.604 317.398-145.978 419.048-287.677" stroke="url(#paint7_linear_91_3104)" stroke-width="3" stroke-miterlimit="10" stroke-dasharray="10 10"/><path d="M-359.78-208.812c248.582 97.686 606.186 574.786 613.882 727.796 4.917 97.564-212.684 85.811-257.827 93.163-75.46 12.293 96.187-80.132 142.609-186.867 59.748-137.691 26.407-462.052 241.771-401.37C605.534 87.273 628.99 357.418 818.316 390.267c162.598 28.227 322.644-137.101 427.824-275.382" stroke="url(#paint8_linear_91_3104)" stroke-width="3" stroke-miterlimit="10" stroke-dasharray="10 10"/><path d="M-359.802-194.65c233.878 103.932 572.746 560.845 588.113 705.667 9.688 91.196-189.325 78.41-227.56 83.278-67.787 8.655 93.606-78.066 139.339-178.728 59.921-131.986 34.423-436.308 240.075-378.65 221.584 62.182 240.738 337.712 431.686 376.192 162.82 32.8 327.879-128.225 436.609-263.089" stroke="url(#paint9_linear_91_3104)" stroke-width="3" stroke-miterlimit="10" stroke-dasharray="10 10"/><path d="M-359.802-180.488c219.15 110.153 539.184 546.707 562.345 683.538 14.359 84.754-165.967 70.935-197.316 73.419-60.093 4.745 90.974-76.025 136.167-170.663 60.19-126.357 42.684-410.615 238.5-355.858C598.184 110.95 613.01 391.84 805.606 435.975c163.066 37.348 333.114-119.374 445.404-250.795" stroke="url(#paint10_linear_91_3104)" stroke-width="3" stroke-miterlimit="10" stroke-dasharray="10 10"/><path d="M-359.827-166.326c204.447 116.398 505.45 532.422 536.602 661.409 18.884 78.238-142.412 63.412-167.196 63.559-52.224.295 88.516-73.959 132.995-162.598C203.059 275.294 193.396 11.197 379.28 62.93c214.97 59.846 225.469 346.047 419.736 395.862 163.312 41.799 338.324-110.497 454.164-238.501" stroke="url(#paint11_linear_91_3104)" stroke-width="3" stroke-miterlimit="10" stroke-dasharray="10 10"/><path d="M-359.852-152.139c189.744 122.595 471.494 517.965 510.859 639.281 23.236 71.624-119.398 59.821-136.806 53.65-43.963 4.918 86.057-71.87 129.799-154.485 60.83-115.144 59.01-359.152 235.009-310.37 211.7 58.642 217.872 350.153 413.762 405.697 163.582 46.348 343.569-101.621 462.959-226.207" stroke="url(#paint12_linear_91_3104)" stroke-width="3" stroke-miterlimit="10" stroke-dasharray="10 10"/><path d="M-359.852-137.977c174.991 128.84 437.17 503.434 485.067 617.152 27.39 65.01-96.114 52.814-106.539 43.791-36.242 2.262 83.77-69.78 126.627-146.42C206.551 267.032 212.452 43.112 378.616 88.87c208.405 57.46 210.274 354.259 407.811 415.532 163.853 50.823 348.773-92.745 471.743-213.913" stroke="url(#paint13_linear_91_3104)" stroke-width="3" stroke-miterlimit="10" stroke-dasharray="10 10"/><path d="M-359.874-123.812c160.287 135.06 402.5 488.926 459.323 595.022 31.275 58.42-72.878 45.807-76.222 33.906-28.547-.418 81.459-67.665 123.455-138.306 61.739-103.907 75.312-307.764 231.64-264.883 205.111 56.257 202.677 358.317 401.837 425.367 164.123 55.249 354.061-83.868 480.491-201.619" stroke="url(#paint14_linear_91_3104)" stroke-width="3" stroke-miterlimit="10" stroke-dasharray="10 10"/><path d="M-359.904-109.652C-214.32 31.653 7.51 364.89 73.676 463.241c34.915 51.905-49.618 38.8-46.053 24.047-20.826-3.123 79.222-65.526 120.283-130.315 62.33-98.351 83.476-282.07 229.944-242.14 201.841 55.052 195.104 362.349 395.863 435.203 164.418 59.699 359.247-74.993 489.297-189.326" stroke="url(#paint15_linear_91_3104)" stroke-width="3" stroke-miterlimit="10" stroke-dasharray="10 10"/><path d="M-359.904-95.488C-229.048 52.038-27.969 365.015 47.884 455.276c38.332 45.561-26.358 31.792-15.761 14.187-13.13-5.802 77.033-63.362 117.087-122.151 63.018-92.499 91.638-256.425 228.247-219.396 198.571 53.798 187.555 366.356 389.912 445.037 164.738 64.076 364.461-66.141 498.071-177.031" stroke="url(#paint16_linear_91_3104)" stroke-width="3" stroke-miterlimit="10" stroke-dasharray="10 10"/><path d="M-359.928-81.326C-243.776 72.445-63.99 365.629 22.116 447.31c41.578 39.463-3.098 24.784 14.482 4.302-5.41-8.482 74.943-61.1 113.915-114.062 63.805-86.696 99.801-230.756 226.576-196.702 195.275 52.544 180.006 370.291 383.912 454.873 165.057 68.452 369.699-57.265 506.849-164.738" stroke="url(#paint17_linear_91_3104)" stroke-width="3" stroke-miterlimit="10" stroke-dasharray="10 10"/><path d="M-359.953-67.139C-258.528 92.83-100.134 366.908-3.653 439.368c44.775 33.611 20.138 17.752 44.726-5.581 2.311-11.163 72.952-58.814 110.645-105.998 64.764-80.771 107.989-205.086 224.879-173.884 192.005 51.265 172.507 374.274 377.962 464.707 165.377 72.805 374.941-48.388 515.631-152.443" stroke="url(#paint18_linear_91_3104)" stroke-width="3" stroke-miterlimit="10" stroke-dasharray="10 10"/><path d="M-359.953-52.977C-273.256 113.236-136.327 368.85-29.42 431.401c47.995 28.079 46.938 14.507 74.968-15.441 11.679-12.49 71.034-56.552 107.596-97.908 65.846-74.698 116.152-179.49 223.182-151.141 188.736 49.963 164.984 378.184 371.963 474.543 165.746 77.156 380.171-39.537 524.431-140.15" stroke="url(#paint19_linear_91_3104)" stroke-width="3" stroke-miterlimit="10" stroke-dasharray="10 10"/><path d="M-359.975-38.74c71.992 172.433 187.653 410.27 304.887 462.249 51.413 22.817 68.256 5.729 105.26-25.326 18.564-15.588 69.165-53.921 104.4-89.819 67.149-68.378 124.315-153.845 221.486-128.397 185.489 48.61 157.508 382.118 366.012 484.378 166.115 81.484 385.39-30.636 533.18-127.856" stroke="url(#paint20_linear_91_3104)" stroke-width="3" stroke-miterlimit="10" stroke-dasharray="10 10"/><path d="M-360-24.65c57.289 178.678 152.026 399.206 279.021 440.12 55.003 17.727 90.508-2.459 135.503-35.185 25.768-18.761 67.37-51.29 101.228-81.73 68.649-61.74 132.552-128.397 219.789-105.727C557.884 239.79 525.748 578.56 735.579 687.041c166.606 85.59 390.621-21.785 541.991-115.562" stroke="url(#paint21_linear_91_3104)" stroke-width="3" stroke-miterlimit="10" stroke-dasharray="10 10"/><path d="M-360-10.488c42.561 184.899 116.816 388.485 253.253 417.991 176.22 38.234 312.092-244.992 481.919-201.619 179.048 45.757 142.609 389.887 354.063 504.048C896.112 800.07 1125.1 697.048 1280 606.663" stroke="url(#paint22_linear_91_3104)" stroke-width="3" stroke-miterlimit="10" stroke-dasharray="10 10"/></g><defs><linearGradient id="paint0_linear_91_3104" x1="0" y1="0" x2="400.207" y2="54.447" gradientUnits="userSpaceOnUse"><stop offset=".318" stop-color="#318DDF"/><stop offset=".802" stop-color="#4CBCED"/><stop offset="1" stop-color="#64E6FA"/></linearGradient><linearGradient id="paint1_linear_91_3104" x1="-359.654" y1="-308" x2="1367.9" y2="407.263" gradientUnits="userSpaceOnUse"><stop stop-color="#64E6FA"/><stop offset=".323" stop-color="#3493E1"/><stop offset="1" stop-color="#318DDF"/></linearGradient><linearGradient id="paint2_linear_91_3104" x1="-359.679" y1="-293.812" x2="1353.36" y2="439.318" gradientUnits="userSpaceOnUse"><stop stop-color="#64E6FA"/><stop offset=".323" stop-color="#3493E1"/><stop offset="1" stop-color="#318DDF"/></linearGradient><linearGradient id="paint3_linear_91_3104" x1="-359.707" y1="-279.699" x2="1337.4" y2="471.852" gradientUnits="userSpaceOnUse"><stop stop-color="#64E6FA"/><stop offset=".323" stop-color="#3493E1"/><stop offset="1" stop-color="#318DDF"/></linearGradient><linearGradient id="paint4_linear_91_3104" x1="-359.707" y1="-265.488" x2="1319.86" y2="504.974" gradientUnits="userSpaceOnUse"><stop stop-color="#64E6FA"/><stop offset=".323" stop-color="#3493E1"/><stop offset="1" stop-color="#318DDF"/></linearGradient><linearGradient id="paint5_linear_91_3104" x1="-359.73" y1="-251.324" x2="1300.56" y2="538.615" gradientUnits="userSpaceOnUse"><stop stop-color="#64E6FA"/><stop offset=".323" stop-color="#3493E1"/><stop offset="1" stop-color="#318DDF"/></linearGradient><linearGradient id="paint6_linear_91_3104" x1="-359.755" y1="-237.162" x2="1279.43" y2="572.654" gradientUnits="userSpaceOnUse"><stop stop-color="#64E6FA"/><stop offset=".323" stop-color="#3493E1"/><stop offset="1" stop-color="#318DDF"/></linearGradient><linearGradient id="paint7_linear_91_3104" x1="-359.755" y1="-222.975" x2="1256.17" y2="607.076" gradientUnits="userSpaceOnUse"><stop stop-color="#64E6FA"/><stop offset=".323" stop-color="#3493E1"/><stop offset="1" stop-color="#318DDF"/></linearGradient><linearGradient id="paint8_linear_91_3104" x1="-359.78" y1="-208.812" x2="1230.8" y2="641.939" gradientUnits="userSpaceOnUse"><stop stop-color="#64E6FA"/><stop offset=".323" stop-color="#3493E1"/><stop offset="1" stop-color="#318DDF"/></linearGradient><linearGradient id="paint9_linear_91_3104" x1="-359.802" y1="-194.65" x2="1202.77" y2="676.81" gradientUnits="userSpaceOnUse"><stop stop-color="#64E6FA"/><stop offset=".323" stop-color="#3493E1"/><stop offset="1" stop-color="#318DDF"/></linearGradient><linearGradient id="paint10_linear_91_3104" x1="-359.802" y1="-180.488" x2="1172.24" y2="711.908" gradientUnits="userSpaceOnUse"><stop stop-color="#64E6FA"/><stop offset=".323" stop-color="#3493E1"/><stop offset="1" stop-color="#318DDF"/></linearGradient><linearGradient id="paint11_linear_91_3104" x1="-359.827" y1="-166.326" x2="1139.86" y2="745.953" gradientUnits="userSpaceOnUse"><stop stop-color="#64E6FA"/><stop offset=".323" stop-color="#3493E1"/><stop offset="1" stop-color="#318DDF"/></linearGradient><linearGradient id="paint12_linear_91_3104" x1="-359.852" y1="-152.139" x2="1108.02" y2="778.518" gradientUnits="userSpaceOnUse"><stop stop-color="#64E6FA"/><stop offset=".323" stop-color="#3493E1"/><stop offset="1" stop-color="#318DDF"/></linearGradient><linearGradient id="paint13_linear_91_3104" x1="-359.852" y1="-137.977" x2="1071.85" y2="811.235" gradientUnits="userSpaceOnUse"><stop stop-color="#64E6FA"/><stop offset=".323" stop-color="#3493E1"/><stop offset="1" stop-color="#318DDF"/></linearGradient><linearGradient id="paint14_linear_91_3104" x1="-359.874" y1="-123.812" x2="1066.62" y2="829.977" gradientUnits="userSpaceOnUse"><stop stop-color="#64E6FA"/><stop offset=".323" stop-color="#3493E1"/><stop offset="1" stop-color="#318DDF"/></linearGradient><linearGradient id="paint15_linear_91_3104" x1="-359.904" y1="-109.652" x2="1081.5" y2="840.145" gradientUnits="userSpaceOnUse"><stop stop-color="#64E6FA"/><stop offset=".323" stop-color="#3493E1"/><stop offset="1" stop-color="#318DDF"/></linearGradient><linearGradient id="paint16_linear_91_3104" x1="-359.904" y1="-95.488" x2="1096.51" y2="850.113" gradientUnits="userSpaceOnUse"><stop stop-color="#64E6FA"/><stop offset=".323" stop-color="#3493E1"/><stop offset="1" stop-color="#318DDF"/></linearGradient><linearGradient id="paint17_linear_91_3104" x1="-359.928" y1="-81.326" x2="1111.21" y2="860.005" gradientUnits="userSpaceOnUse"><stop stop-color="#64E6FA"/><stop offset=".323" stop-color="#3493E1"/><stop offset="1" stop-color="#318DDF"/></linearGradient><linearGradient id="paint18_linear_91_3104" x1="-359.953" y1="-67.139" x2="1125.88" y2="869.657" gradientUnits="userSpaceOnUse"><stop stop-color="#64E6FA"/><stop offset=".323" stop-color="#3493E1"/><stop offset="1" stop-color="#318DDF"/></linearGradient><linearGradient id="paint19_linear_91_3104" x1="-359.953" y1="-52.977" x2="1140.5" y2="879.292" gradientUnits="userSpaceOnUse"><stop stop-color="#64E6FA"/><stop offset=".323" stop-color="#3493E1"/><stop offset="1" stop-color="#318DDF"/></linearGradient><linearGradient id="paint20_linear_91_3104" x1="-359.975" y1="-38.74" x2="1154.96" y2="888.892" gradientUnits="userSpaceOnUse"><stop stop-color="#64E6FA"/><stop offset=".323" stop-color="#3493E1"/><stop offset="1" stop-color="#318DDF"/></linearGradient><linearGradient id="paint21_linear_91_3104" x1="-360" y1="-24.65" x2="1169.05" y2="898.11" gradientUnits="userSpaceOnUse"><stop stop-color="#64E6FA"/><stop offset=".323" stop-color="#3493E1"/><stop offset="1" stop-color="#318DDF"/></linearGradient><linearGradient id="paint22_linear_91_3104" x1="-360" y1="-10.488" x2="1183.44" y2="907.16" gradientUnits="userSpaceOnUse"><stop stop-color="#64E6FA"/><stop offset=".323" stop-color="#3493E1"/><stop offset="1" stop-color="#318DDF"/></linearGradient><clipPath id="clip0_91_3104"><path fill="#fff" d="M0 0h320v644H0z"/></clipPath></defs></svg>