<svg width="50" height="51" fill="none" xmlns="http://www.w3.org/2000/svg"><path d="M46.566 18.737l-5.16-3.906V9.625a2.346 2.346 0 00-2.343-2.343H31.45l-3.618-2.74a4.695 4.695 0 00-5.663 0l-3.619 2.74h-7.612a2.346 2.346 0 00-2.344 2.343v5.206l-5.16 3.906a.829.829 0 00-.291.547c-.11.06.042 23.08-.018 23.154a4.715 4.715 0 004.688 4.687h34.375a4.692 4.692 0 004.687-4.687V19.36a.782.782 0 00-.31-.623zm-5.16-1.947l3.404 2.578-3.404 2.646V16.79zM23.113 5.786a3.128 3.128 0 013.775.001l1.974 1.495h-7.724l1.975-1.496zm-12.957 3.84a.782.782 0 01.782-.782h28.125a.782.782 0 01.78.781V23.23l-12.44 9.674a3.654 3.654 0 01-4.641.125l-12.606-9.8V9.626zM8.594 16.79v5.224L5.19 19.368l3.404-2.578zM4.688 42.44V20.956l16.125 12.536L5.359 44.364a3.104 3.104 0 01-.671-1.925zm37.5 3.125H7.813a3.106 3.106 0 01-1.132-.22l15.45-10.87a5.092 5.092 0 005.74.001l15.449 10.87a3.11 3.11 0 01-1.132.219zm3.125-3.125a3.107 3.107 0 01-.673 1.925L29.187 33.49l16.126-12.534V42.44z" fill="url(#paint0_linear_53_1685)"/><path d="M25.013 29.13c.985.03 4.933-.595 4.18-2.117a.78.78 0 00-1.068-.285c-3.508 2.167-8.591-.072-9.258-4.183-1.349-8.173 10.396-10.524 12.266-2.461.322 1.492.171 3.777-1.836 3.708v-5.115a.781.781 0 00-.781-.78.768.768 0 00-.589.28A4.276 4.276 0 0025 17.018c-5.678.18-5.678 8.414 0 8.594a4.27 4.27 0 002.5-.81 3.415 3.415 0 005.216-2.255 8.01 8.01 0 00-.048-2.754c-1.059-6.051-8.966-8.414-13.192-4.001-4.913 4.803-1.373 13.435 5.537 13.337zM25 24.047a2.734 2.734 0 110-5.469 2.734 2.734 0 010 5.469z" fill="url(#paint1_linear_53_1685)"/><defs><linearGradient id="paint0_linear_53_1685" x1="3.102" y1="3.592" x2="54.932" y2="17.861" gradientUnits="userSpaceOnUse"><stop offset=".318" stop-color="#318DDF"/><stop offset=".802" stop-color="#4CBCED"/><stop offset="1" stop-color="#64E6FA"/></linearGradient><linearGradient id="paint1_linear_53_1685" x1="17.19" y1="13.516" x2="35.701" y2="18.586" gradientUnits="userSpaceOnUse"><stop offset=".318" stop-color="#318DDF"/><stop offset=".802" stop-color="#4CBCED"/><stop offset="1" stop-color="#64E6FA"/></linearGradient></defs></svg>