<svg width="1720" height="720" fill="none" xmlns="http://www.w3.org/2000/svg"><g clip-path="url(#clip0_53_1347)"><path fill="url(#paint0_linear_53_1347)" d="M0 0h1720v720H0z"/><path d="M-277.393-649C339.201-554.139 1194.24 524.037 1115.33 898.952c-51.74 245.778-657.942 240.258-823.56 284.578-225.854 60.37 201.795-165.61 288.894-426.869 103.484-310.452-53.596-1126.598 444.726-983.1 434.89 125.302 529.06 531.133 840.81 521.733 281.95-8.624 501.59-349.26 642.46-633.841" stroke="url(#paint1_linear_53_1347)" stroke-width="3" stroke-miterlimit="10" stroke-dasharray="10 10"/><path d="M-277.436-624.12C313.287-518.351 1135.86 525.805 1070.1 885.025c-43.12 235.345-617.239 227.495-770.482 267.335-212.444 55.15 196.965-162.04 283.331-412.687C686.434 439.137 543.625-341.91 1024.7-203.543c429.16 123.103 515.78 538.377 830.33 538.981 282.47-.518 510.78-333.78 657.86-612.282" stroke="url(#paint2_linear_53_1347)" stroke-width="3" stroke-miterlimit="10" stroke-dasharray="10 10"/><path d="M-277.487-599.371C287.365-482.693 1077.47 527.357 1024.91 870.967 990.411 1095.87 448.326 1085.7 307.458 1121.05c-199.078 49.76 192.135-158.456 277.769-398.539C688.711 431.892 560.218-313.97 1024-180.778c423.42 120.948 502.5 546.742 819.9 556.228 282.94 8.624 519.92-318.257 673.25-590.722" stroke="url(#paint3_linear_53_1347)" stroke-width="3" stroke-miterlimit="10" stroke-dasharray="10 10"/><path d="M-277.487-574.448C261.493-446.818 1019.13 528.953 979.717 857.084c-25.871 214.346-535.919 201.966-664.412 232.836-185.797 44.07 187.35-155.05 272.207-384.527 103.786-280.744-10.693-991.422 435.838-863.446 417.65 118.834 489.1 554.718 809.34 573.475 283.41 16.773 529.1-302.649 688.68-569.164" stroke="url(#paint4_linear_53_1347)" stroke-width="3" stroke-miterlimit="10" stroke-dasharray="10 10"/><path d="M-277.527-549.612C235.841-411.073 960.748 530.332 934.532 843.114c-17.247 203.736-495.215 189.156-611.333 215.336-172.474 38.8 182.563-151.263 266.601-370.175 103.959-270.827 3.622-946.32 432.87-823.562 411.91 116.679 475.76 562.178 798.94 590.723 283.8 25.051 538.29-287.126 704.04-547.604" stroke="url(#paint5_linear_53_1347)" stroke-width="3" stroke-miterlimit="10" stroke-dasharray="10 10"/><path d="M-277.57-524.776C210.013-375.284 902.366 531.626 889.301 829.143c-8.624 192.997-454.468 176.357-558.254 198.047-159.021 33.2 177.906-147.727 261.039-356.033 104.174-260.952 17.937-901.175 429.934-783.634 406.09 114.565 462.36 569.81 788.42 607.97 284.28 33.287 547.6-271.646 719.47-526.045" stroke="url(#paint6_linear_53_1347)" stroke-width="3" stroke-miterlimit="10" stroke-dasharray="10 10"/><path d="M-277.57-499.896C184.185-339.495 843.94 532.273 844.113 815.217c0 182.089-413.937 163.418-505.219 180.666-145.654 27.467 173.25-144.102 255.477-341.8C698.804 402.961 626.58-202.12 1021.24-89.667 1421.6 22.7 1470.19 487.689 1799.23 535.55c284.58 41.394 556.62-255.994 734.87-504.485" stroke="url(#paint7_linear_53_1347)" stroke-width="3" stroke-miterlimit="10" stroke-dasharray="10 10"/><path d="M-277.613-475.06C158.314-303.751 785.429 532.919 798.925 801.246c8.623 171.093-372.975 150.483-452.14 163.375-132.331 21.56 168.679-140.523 250.087-327.7C701.65 395.458 643.181-173.361 1020.86-66.944c394.36 111.116 435.49 584.858 767.5 642.464 285.15 49.5 565.8-240.428 750.26-482.926" stroke="url(#paint8_linear_53_1347)" stroke-width="3" stroke-miterlimit="10" stroke-dasharray="10 10"/><path d="M-277.654-450.223C132.489-267.961 726.747 533.309 753.696 787.276c16.989 159.927-332.012 137.505-399.061 146.043-118.877 15.177 164.152-136.901 244.352-313.428C704.067 388.431 659.353-145.246 1020-44.133c388.58 109.046 422.17 592.231 757.03 659.712 285.53 57.52 574.98-224.863 765.65-461.368" stroke="url(#paint9_linear_53_1347)" stroke-width="3" stroke-miterlimit="10" stroke-dasharray="10 10"/><path d="M-277.654-425.388C106.661-232.217 667.891 533.35 708.508 773.305c25.181 148.629-291.049 124.396-346.025 128.751-105.382 8.322 159.538-133.322 238.79-299.285 105.554-221.586 74.853-720.078 418.247-624.053 382.81 106.977 408.81 599.562 746.55 676.959 285.97 65.497 584.17-209.34 781.1-439.808" stroke="url(#paint10_linear_53_1347)" stroke-width="3" stroke-miterlimit="10" stroke-dasharray="10 10"/><path d="M-277.697-400.552C80.833-196.429 608.689 533.135 663.32 759.334c33.115 137.203-249.742 111.203-293.205 111.461-91.584.518 155.226-129.7 233.228-285.142C709.414 373.899 692.468-89.237 1018.44 1.485c376.99 104.95 395.4 606.849 736.08 694.207 286.39 73.301 593.31-193.775 796.44-418.249" stroke="url(#paint11_linear_53_1347)" stroke-width="3" stroke-miterlimit="10" stroke-dasharray="10 10"/><path d="M-277.739-375.672C55.005-160.683 549.1 532.661 618.132 745.407c40.747 125.604-209.383 104.908-239.911 94.085-77.095 8.624 150.915-126.035 227.623-270.913C712.519 366.655 709.328-61.252 1017.97 24.295c371.25 102.837 382.07 614.049 725.6 711.454 286.86 81.278 602.49-178.209 811.87-396.69" stroke="url(#paint12_linear_53_1347)" stroke-width="3" stroke-miterlimit="10" stroke-dasharray="10 10"/><path d="M-277.739-350.837c306.873 225.941 766.645 882.85 850.64 1082.273 48.034 114.005-168.55 92.618-186.832 76.794-63.557 3.967 146.904-122.37 222.06-256.77C715.537 359.41 725.886-33.27 1017.28 46.974c365.47 100.768 368.75 621.25 715.16 728.701 287.34 89.126 611.64-162.642 827.27-375.13" stroke="url(#paint13_linear_53_1347)" stroke-width="3" stroke-miterlimit="10" stroke-dasharray="10 10"/><path d="M-277.78-325.999C3.31-89.149 428.069 531.411 527.716 717.467c54.846 102.449-127.803 80.329-133.667 59.46-50.061-.733 142.851-118.662 216.497-242.541C718.817 352.167 742.618-5.328 1016.77 69.871c359.69 98.655 355.42 628.365 704.68 745.949 287.82 96.887 620.91-147.077 842.62-353.571" stroke="url(#paint14_linear_53_1347)" stroke-width="3" stroke-miterlimit="10" stroke-dasharray="10 10"/><path d="M-277.831-301.165C-22.526-53.363 366.488 531.021 482.52 703.495c61.228 91.023-87.013 68.041-80.761 42.17-36.521-5.476 138.928-114.911 210.935-228.528C722 344.663 759.081 22.483 1015.94 92.507c353.96 96.542 342.14 635.436 694.2 763.196 288.34 104.692 630.01-131.511 858.06-332.012" stroke="url(#paint15_linear_53_1347)" stroke-width="3" stroke-miterlimit="10" stroke-dasharray="10 10"/><path d="M-277.831-276.327c229.477 258.71 582.099 807.565 715.12 965.853 67.221 79.899-46.223 55.752-27.639 24.879-23.026-10.175 135.09-111.116 205.33-214.212 110.512-162.212 160.702-449.682 400.27-384.746 348.22 94.343 328.91 642.465 683.77 780.444 288.89 112.369 639.14-115.989 873.45-310.453" stroke="url(#paint16_linear_53_1347)" stroke-width="3" stroke-miterlimit="10" stroke-dasharray="10 10"/><path d="M-277.874-251.491C-74.182 18.171 241.1 532.316 392.101 675.555c72.913 69.205-5.433 43.463 25.396 7.546-9.486-14.876 131.425-107.15 199.768-200.027C729.157 331.039 792.283 78.408 1014.6 138.127c342.45 92.144 315.67 649.364 673.25 797.691 289.46 120.042 648.33-100.423 888.85-288.894" stroke="url(#paint17_linear_53_1347)" stroke-width="3" stroke-miterlimit="10" stroke-dasharray="10 10"/><path d="M-277.917-226.613c177.864 280.529 455.633 761.17 624.83 888.24 78.518 58.943 35.314 31.131 78.432-9.788 4.053-19.576 127.933-103.139 194.033-185.884 113.574-141.644 189.376-359.651 394.362-304.933 336.71 89.902 302.52 656.349 662.82 814.938 290.01 127.67 657.51-84.857 904.23-267.334" stroke="url(#paint18_linear_53_1347)" stroke-width="3" stroke-miterlimit="10" stroke-dasharray="10 10"/><path d="M-277.917-201.775c152.036 291.48 392.163 739.74 579.642 849.433 84.167 49.241 82.313 25.44 131.468-27.079 20.481-21.904 124.569-99.172 188.686-171.697C737.35 317.888 825.57 134.117 1013.26 183.833c330.98 87.616 289.33 663.205 652.3 832.187 290.66 135.3 666.7-69.336 919.67-245.776" stroke="url(#paint19_linear_53_1347)" stroke-width="3" stroke-miterlimit="10" stroke-dasharray="10 10"/><path d="M-277.957-176.812c126.251 302.39 329.08 719.475 534.669 810.627 90.16 40.014 119.696 10.047 184.59-44.412 32.554-27.337 121.292-94.559 183.081-157.511 117.756-119.913 218.006-269.793 388.407-225.165 325.29 85.245 276.22 670.104 641.86 849.433 291.31 142.89 675.84-53.73 935.03-224.215" stroke="url(#paint20_linear_53_1347)" stroke-width="3" stroke-miterlimit="10" stroke-dasharray="10 10"/><path d="M-278-152.102c100.466 313.342 266.601 700.071 489.308 771.82 96.456 31.089 158.719-4.312 237.626-61.702 45.188-32.9 118.144-89.945 177.518-143.326 120.387-108.27 232.452-225.164 385.438-185.409 319.76 82.356 263.41 676.442 631.38 866.679 292.17 150.1 685.02-38.2 950.46-202.655" stroke="url(#paint21_linear_53_1347)" stroke-width="3" stroke-miterlimit="10" stroke-dasharray="10 10"/><path d="M-278-127.267c74.638 324.251 204.856 681.272 444.12 733.014 309.03 67.049 547.302-429.632 845.12-353.572 313.99 80.244 250.09 683.73 620.91 883.925 292.64 158.08 694.2-22.59 965.85-181.094" stroke="url(#paint22_linear_53_1347)" stroke-width="3" stroke-miterlimit="10" stroke-dasharray="10 10"/></g><defs><linearGradient id="paint0_linear_53_1347" x1="0" y1="0" x2="1534.47" y2="1003.65" gradientUnits="userSpaceOnUse"><stop offset=".318" stop-color="#318DDF"/><stop offset=".802" stop-color="#4CBCED"/><stop offset="1" stop-color="#64E6FA"/></linearGradient><linearGradient id="paint1_linear_53_1347" x1="-277.393" y1="-649" x2="2752.14" y2="605.328" gradientUnits="userSpaceOnUse"><stop stop-color="#64E6FA"/><stop offset=".323" stop-color="#3493E1"/><stop offset="1" stop-color="#318DDF"/></linearGradient><linearGradient id="paint2_linear_53_1347" x1="-277.436" y1="-624.12" x2="2726.64" y2="661.54" gradientUnits="userSpaceOnUse"><stop stop-color="#64E6FA"/><stop offset=".323" stop-color="#3493E1"/><stop offset="1" stop-color="#318DDF"/></linearGradient><linearGradient id="paint3_linear_53_1347" x1="-277.487" y1="-599.371" x2="2698.66" y2="718.593" gradientUnits="userSpaceOnUse"><stop stop-color="#64E6FA"/><stop offset=".323" stop-color="#3493E1"/><stop offset="1" stop-color="#318DDF"/></linearGradient><linearGradient id="paint4_linear_53_1347" x1="-277.487" y1="-574.448" x2="2667.89" y2="776.68" gradientUnits="userSpaceOnUse"><stop stop-color="#64E6FA"/><stop offset=".323" stop-color="#3493E1"/><stop offset="1" stop-color="#318DDF"/></linearGradient><linearGradient id="paint5_linear_53_1347" x1="-277.527" y1="-549.612" x2="2634.05" y2="835.671" gradientUnits="userSpaceOnUse"><stop stop-color="#64E6FA"/><stop offset=".323" stop-color="#3493E1"/><stop offset="1" stop-color="#318DDF"/></linearGradient><linearGradient id="paint6_linear_53_1347" x1="-277.57" y1="-524.776" x2="2596.99" y2="895.365" gradientUnits="userSpaceOnUse"><stop stop-color="#64E6FA"/><stop offset=".323" stop-color="#3493E1"/><stop offset="1" stop-color="#318DDF"/></linearGradient><linearGradient id="paint7_linear_53_1347" x1="-277.57" y1="-499.896" x2="2556.21" y2="955.729" gradientUnits="userSpaceOnUse"><stop stop-color="#64E6FA"/><stop offset=".323" stop-color="#3493E1"/><stop offset="1" stop-color="#318DDF"/></linearGradient><linearGradient id="paint8_linear_53_1347" x1="-277.613" y1="-475.06" x2="2511.71" y2="1016.87" gradientUnits="userSpaceOnUse"><stop stop-color="#64E6FA"/><stop offset=".323" stop-color="#3493E1"/><stop offset="1" stop-color="#318DDF"/></linearGradient><linearGradient id="paint9_linear_53_1347" x1="-277.654" y1="-450.223" x2="2462.56" y2="1078.02" gradientUnits="userSpaceOnUse"><stop stop-color="#64E6FA"/><stop offset=".323" stop-color="#3493E1"/><stop offset="1" stop-color="#318DDF"/></linearGradient><linearGradient id="paint10_linear_53_1347" x1="-277.654" y1="-425.388" x2="2409.02" y2="1139.57" gradientUnits="userSpaceOnUse"><stop stop-color="#64E6FA"/><stop offset=".323" stop-color="#3493E1"/><stop offset="1" stop-color="#318DDF"/></linearGradient><linearGradient id="paint11_linear_53_1347" x1="-277.697" y1="-400.552" x2="2352.24" y2="1199.28" gradientUnits="userSpaceOnUse"><stop stop-color="#64E6FA"/><stop offset=".323" stop-color="#3493E1"/><stop offset="1" stop-color="#318DDF"/></linearGradient><linearGradient id="paint12_linear_53_1347" x1="-277.739" y1="-375.672" x2="2296.41" y2="1256.38" gradientUnits="userSpaceOnUse"><stop stop-color="#64E6FA"/><stop offset=".323" stop-color="#3493E1"/><stop offset="1" stop-color="#318DDF"/></linearGradient><linearGradient id="paint13_linear_53_1347" x1="-277.739" y1="-350.837" x2="2232.98" y2="1313.76" gradientUnits="userSpaceOnUse"><stop stop-color="#64E6FA"/><stop offset=".323" stop-color="#3493E1"/><stop offset="1" stop-color="#318DDF"/></linearGradient><linearGradient id="paint14_linear_53_1347" x1="-277.78" y1="-325.999" x2="2223.8" y2="1346.62" gradientUnits="userSpaceOnUse"><stop stop-color="#64E6FA"/><stop offset=".323" stop-color="#3493E1"/><stop offset="1" stop-color="#318DDF"/></linearGradient><linearGradient id="paint15_linear_53_1347" x1="-277.831" y1="-301.165" x2="2249.89" y2="1364.46" gradientUnits="userSpaceOnUse"><stop stop-color="#64E6FA"/><stop offset=".323" stop-color="#3493E1"/><stop offset="1" stop-color="#318DDF"/></linearGradient><linearGradient id="paint16_linear_53_1347" x1="-277.831" y1="-276.327" x2="2276.22" y2="1381.94" gradientUnits="userSpaceOnUse"><stop stop-color="#64E6FA"/><stop offset=".323" stop-color="#3493E1"/><stop offset="1" stop-color="#318DDF"/></linearGradient><linearGradient id="paint17_linear_53_1347" x1="-277.874" y1="-251.491" x2="2301.99" y2="1399.28" gradientUnits="userSpaceOnUse"><stop stop-color="#64E6FA"/><stop offset=".323" stop-color="#3493E1"/><stop offset="1" stop-color="#318DDF"/></linearGradient><linearGradient id="paint18_linear_53_1347" x1="-277.917" y1="-226.613" x2="2327.72" y2="1416.21" gradientUnits="userSpaceOnUse"><stop stop-color="#64E6FA"/><stop offset=".323" stop-color="#3493E1"/><stop offset="1" stop-color="#318DDF"/></linearGradient><linearGradient id="paint19_linear_53_1347" x1="-277.917" y1="-201.775" x2="2353.36" y2="1433.1" gradientUnits="userSpaceOnUse"><stop stop-color="#64E6FA"/><stop offset=".323" stop-color="#3493E1"/><stop offset="1" stop-color="#318DDF"/></linearGradient><linearGradient id="paint20_linear_53_1347" x1="-277.957" y1="-176.812" x2="2378.73" y2="1449.94" gradientUnits="userSpaceOnUse"><stop stop-color="#64E6FA"/><stop offset=".323" stop-color="#3493E1"/><stop offset="1" stop-color="#318DDF"/></linearGradient><linearGradient id="paint21_linear_53_1347" x1="-278" y1="-152.102" x2="2403.44" y2="1466.11" gradientUnits="userSpaceOnUse"><stop stop-color="#64E6FA"/><stop offset=".323" stop-color="#3493E1"/><stop offset="1" stop-color="#318DDF"/></linearGradient><linearGradient id="paint22_linear_53_1347" x1="-278" y1="-127.267" x2="2428.67" y2="1481.97" gradientUnits="userSpaceOnUse"><stop stop-color="#64E6FA"/><stop offset=".323" stop-color="#3493E1"/><stop offset="1" stop-color="#318DDF"/></linearGradient><clipPath id="clip0_53_1347"><path fill="#fff" d="M0 0h1720v720H0z"/></clipPath></defs></svg>