<svg width="24" height="24" fill="none" xmlns="http://www.w3.org/2000/svg"><path fill-rule="evenodd" clip-rule="evenodd" d="M12 3.538a8.462 8.462 0 100 16.924 8.462 8.462 0 000-16.924zM2 12C2 6.477 6.477 2 12 2s10 4.477 10 10-4.477 10-10 10S2 17.523 2 12z" fill="#fff"/><path fill-rule="evenodd" clip-rule="evenodd" d="M12 16.359a.77.77 0 00.77-.77v-4.102a.77.77 0 10-1.54 0v4.103a.77.77 0 00.77.769z" fill="#fff"/><path d="M13.026 8.41a1.026 1.026 0 10-2.052 0 1.026 1.026 0 002.052 0z" fill="#fff"/></svg>