<svg width="50" height="50" fill="none" xmlns="http://www.w3.org/2000/svg"><g clip-path="url(#clip0_77_536)" fill="#fff"><path d="M49.771 39.827L38.99 29.047c.053-.043.11-.081.168-.116l2.873-1.529a3.182 3.182 0 001.373-4.226l-1.431-2.927a1.623 1.623 0 010-1.435l1.43-2.927a3.183 3.183 0 00-1.372-4.227l-2.876-1.527a1.621 1.621 0 01-.843-1.16l-.563-3.21a3.183 3.183 0 00-3.593-2.612l-3.227.457a1.64 1.64 0 01-1.364-.443L27.22.899a3.182 3.182 0 00-4.444 0l-2.343 2.266a1.64 1.64 0 01-1.364.443l-3.228-.457a3.185 3.185 0 00-3.594 2.612l-.563 3.21a1.62 1.62 0 01-.843 1.16L7.97 11.66a3.183 3.183 0 00-1.373 4.227l1.431 2.927a1.624 1.624 0 010 1.434l-1.434 2.928a3.183 3.183 0 001.373 4.226l2.88 1.528c.057.035.113.073.166.115L.232 39.825a.781.781 0 00.376 1.315l6.705 1.548 1.548 6.705a.781.781 0 001.314.377l12.096-12.097.507.491a3.182 3.182 0 004.444 0l.507-.491L39.827 49.77a.782.782 0 001.314-.376l1.548-6.706 6.706-1.547a.781.781 0 00.376-1.315zM10.064 47.67l-1.34-5.808a.782.782 0 00-.586-.586l-5.808-1.34 9.43-9.43.49 2.793a3.186 3.186 0 003.595 2.613l3.226-.457a1.645 1.645 0 011.364.443l.712.688L10.064 47.67zm13.8-10.63l-1.05-1.015-1.292-1.25a3.175 3.175 0 00-2.669-.868l-3.228.457a1.623 1.623 0 01-1.837-1.335l-.563-3.21a3.186 3.186 0 00-.39-1.032 3.165 3.165 0 00-1.255-1.238L8.7 26.022a1.626 1.626 0 01-.703-2.16l1.431-2.924a3.183 3.183 0 000-2.808l-1.431-2.928a1.626 1.626 0 01.703-2.159l2.878-1.527a3.174 3.174 0 001.65-2.27l.563-3.21a1.62 1.62 0 011.834-1.337l3.227.457a3.18 3.18 0 002.67-.868l2.343-2.266a1.625 1.625 0 012.27 0l2.344 2.266a3.179 3.179 0 002.668.868l3.228-.457a1.623 1.623 0 011.837 1.335l.563 3.21a3.175 3.175 0 001.65 2.27l2.878 1.527a1.626 1.626 0 01.703 2.16l-1.434 2.924a3.183 3.183 0 000 2.808l1.431 2.927a1.626 1.626 0 01-.703 2.16l-2.878 1.527a3.172 3.172 0 00-1.65 2.27l-.563 3.21a1.624 1.624 0 01-1.834 1.337l-3.229-.458a3.181 3.181 0 00-2.669.868l-2.343 2.266a1.625 1.625 0 01-2.27 0zm17.998 4.236a.781.781 0 00-.586.586l-1.34 5.808-11.084-11.084.711-.688a1.648 1.648 0 011.364-.443l3.228.457a3.185 3.185 0 003.593-2.613l.49-2.793 9.431 9.43-5.807 1.34z"/><path d="M36.719 19.532c0-2.806-1.007-5.519-2.838-7.645a.783.783 0 00-1.406.435.782.782 0 00.224.58 10.145 10.145 0 11-2.05-1.817.781.781 0 10.87-1.296 11.719 11.719 0 105.2 9.743z"/><path d="M29.512 15.869l-6.088 6.41-2.915-3.321a.78.78 0 10-1.172 1.03l3.476 3.965a.782.782 0 00.571.266h.016a.78.78 0 00.566-.244l6.676-7.031a.781.781 0 10-1.133-1.075h.003z"/></g><defs><clipPath id="clip0_77_536"><path fill="#fff" d="M0 0h50v50H0z"/></clipPath></defs></svg>