<svg width="50" height="50" fill="none" xmlns="http://www.w3.org/2000/svg"><path d="M28.137 22.613v3.307a2.696 2.696 0 002.693 2.693 2.696 2.696 0 002.693-2.693v-3.307a.763.763 0 10-1.526 0v3.307c0 .644-.524 1.168-1.166 1.168a1.17 1.17 0 01-1.168-1.167v-3.308a.763.763 0 10-1.526 0zm-3.314-1.223h-1.645c-.005 0-.009-.003-.014-.003a.763.763 0 00-.763.763v5.7a.763.763 0 101.526 0v-1.878h.896c.612 0 1.205-.249 1.614-.667a2.285 2.285 0 00.005-3.245 2.293 2.293 0 00-1.62-.67zm.535 2.837a.75.75 0 01-.535.219h-.896v-1.53h.896a.766.766 0 01.707 1.06.764.764 0 01-.172.25zm-5.372-1.107h.55a.763.763 0 000-1.525h-.55a3.513 3.513 0 00-3.51 3.508 3.514 3.514 0 003.51 3.51h.55a.763.763 0 100-1.525h-.55a1.985 1.985 0 01-1.983-1.984c0-1.093.889-1.984 1.983-1.984z" fill="#004CBF"/><path d="M6.694 35.183a.763.763 0 000 1.525h2.951v2.888c0 .421.342.762.763.762h2.883v2.948a.763.763 0 101.526 0v-2.948h2.853v2.948a.763.763 0 001.525 0v-2.948h2.853v2.948a.762.762 0 101.525 0v-2.948h2.854v2.948a.762.762 0 101.525 0v-2.948h2.853v2.948a.76.76 0 001.054.704.762.762 0 00.471-.704v-2.948h2.853v2.948a.762.762 0 101.525 0v-2.948h2.884a.762.762 0 00.763-.762v-2.887h2.95a.763.763 0 000-1.526h-2.95V32.33h2.95a.763.763 0 000-1.525h-2.95v-2.853h2.95a.762.762 0 000-1.525h-2.95v-2.854h2.95a.762.762 0 100-1.525h-2.95v-2.853h2.95a.763.763 0 000-1.525h-2.95v-2.853h2.95a.762.762 0 000-1.525h-2.95v-2.888a.762.762 0 00-.762-.762h-2.884V6.694a.762.762 0 10-1.526 0v2.948H32.33V6.694a.763.763 0 10-1.525 0v2.948h-2.853V6.694a.763.763 0 10-1.525 0v2.948h-2.854V6.694a.763.763 0 00-1.525 0v2.948h-2.853V6.694a.762.762 0 10-1.525 0v2.948h-2.853V6.694a.762.762 0 10-1.525 0v2.948h-2.884a.763.763 0 00-.763.762v2.887h-2.95a.763.763 0 000 1.526h2.95v2.853h-2.95a.762.762 0 100 1.525h2.95v2.853h-2.95a.763.763 0 000 1.525h2.95v2.854h-2.95a.762.762 0 100 1.525h2.95v2.853h-2.95a.762.762 0 100 1.525h2.95v2.853h-2.95zm4.477-24.016h27.658v27.666H11.171V11.167z" fill="#004CBF"/><path d="M29.724 13.515a.762.762 0 00-.539-.225H14.058a.763.763 0 00-.763.764v21.892c0 .421.342.763.763.763h21.884a.763.763 0 00.762-.764V20.812a.762.762 0 00-.223-.54l-6.757-6.756zm5.455 21.668H14.821V14.816h14.048l6.31 6.31v14.057z" fill="#004CBF"/></svg>