<svg width="50" height="50" fill="none" xmlns="http://www.w3.org/2000/svg"><path d="M22.242 21.094H4.97a.781.781 0 01-.782-.782V5.126a.781.781 0 01.782-.781h19.336a.781.781 0 01.78.781v13.102a2.85 2.85 0 01-2.843 2.867zM5.75 19.53h16.492a1.281 1.281 0 001.281-1.281V5.906H5.75v13.625z" fill="#004CBF"/><path d="M14.633 18.352a.782.782 0 11.305-1.5.781.781 0 01.25.164.83.83 0 01.171.257.783.783 0 01.055.297.782.782 0 01-.226.555.782.782 0 01-.555.227zm2.297 6.078h-4.586a.781.781 0 01-.781-.782v-3.335a.781.781 0 01.78-.782h4.587a.781.781 0 01.78.782v3.359a.781.781 0 01-.78.758zm-3.805-1.563h3.023v-1.773h-3.023v1.773z" fill="#004CBF"/><path d="M20.586 24.43H8.688a.781.781 0 110-1.563h11.898a.782.782 0 010 1.563zm1.203-8.805H4.97a.781.781 0 110-1.563h16.82a.781.781 0 110 1.563zm15.516 7.812a.781.781 0 01-.727-1.07c.977-2.469.781-4.96-.625-6.664-1.406-1.703-3.484-2.344-6.086-1.914a.79.79 0 11-.242-1.563c3.125-.492 5.883.414 7.547 2.485 1.664 2.07 2.039 5.219.86 8.219a.781.781 0 01-.727.507z" fill="#004CBF"/><path d="M31.734 17.188a.781.781 0 01-.539-.219l-3.312-3.195a.782.782 0 010-1.149l3.383-2.953a.784.784 0 011.03 1.18l-2.718 2.351 2.703 2.602a.782.782 0 010 1.11.78.78 0 01-.547.273zM19.031 37.727a7.335 7.335 0 01-5.898-2.617c-1.719-2.149-2.04-5.22-.852-8.22a.782.782 0 011.453.579c-.976 2.469-.742 4.96.618 6.664 1.359 1.703 3.484 2.344 6.085 1.914a.79.79 0 01.243 1.563c-.546.08-1.097.12-1.649.117z" fill="#004CBF"/><path d="M18.492 40.406a.782.782 0 01-.523-1.343l2.742-2.391-2.703-2.602a.779.779 0 010-1.11.781.781 0 011.101 0l3.313 3.188a.78.78 0 010 1.157l-3.39 2.953a.781.781 0 01-.54.148zm16.867 5.688a10.212 10.212 0 01-7.234-17.418 10.21 10.21 0 0116.677 11.086 10.218 10.218 0 01-9.443 6.332zm0-18.86a8.648 8.648 0 108.649 8.61 8.665 8.665 0 00-8.649-8.649v.04z" fill="#004CBF"/><path d="M28.063 42.586a.78.78 0 01-.72-.477 2.71 2.71 0 01.477-2.82c.102-.102.212-.196.328-.281a2.35 2.35 0 00.266-.242s-.125-.196-.195-.313l-.094-.242a3.171 3.171 0 01.11-3.125c.062-.094.124-.188.195-.273a2.43 2.43 0 00.156-.235h-.211a6.604 6.604 0 00-1.945.594.781.781 0 01-.68-1.398 7.915 7.915 0 012.375-.743A1.67 1.67 0 0130 33.72a1.563 1.563 0 010 1.469 4.396 4.396 0 01-.328.515l-.14.195a1.609 1.609 0 00-.055 1.563l.101.188a1.688 1.688 0 01-.437 2.57 2.329 2.329 0 00-.211.18 1.196 1.196 0 00-.133 1.093.78.78 0 01-.414 1.024.85.85 0 01-.32.07zm16.718-5.664h-.133a2.29 2.29 0 01-1.226-.719 1.202 1.202 0 00-.266-.226c-.198.04-.389.114-.562.218a2.233 2.233 0 01-1.735.313 1.797 1.797 0 01-1.133-1.188 3.446 3.446 0 01-.101-1.25 1.59 1.59 0 000-.515 2.103 2.103 0 01-.266 0 2.25 2.25 0 01-.953-.367 1.703 1.703 0 01-.625-1.43c.032-.409.157-.804.367-1.156a9.142 9.142 0 012.532-2.649l.078-.062a.781.781 0 01.945 1.242l-.062.047a8.014 8.014 0 00-2.125 2.172 1.14 1.14 0 00-.172.476.195.195 0 000 .125s.187.047.289.07c.396.045.769.208 1.07.47a2.086 2.086 0 01.461 1.734 1.97 1.97 0 000 .656c.015.068.054.13.11.172.078 0 .39-.133.562-.219a2.242 2.242 0 011.742-.305c.36.099.687.287.953.547.196.195.29.274.407.297a.784.784 0 11-.141 1.563l-.016-.016z" fill="#004CBF"/><path d="M44.781 36.922h-.133a2.29 2.29 0 01-1.226-.719 1.202 1.202 0 00-.266-.226c-.198.04-.389.114-.562.218a2.233 2.233 0 01-1.735.313 1.797 1.797 0 01-1.132-1.188 3.446 3.446 0 01-.102-1.25 1.59 1.59 0 000-.515 2.102 2.102 0 01-.266 0 2.25 2.25 0 01-.953-.367 1.703 1.703 0 01-.625-1.43c.032-.409.157-.804.367-1.156a9.142 9.142 0 012.532-2.649l.078-.062a.782.782 0 01.945 1.242l-.062.047a8.012 8.012 0 00-2.125 2.172 1.14 1.14 0 00-.172.476.195.195 0 000 .125s.187.047.289.07c.396.045.769.208 1.07.47a2.087 2.087 0 01.461 1.734 1.97 1.97 0 000 .656c.015.068.054.13.11.172.078 0 .39-.133.562-.219a2.241 2.241 0 011.742-.305c.36.099.687.287.953.547.196.195.29.274.407.297a.785.785 0 01-.141 1.563l-.016-.016z" fill="#004CBF"/><path d="M38.961 45.313a3.696 3.696 0 01-2.227-.625 2.5 2.5 0 01-.984-2.672c.059-.166.13-.328.211-.485.018-.045.038-.09.063-.133-.212.035-.42.082-.626.141l-.539.133c-.638.15-1.31.055-1.882-.266a1.687 1.687 0 01-.68-2.234c.132-.216.308-.402.516-.547a4.25 4.25 0 01-1.563-.781 1.648 1.648 0 01-.563-.914 1.35 1.35 0 01.282-1.086 1.96 1.96 0 011.422-.688c.263-.003.525.026.78.086h.079c-.102-.148-.219-.289-.328-.437a3.772 3.772 0 01-1.094-2.766 3.226 3.226 0 011.766-2.21c.328-.188.656-.337.976-.485.342-.147.673-.317.992-.508.156-.086.288-.21.383-.36a.78.78 0 00-.054-.624 3.998 3.998 0 00-.664-.891.783.783 0 111.164-1.047c.37.378.68.81.922 1.281a2.29 2.29 0 010 1.993 2.57 2.57 0 01-.938.96 9.138 9.138 0 01-1.195.618c-.282.133-.563.258-.836.414-.274.156-.89.57-.969 1.125-.078.554.328 1.008.781 1.562.18.227.352.453.508.688A1.663 1.663 0 0134.906 36a1.196 1.196 0 01-.781.781 2.297 2.297 0 01-1.281 0 2.562 2.562 0 00-.414-.062h-.094c.327.195.683.337 1.055.422h.133a1.563 1.563 0 011.038.78 1.39 1.39 0 01-.523 1.618l-.219.172a1.32 1.32 0 00-.203.156s.055.063.117.094c.249.102.524.115.782.04l.453-.11c.32-.058.644-.09.968-.094a1.563 1.563 0 011.313.414 1.492 1.492 0 01.273 1.563c-.057.146-.122.29-.195.43 0 .093-.086.179-.117.273a.96.96 0 00.414.937c.434.26.942.373 1.445.32a.782.782 0 010 1.563l-.109.016z" fill="#004CBF"/><path d="M38.96 45.313a3.696 3.696 0 01-2.226-.625 2.5 2.5 0 01-.984-2.672 4.08 4.08 0 01.21-.485c.018-.045.04-.09.063-.133a5.41 5.41 0 00-.625.141l-.539.133c-.638.15-1.31.055-1.883-.266a1.688 1.688 0 01-.68-2.234c.133-.216.309-.402.517-.547a4.25 4.25 0 01-1.563-.781 1.647 1.647 0 01-.563-.914 1.352 1.352 0 01.282-1.086 1.96 1.96 0 011.422-.688c.263-.003.525.026.78.086h.079c-.102-.148-.219-.289-.328-.437a3.774 3.774 0 01-1.094-2.766 3.227 3.227 0 011.766-2.21c.328-.188.656-.337.976-.485.342-.147.673-.317.992-.508a1.07 1.07 0 00.383-.36.782.782 0 00-.054-.624 4.001 4.001 0 00-.664-.891.783.783 0 011.164-1.047c.37.378.68.81.922 1.281a2.29 2.29 0 010 1.993 2.57 2.57 0 01-.938.96 9.145 9.145 0 01-1.195.618c-.282.133-.563.258-.836.414-.274.156-.89.57-.969 1.125-.078.554.328 1.008.781 1.562.18.227.352.453.508.688A1.664 1.664 0 0134.906 36a1.195 1.195 0 01-.781.781 2.298 2.298 0 01-1.281 0 2.562 2.562 0 00-.414-.062h-.094c.327.195.683.337 1.055.422h.132a1.563 1.563 0 011.04.78 1.391 1.391 0 01-.524 1.618l-.219.172c-.072.045-.14.098-.203.156 0 0 .055.063.117.094.249.102.524.115.782.04l.453-.11c.32-.058.643-.09.968-.094a1.563 1.563 0 011.313.414 1.493 1.493 0 01.273 1.563c-.057.146-.122.29-.195.43 0 .093-.086.179-.117.273a.96.96 0 00.414.937c.434.26.941.373 1.445.32a.781.781 0 010 1.563l-.11.016zm-10.898-2.727a.781.781 0 01-.718-.477 2.71 2.71 0 01.476-2.82c.102-.102.212-.196.328-.281a2.24 2.24 0 00.266-.242s-.125-.196-.195-.313l-.094-.242a3.171 3.171 0 01.11-3.125c.062-.094.124-.188.195-.273a2.43 2.43 0 00.156-.235h-.211a6.6 6.6 0 00-1.945.594.78.78 0 01-.68-1.398 7.912 7.912 0 012.375-.743A1.672 1.672 0 0130 33.72a1.564 1.564 0 010 1.469 4.396 4.396 0 01-.328.515l-.14.195a1.608 1.608 0 00-.055 1.563l.101.188a1.688 1.688 0 01-.437 2.57 2.346 2.346 0 00-.211.18 1.196 1.196 0 00-.133 1.093.78.78 0 01-.414 1.024.852.852 0 01-.32.07z" fill="#004CBF"/></svg>