<svg width="50" height="50" fill="none" xmlns="http://www.w3.org/2000/svg"><path d="M7.813 34.375a.781.781 0 00.78-.781V7.03a2.347 2.347 0 012.345-2.343h4.687c1.022-.012 1.03-1.548 0-1.563h-4.688A3.91 3.91 0 007.031 7.03v26.563a.781.781 0 00.782.781zm3.125 12.5h28.124a3.91 3.91 0 003.907-3.906V26.562c-.024-1.021-1.54-1.033-1.563 0V42.97a2.347 2.347 0 01-2.343 2.343H10.936a2.347 2.347 0 01-2.343-2.343V37.5c-.009-1.023-1.55-1.028-1.563 0v5.469a3.91 3.91 0 003.907 3.906zM19.53 4.687h19.532a2.347 2.347 0 012.343 2.344v15.625a.781.781 0 001.563 0V7.031a3.91 3.91 0 00-3.907-3.906h-19.53c-1.019.017-1.036 1.542 0 1.563z" fill="#004CBF"/><path d="M12.5 43.75c3.09-.081 3.09-4.607 0-4.688-3.09.082-3.09 4.608 0 4.688zm0-3.125c1.027.018 1.027 1.544 0 1.563-1.027-.019-1.027-1.545 0-1.563zm0-29.688c3.09-.08 3.09-4.607 0-4.687-3.09.081-3.09 4.607 0 4.688zm0-3.124c1.027.017 1.027 1.544 0 1.562-1.027-.018-1.027-1.545 0-1.563zm25 31.25c-3.09.08-3.09 4.606 0 4.687 3.09-.081 3.09-4.607 0-4.688zm0 3.124c-1.026-.017-1.026-1.544 0-1.562 1.027.018 1.027 1.544 0 1.563zm0-35.937c-3.09.081-3.09 4.607 0 4.688 3.09-.082 3.09-4.608 0-4.688zm0 3.125c-1.026-.018-1.026-1.545 0-1.563 1.027.018 1.027 1.545 0 1.563zm-7.813 14.844a.781.781 0 00-.78-.782h-7.813a.781.781 0 00-.782.782v3.906a.781.781 0 00.782.781h7.812a.781.781 0 00.782-.781v-3.906zm-1.562 3.125h-6.25V25h6.25v2.344z" fill="#004CBF"/><path d="M13.281 15.625c-1.02.02-1.033 1.542 0 1.563h3.125v2.734h-1.562a.781.781 0 100 1.562h1.562v2.735h-3.125c-1.019.015-1.033 1.544 0 1.562h3.125v2.735h-1.562a.781.781 0 000 1.562h1.562v2.735h-3.125c-1.017.01-1.033 1.546 0 1.562h3.125a2.347 2.347 0 002.344 2.344v1.672a.781.781 0 101.563 0v-1.672h3.906v3.234a.781.781 0 101.562 0V36.72h3.907v1.672c.011 1.016 1.546 1.034 1.562 0V36.72a2.347 2.347 0 002.344-2.344h3.125a.781.781 0 100-1.563h-3.907a.781.781 0 00-.78.782v.781c0 .43-.35.781-.782.781h-12.5a.782.782 0 01-.781-.781v-18.75c0-.43.35-.781.781-.781h12.5c.431 0 .781.35.781.781v13.672a.781.781 0 00.782.781h2.343c1.021-.017 1.032-1.544 0-1.562h-1.562V25.78h3.125c1.02-.015 1.032-1.544 0-1.562h-3.125v-2.735h1.562a.781.781 0 100-1.562h-1.562v-2.735h3.125a.781.781 0 100-1.562h-3.125a2.347 2.347 0 00-2.344-2.344v-1.56a.782.782 0 00-1.563 0v1.562h-3.906v-3.125c-.014-1.015-1.544-1.035-1.562 0v3.125h-3.907V11.72a.782.782 0 00-1.562 0v1.562a2.347 2.347 0 00-2.344 2.344h-3.125z" fill="#004CBF"/><path d="M28.906 31.25h-7.812c-1.024.016-1.03 1.545 0 1.563h7.812c1.024-.017 1.03-1.546 0-1.563z" fill="#004CBF"/></svg>