<svg width="85" height="85" fill="none" xmlns="http://www.w3.org/2000/svg"><path d="M75.665 50.469h.038v-.047a29.231 29.231 0 002.314-33.853A29.2 29.2 0 0053.126 2.655c-.52 0-1.038 0-1.557.04l-.013.002a29.2 29.2 0 00-27.616 27.85h-.033v2.656h.03c.023.487.056.972.1 1.453l2.645-.249c-.038-.398-.066-.8-.086-1.203h9.28c.012.468.03.935.054 1.397l2.652-.138c-.021-.42-.037-.84-.048-1.26h13.264v2.657h2.656v-2.657h11.933c-.142 5.266-1.127 10.376-2.818 14.61h-5.13v2.656h3.918c-1.348 2.592-2.964 4.656-4.733 6.032l1.066 4.064a29.21 29.21 0 0016.976-10.096zm3.986-19.922H69.044a48.132 48.132 0 00-1.768-11.953h8.854a26.462 26.462 0 013.52 11.953zm-5.276-14.61h-7.964c-1.468-4.012-3.45-7.258-5.754-9.536a26.374 26.374 0 015.616 2.389 26.75 26.75 0 018.102 7.148zM51.768 5.347h.029v10.591H41.355c2.5-6.278 6.317-10.195 10.412-10.591zm2.685.249c3.596 1.01 6.877 4.724 9.114 10.343h-9.114V5.595zm-10.82 1.47c-2.036 2.23-3.792 5.238-5.122 8.873h-6.638a26.594 26.594 0 0111.76-8.872zM30.12 18.595h7.525a48.137 48.137 0 00-1.767 11.953H26.6a26.464 26.464 0 013.52-11.953zm8.415 11.953c.112-4.215.755-8.305 1.883-11.953h11.379v11.953H38.535zm15.918-11.953h10.051c1.128 3.648 1.77 7.738 1.882 11.953H54.453V18.594zm14.593 14.61h10.608a26.23 26.23 0 01-5.277 14.608h-7.964c1.602-4.36 2.502-9.349 2.633-14.609zm-8.38 24.147c1.774-1.76 3.355-4.099 4.648-6.882h6.779a26.56 26.56 0 01-11.427 6.882zM32.726 7.38l-1.702-2.04a34.711 34.711 0 012.763-2.078l1.489 2.2a32.236 32.236 0 00-2.55 1.918zM21.477 28.048l-2.637-.315a34.577 34.577 0 0110.32-20.72l1.844 1.912a31.911 31.911 0 00-9.528 19.123zm41.848 34.035l.85 2.517c-.91.307-1.832.576-2.764.805l-.635-2.579c.86-.212 1.71-.46 2.55-.743zm16.576-12.907l2.23 1.444a34.494 34.494 0 01-15.45 13.024L65.637 61.2a31.848 31.848 0 0014.264-12.025zm-71.932-4.02H5.312V42.5a5.319 5.319 0 015.313-5.313h39.844A5.315 5.315 0 0155.78 42.5v27.89h-2.656V42.5a2.659 2.659 0 00-2.656-2.656H10.625A2.66 2.66 0 007.969 42.5v2.656zm49.14 27.89H35.86c-.352.001-.69.14-.938.39l-.94.939h-6.869l-.938-.939a1.328 1.328 0 00-.94-.39H7.97V47.813H5.312v25.235H3.984a1.328 1.328 0 00-1.328 1.328v2.656a5.313 5.313 0 005.313 5.313h45.156a5.313 5.313 0 005.313-5.313v-2.656a1.328 1.328 0 00-1.329-1.328zm-1.328 3.985a2.656 2.656 0 01-2.656 2.656H7.969a2.656 2.656 0 01-2.657-2.656v-1.328h19.372l.94.94a1.33 1.33 0 00.939.388h7.968a1.33 1.33 0 00.94-.389l.938-.939h19.372v1.328zM41.472 45.643l-2.696 3.296a14.708 14.708 0 01-6.37-2.72l-1.062-.797a1.328 1.328 0 00-1.594 0l-1.063.797a14.7 14.7 0 01-8.765 2.922 1.329 1.329 0 00-1.328 1.328v4.59A17.701 17.701 0 0030.08 71.634c.301.113.633.113.933 0A17.702 17.702 0 0042.5 55.06v-4.59a1.327 1.327 0 00-.624-1.125l1.652-2.019-2.056-1.681zm-1.628 9.416a15.121 15.121 0 01-9.297 13.904 15.12 15.12 0 01-9.297-13.904v-3.314a17.39 17.39 0 009.031-3.401l.266-.2.265.2a17.338 17.338 0 006.073 2.905l-6.467 7.904-2.906-2.723-1.816 1.938 3.943 3.694a1.328 1.328 0 001.936-.127l8.269-10.107v3.23zM10.625 42.5h2.656v2.656h-2.656V42.5zm7.969 2.656h-2.657V42.5h2.657v2.656zm5.312-2.656v2.656H21.25V42.5h2.656z" fill="#004CBF"/></svg>