<svg width="85" height="85" fill="none" xmlns="http://www.w3.org/2000/svg"><g clip-path="url(#clip0_78_911)" fill="#004CBF"><path d="M82.258 43.871h-2.742v-5.484H76.25a.848.848 0 01-.757-1.226l1.578-3.158-4.139-4.139-3.157 1.579a.849.849 0 01-1.226-.758v-3.266h-2.742v-5.483h1.37a4.118 4.118 0 014.113 4.112v1.371h2.742v-1.37a6.863 6.863 0 00-6.854-6.855h-1.371V15.08a6.863 6.863 0 00-6.855-6.855h-4.113a2.745 2.745 0 00-2.742-2.742h-2.742v-1.37A4.118 4.118 0 0045.242 0H4.112A4.118 4.118 0 000 4.113v76.774A4.118 4.118 0 004.113 85H43.87v-2.742H4.113a1.373 1.373 0 01-1.371-1.37V4.112c0-.756.615-1.371 1.37-1.371h41.13c.756 0 1.37.615 1.37 1.37v26.05h2.743v-5.485h2.742a2.745 2.745 0 002.742-2.741h8.226v5.483h-2.742v3.266a.849.849 0 01-1.227.758l-3.157-1.579-4.14 4.14 1.58 3.157a.848.848 0 01-.758 1.226h-3.266v5.484h-8.226a2.745 2.745 0 00-2.742 2.742v8.226h-8.226V43.87h8.226v-2.742H8.226a2.745 2.745 0 00-2.742 2.742v30.161a2.745 2.745 0 002.742 2.742h43.87v5.484h-5.483V85h27.42v-2.742h-5.485v-5.484h13.71A2.745 2.745 0 0085 74.032v-27.42a2.745 2.745 0 00-2.742-2.741zM52.097 8.226v2.742h-2.742V8.226h2.742zm0 13.71h-2.742v-2.742h2.742v2.742zm2.742-2.742a2.745 2.745 0 00-2.742-2.742h-2.742V13.71h2.742a2.745 2.745 0 002.742-2.742h4.113a4.118 4.118 0 014.113 4.113v4.113h-8.226zm-2.742 21.935h.523a3.593 3.593 0 003.21-5.194l-.694-1.39 1.344-1.344 1.39.695a3.593 3.593 0 005.194-3.21v-.525h2.742v.524a3.593 3.593 0 005.195 3.21l1.39-.695 1.344 1.345-.695 1.39a3.593 3.593 0 003.21 5.195h.524v2.74h-5.623c.092-.448.14-.908.14-1.37a6.863 6.863 0 00-6.855-6.855 6.863 6.863 0 00-6.716 8.226h-5.623v-2.742zm8.461 2.742a4.118 4.118 0 013.877-5.484 4.118 4.118 0 013.878 5.484h-7.755zm21.7 2.742l.001 21.935h-5.485V52.097h-2.742v16.451H71.29V57.581h-2.742v10.967h-2.742v-5.483h-2.741v5.483H41.129V46.613h41.13zM76.774 71.29v2.742h-2.742V71.29h2.742zM8.226 65.806v-2.741h2.742v2.741H8.226zm5.484-2.741h2.742v2.741H13.71v-2.741zm5.483 0h2.742v2.741h-2.741v-2.741zm5.484 0h2.742v2.741h-2.742v-2.741zm5.484 0h2.742v2.741h-2.742v-2.741zm5.484 0h2.742v2.741h-2.742v-2.741zm2.742-2.742H8.226V57.58h30.161v2.742zM27.42 54.839h-8.226V43.87h8.226v10.968zM16.452 43.87v10.968H8.226V43.87h8.226zm16.451 30.161V71.29h-2.742v2.742h-5.484V71.29h-2.741v2.742h-5.484V71.29H13.71v2.742H8.226v-5.484h30.161v5.484h-5.484zm8.226-2.742H71.29v2.742H41.13V71.29zm24.677 10.968H54.84v-5.484h10.967v5.484zm16.452-8.226h-2.742V71.29h2.744v2.742h-.002z"/><path d="M46.613 57.58v2.742a2.745 2.745 0 002.742 2.742h8.226a2.745 2.745 0 002.742-2.742V54.84a2.745 2.745 0 00-2.742-2.742h-5.484a2.745 2.745 0 00-2.742-2.742h-2.742a2.745 2.745 0 00-2.742 2.742v2.742a2.745 2.745 0 002.742 2.741zm10.967-2.74v5.483h-8.226V57.58a2.745 2.745 0 002.742-2.741h5.484zm-10.968-2.742h2.742l.002 2.742h-2.744v-2.742zM8.226 16.45h32.903a2.745 2.745 0 002.742-2.742v-2.742a2.745 2.745 0 00-2.742-2.741H8.226a2.745 2.745 0 00-2.742 2.741v2.742a2.745 2.745 0 002.742 2.742zm21.934-2.74h-2.74v-2.742h2.742v2.742zm2.742-2.742h2.742v2.742h-2.742v-2.742zm-8.226 2.742h-8.225v-2.742h8.225v2.742zm16.454 0h-2.744v-2.742h2.742l.002 2.742zM8.226 10.968h5.484v2.742H8.226v-2.742zm-2.742 13.71a2.745 2.745 0 002.742 2.742h32.903a2.745 2.745 0 002.742-2.742v-2.742a2.745 2.745 0 00-2.742-2.742H8.226a2.745 2.745 0 00-2.742 2.742v2.742zm24.677 0H27.42v-2.742h2.742v2.742zm2.742-2.742h2.742v2.742h-2.742v-2.742zm-8.226 2.742h-8.225v-2.742h8.225v2.742zm16.454 0h-2.744v-2.742h2.742l.002 2.742zM8.226 21.935h5.484v2.742H8.226v-2.742zm-2.742 13.71a2.745 2.745 0 002.742 2.742h32.903a2.745 2.745 0 002.742-2.742v-2.742a2.745 2.745 0 00-2.742-2.742H8.226a2.745 2.745 0 00-2.742 2.742v2.742zm24.677 0H27.42v-2.742h2.742v2.742zm2.742-2.742h2.742v2.742h-2.742v-2.742zm-8.226 2.742h-8.225v-2.742h8.225v2.742zm16.454 0h-2.744v-2.742h2.742l.002 2.742zM8.226 32.903h5.484v2.742H8.226v-2.742zm2.742 13.71h2.742v5.484h-2.742v-5.484zm10.968 0h2.741v5.484h-2.741v-5.484zm10.967 0h2.742v5.484h-2.742v-5.484z"/></g><defs><clipPath id="clip0_78_911"><path fill="#fff" d="M0 0h85v85H0z"/></clipPath></defs></svg>