<svg width="85" height="85" fill="none" xmlns="http://www.w3.org/2000/svg"><path d="M23.906 30.547a1.328 1.328 0 100-2.656 1.328 1.328 0 000 2.656zm10.625 0a1.328 1.328 0 100-2.656 1.328 1.328 0 000 2.656zm-9.297 7.969h5.313a5.318 5.318 0 005.312-5.313h-2.656a2.659 2.659 0 01-2.656 2.656h-5.313v2.657z" fill="#004CBF"/><path d="M78.173 41.172h5.499V30.547h-5.499c-.194 0-.358-.152-.407-.4-.043-.215.051-.416.23-.49l5.08-2.104-4.067-9.816-5.08 2.104c-.177.074-.387 0-.528-.211-.122-.184-.112-.407.026-.543l3.887-3.888-7.512-7.513-3.889 3.889c-.135.135-.36.144-.57.005-.183-.122-.258-.332-.185-.51l2.105-5.08-9.816-4.067-2.104 5.08c-.074.178-.271.272-.523.223-.217-.04-.367-.206-.367-.4V1.329H43.828v5.499c0 .193-.15.358-.397.406-.215.046-.417-.052-.493-.23l-2.105-5.08-9.816 4.067 1.399 3.38c-1.692.167-3.27.837-4.525 1.978a7.854 7.854 0 00-5.313-2.051 7.897 7.897 0 00-6.931 4.064 6.966 6.966 0 00-1.038-.08c-4.394 0-7.968 3.574-7.968 7.969 0 .993.195 1.985.575 2.922a7.902 7.902 0 00-2.08 10.484 7.923 7.923 0 003.116 2.917 9.187 9.187 0 00-.283 2.27c0 4.6 3.426 8.51 7.91 9.186.055.074.118.14.175.213A22.525 22.525 0 001.328 70.39c0 1.991.75 3.91 2.101 5.373a2.66 2.66 0 00-2.1 2.595v2.657a2.659 2.659 0 002.655 2.656h77.032a2.659 2.659 0 002.656-2.656v-2.657a2.659 2.659 0 00-2.656-2.656h-8.144l-.76-5.312h8.904a2.659 2.659 0 002.656-2.657V49.141a2.658 2.658 0 00-1.64-2.452l1.045-2.522-5.08-2.104c-.178-.074-.272-.275-.223-.522.042-.218.207-.37.4-.37zm-67.548-1.328c0-.862.167-1.708.495-2.514l.538-1.32-1.352-.444a5.288 5.288 0 01-3.665-5.02c0-1.98 1.113-3.783 2.906-4.703l1.264-.65-.735-1.218a5.213 5.213 0 01-.78-2.725 5.318 5.318 0 015.313-5.313c.43 0 .882.072 1.428.225l1.164.327.434-1.128a5.273 5.273 0 014.943-3.408c1.679 0 3.226.786 4.248 2.158l1.065 1.43 1.065-1.43c1.021-1.372 2.568-2.158 4.247-2.158a5.272 5.272 0 014.943 3.408l.435 1.128 1.163-.327c.463-.14.944-.216 1.428-.224a5.318 5.318 0 015.312 5.312 5.283 5.283 0 01-1.37 3.523l-1.306 1.459 1.84.675a5.324 5.324 0 013.493 4.968 5.288 5.288 0 01-4.733 5.247l-1.816.201.753 1.667c.321.708.483 1.442.483 2.182a5.318 5.318 0 01-5.312 5.312 5.294 5.294 0 01-2.556-.669l-.847-2.118a17.535 17.535 0 006.059-13.233v-3.901a3.99 3.99 0 00-3.984-3.985h-1.329a2.659 2.659 0 01-2.656-2.656v-2.656h-2.656v2.656a5.318 5.318 0 005.312 5.312h1.328a1.33 1.33 0 011.329 1.328v3.902a14.865 14.865 0 01-7.475 12.88 3.732 3.732 0 01-3.644 0 14.865 14.865 0 01-7.475-12.88v-3.901a3.99 3.99 0 013.984-3.985h1.625a10.332 10.332 0 002.749 4.924l1.878-1.878a7.692 7.692 0 01-2.267-5.475v-2.883h-2.657v2.656h-1.328a6.654 6.654 0 00-6.506 5.312h-1.462a3.99 3.99 0 00-3.985 3.985v2.656c0 1.73 1.114 3.19 2.656 3.74v9.541c0 .267.048.52.079.779-2.384-1.02-4.063-3.378-4.063-6.091zm56.907 6.64H64.38a18.487 18.487 0 003.355-10.625c0-10.253-8.34-18.593-18.593-18.593-.347 0-.696.036-1.046.054a8.025 8.025 0 00-2.174-2.454 21.475 21.475 0 013.22-.257c11.716 0 21.25 9.534 21.25 21.25 0 3.751-.994 7.405-2.859 10.625zm-10.247 29.22h-2.22a7.93 7.93 0 002.044-5.313h.935l-.76 5.312zm-2.832-5.313a5.318 5.318 0 01-5.312 5.312H38.516v-5.312h15.937zm-29.219 0a2.659 2.659 0 012.657 2.656 2.659 2.659 0 01-2.657 2.656h-2.656v-5.312h2.656zm5.313 2.656a2.659 2.659 0 012.656-2.656h2.656v5.312h-2.656a2.659 2.659 0 01-2.656-2.656zM46.484 49.14v2.113a22.582 22.582 0 00-5.544-2.493 7.983 7.983 0 005.544-7.59c0-.587-.066-1.172-.199-1.746a7.935 7.935 0 005.512-7.55 7.975 7.975 0 00-3.708-6.707 7.866 7.866 0 001.052-3.918c0-.452-.047-.891-.12-1.322.04 0 .08-.006.12-.006 8.788 0 15.937 7.15 15.937 15.937a15.85 15.85 0 01-4.08 10.625H49.141a2.659 2.659 0 00-2.657 2.657zm-26.39-.172a3.99 3.99 0 01-2.828-3.813V35.86h.864a17.545 17.545 0 005.403 8.006 3.964 3.964 0 00-3.44 5.104zM17.49 33.203h-1.553a1.33 1.33 0 01-1.329-1.328v-2.656a1.33 1.33 0 011.329-1.328h1.328v2.574c0 .925.082 1.839.225 2.738zm10.4 14.61a1.33 1.33 0 01-1.328 1.328h-2.657a1.33 1.33 0 010-2.657h2.657a1.33 1.33 0 011.328 1.328zm5.163 6.64H25.38a29.24 29.24 0 01-.86-2.656h2.044a3.99 3.99 0 003.984-3.984 3.93 3.93 0 00-.276-1.428c.733-.12 1.44-.37 2.087-.735.185-.105.36-.221.541-.333l1.582 3.954a29.612 29.612 0 01-1.427 5.182zM31.92 57.11a29.776 29.776 0 01-2.7 4.47 29.959 29.959 0 01-2.69-4.47h5.39zm-13.35-5.889a6.582 6.582 0 002.681.577h.537a32.498 32.498 0 006.13 12.451l1.302 1.627 1.303-1.627a32.438 32.438 0 006.395-13.625l.259.034a19.9 19.9 0 019.308 3.816v13.261h-13.28a5.277 5.277 0 00-3.985 1.836 5.277 5.277 0 00-3.985-1.836h-13.28v-5.312H9.296v5.312H6.64v2.657h13.28v5.312H9.298a5.318 5.318 0 01-5.313-5.312A19.869 19.869 0 0118.57 51.22zm62.448 29.796H3.984V78.36h77.032l.001 2.657zM59.97 75.704l2.114-14.798c.092-.65.658-1.14 1.314-1.14h3.361c.656 0 1.222.49 1.314 1.142l2.115 14.796H59.97zm21.047-7.969h-9.284l-1.03-7.203a4.003 4.003 0 00-3.942-3.422h-3.362a4.005 4.005 0 00-3.945 3.422l-1.029 7.203h-9.283V49.141h31.875v18.593zM76.98 44.517l2.627 1.088-.365.88h-8.695a23.877 23.877 0 002.5-10.625c0-13.181-10.724-23.906-23.905-23.906a23.8 23.8 0 00-7.861 1.334c-.036 0-.072-.006-.108-.006-.341 0-.683.027-1.037.08a7.892 7.892 0 00-4.744-3.757l-.902-2.177 4.907-2.032 1.088 2.626c.555 1.34 2.01 2.107 3.49 1.814 1.455-.288 2.51-1.553 2.51-3.008V3.984h5.313v2.843c0 1.455 1.056 2.72 2.537 3.012 1.449.283 2.907-.478 3.462-1.82l1.088-2.625 4.907 2.032-1.086 2.628c-.555 1.341-.067 2.911 1.187 3.75 1.23.824 2.873.68 3.9-.353l2.012-2.01 3.755 3.758-2.009 2.01c-1.03 1.029-1.178 2.669-.337 3.924.822 1.23 2.393 1.717 3.736 1.162l2.627-1.088 2.032 4.91-2.627 1.087c-1.343.555-2.108 2.013-1.813 3.49.287 1.455 1.551 2.51 3.005 2.51h2.843v5.312h-2.843c-1.455 0-2.72 1.054-3.012 2.535-.29 1.452.476 2.909 1.819 3.465z" fill="#004CBF"/><path d="M51.797 41.172h2.656v2.656h-2.656v-2.656zm5.312 0h2.657v2.656h-2.657v-2.656z" fill="#004CBF"/></svg>