<svg width="85" height="85" fill="none" xmlns="http://www.w3.org/2000/svg"><g clip-path="url(#clip0_91_2813)" fill="#004CBF"><path d="M61.255 72.419a5.107 5.107 0 001.367-3.492 5.11 5.11 0 00-1.508-3.639 5.108 5.108 0 00-2.626-1.408 5.113 5.113 0 00.61-2.43 5.112 5.112 0 00-1.508-3.64 5.118 5.118 0 00-2.253-1.319l2.798-2.797a5.115 5.115 0 001.507-3.639 5.115 5.115 0 00-1.507-3.64 5.113 5.113 0 00-3.64-1.506 5.113 5.113 0 00-3.639 1.507l-.19.19v-2.443c6.062-2.909 10.258-9.107 10.258-16.268 0-4.985-2.093-9.794-5.741-13.194a1.245 1.245 0 00-1.698 1.821 15.599 15.599 0 014.948 11.373c0 2.129-.43 4.158-1.208 6.007H41.716a1.246 1.246 0 000 2.49h14.182c-2.779 4.238-7.57 7.044-13.005 7.044-5.435 0-10.227-2.806-13.005-7.044h5.852a1.245 1.245 0 100-2.49h-7.18a15.46 15.46 0 01-1.208-6.008c0-8.569 6.971-15.54 15.54-15.54 2.074 0 4.087.4 5.982 1.193a1.246 1.246 0 00.96-2.298 17.914 17.914 0 00-6.941-1.385c-9.943 0-18.031 8.088-18.031 18.03 0 7.161 4.196 13.36 10.258 16.269v2.753a2.067 2.067 0 00-2.05 1.122c-.388.723-6.713 12.54-8.051 16.51-1.396 4.14-2.525 10.549.024 17.562a2.063 2.063 0 001.933 1.353h6.938a1.245 1.245 0 100-2.49h-6.632c-2.17-6.224-1.153-11.923.097-15.63 1.16-3.444 6.617-13.75 7.706-15.792.967.58 3.507 2.491 3.287 6.456l-2.264 5.942a1.24 1.24 0 00.312 1.351c.12.113.26.2.414.258a7.608 7.608 0 012.057 1.167c1.238.99 2.727 2.88 2.792 6.254a1.246 1.246 0 002.49-.048c-.084-4.34-2.073-6.827-3.726-8.15a10.03 10.03 0 00-1.595-1.041l.844-2.214h7.062c.055 0 .107-.005.16-.009.373.216.772.384 1.187.5l-2.797 2.797a5.113 5.113 0 00-1.508 3.639 5.11 5.11 0 001.508 3.639 5.101 5.101 0 002.626 1.408 5.117 5.117 0 00-.61 2.431c0 1.375.535 2.667 1.508 3.64a5.113 5.113 0 003.639 1.507h.026a5.19 5.19 0 00.063 1.895H39.724a1.245 1.245 0 100 2.49h14.187l.027.03A5.116 5.116 0 0057.578 85a5.114 5.114 0 003.64-1.508l2.437-2.437a5.112 5.112 0 001.508-3.64 5.113 5.113 0 00-1.508-3.639 5.115 5.115 0 00-2.4-1.357zm-20.61-15.383l.078-.207c.074-.193.117-.395.13-.602.043-.68.021-1.313-.048-1.908h3.592a5.138 5.138 0 00.34 2.717h-4.093zm5.207-5.616a5.37 5.37 0 00-.367.409h-5.319a9.345 9.345 0 00-2.556-3.497v-3.196a17.98 17.98 0 005.282.79c1.838 0 3.612-.277 5.283-.79v3.96l-2.323 2.324zm1.761 5.518a2.639 2.639 0 01-.779-1.88c0-.708.277-1.375.78-1.877l5.003-5.005a2.642 2.642 0 011.879-.777c.71 0 1.377.276 1.878.777a2.66 2.66 0 010 3.757l-5.004 5.005a2.644 2.644 0 01-1.879.778 2.637 2.637 0 01-1.878-.778zM47.07 68.33a2.637 2.637 0 01-.779-1.878c0-.71.277-1.377.779-1.878 0 0 5.135-5.129 5.204-5.185.105-.068.207-.139.307-.214a2.636 2.636 0 011.372-.384 2.637 2.637 0 011.878.779 2.636 2.636 0 01.778 1.878 2.64 2.64 0 01-.778 1.878l-5.005 5.004a2.635 2.635 0 01-1.878.778 2.64 2.64 0 01-1.879-.778zm5.402 8.257a2.637 2.637 0 01-1.878-.778 2.66 2.66 0 010-3.757l5.004-5.004a2.639 2.639 0 011.879-.778 2.638 2.638 0 011.878.778 2.638 2.638 0 01.778 1.878 2.64 2.64 0 01-.778 1.879l-5.005 5.004a2.642 2.642 0 01-1.878.778zm9.424 2.706l-2.438 2.438a2.637 2.637 0 01-1.879.778 2.635 2.635 0 01-1.878-.778 2.66 2.66 0 010-3.757l2.438-2.438a2.64 2.64 0 011.878-.778 2.64 2.64 0 011.878.778 2.64 2.64 0 01.779 1.878 2.64 2.64 0 01-.779 1.879zM42.89 6.257c.687 0 1.245-.558 1.245-1.245V1.245a1.246 1.246 0 00-2.49 0v3.766a1.246 1.246 0 001.245 1.246zm8.31 1.659a1.245 1.245 0 001.628-.672l1.446-3.477a1.244 1.244 0 10-2.3-.956l-1.446 3.476a1.244 1.244 0 00.672 1.629zm7.919 5.09c.317 0 .635-.122.877-.363l2.67-2.655a1.245 1.245 0 10-1.755-1.766l-2.67 2.655a1.245 1.245 0 00.878 2.129zm3.799 6.694a1.244 1.244 0 001.623.682l3.486-1.426a1.246 1.246 0 00-.943-2.305l-3.486 1.425a1.245 1.245 0 00-.68 1.624zm-40.504-2.098l-3.451-1.506a1.246 1.246 0 00-.996 2.282l3.451 1.507a1.245 1.245 0 10.996-2.283zm3.726-5.348a1.241 1.241 0 001.585.176 1.245 1.245 0 00.212-1.902l-2.608-2.716a1.246 1.246 0 00-1.797 1.725l2.608 2.716zm7.292-5.233a1.245 1.245 0 002.32-.903l-1.365-3.51a1.243 1.243 0 00-2.022-.448 1.245 1.245 0 00-.3 1.35l1.367 3.51zM69.54 26.78h-3.766a1.245 1.245 0 100 2.49h3.766a1.245 1.245 0 000-2.49zm-49.529 0h-3.766a1.245 1.245 0 000 2.49h3.766a1.245 1.245 0 100-2.49z"/><path d="M36.553 20.918v1.196a1.245 1.245 0 102.49 0v-1.196a1.245 1.245 0 10-2.49 0zm11.433-1.245a1.245 1.245 0 00-1.245 1.245v1.196a1.245 1.245 0 002.49 0v-1.196a1.245 1.245 0 00-1.245-1.245zm-3.942 6.724a1.15 1.15 0 01-1.151 1.146 1.15 1.15 0 01-1.152-1.146 1.245 1.245 0 10-2.49 0 3.643 3.643 0 007.284 0 1.245 1.245 0 10-2.49 0zm.456 20.418h-3.05a1.245 1.245 0 100 2.49h3.05a1.245 1.245 0 100-2.49z"/></g><defs><clipPath id="clip0_91_2813"><path fill="#fff" d="M0 0h84.834v85H0z"/></clipPath></defs></svg>