<svg width="50" height="50" fill="none" xmlns="http://www.w3.org/2000/svg"><path d="M4.688 38.281H6.25v1.563H4.687V38.28zm3.125.782h1.562v1.562H7.812v-1.563zM4.688 43.75H6.25v1.563H4.687V43.75zm3.125.781h1.562v1.563H7.812V44.53zm13.28-6.25h1.563v1.563h-1.562V38.28zm3.126.782h1.562v1.562H24.22v-1.563zm-3.125 4.687h1.562v1.563h-1.562V43.75zm3.125.781h1.562v1.563H24.22V44.53z" fill="#004CBF"/><path d="M42.188 31.273v-3.93a.781.781 0 00-.782-.78H27.203a2.372 2.372 0 00-1.422-1.422v-2.485h9.375a6.25 6.25 0 100-12.5h-.062c.04-.258.061-.52.062-.78a4.687 4.687 0 00-4.687-4.688 4.566 4.566 0 00-1.407.226 7.808 7.808 0 00-14.18 5.242h-.038a6.25 6.25 0 100 12.5h9.375v2.485a2.37 2.37 0 00-1.422 1.422H8.594a.781.781 0 00-.781.78v3.93c-3.22.141-6.25 1.204-6.25 3.102v10.938c0 2.054 3.539 3.125 7.03 3.125 3.493 0 7.032-1.07 7.032-3.125V34.375c0-1.898-3.031-2.96-6.25-3.102v-3.148h13.422a2.37 2.37 0 001.422 1.422v1.726c-3.219.141-6.25 1.204-6.25 3.102v10.938c0 2.054 3.539 3.125 7.031 3.125 3.492 0 7.031-1.07 7.031-3.125V34.375c0-1.898-3.031-2.96-6.25-3.102v-1.726a2.372 2.372 0 001.422-1.422h13.422v3.148c-3.219.141-6.25 1.204-6.25 3.102v10.938c0 2.054 3.54 3.125 7.031 3.125 3.492 0 7.032-1.07 7.032-3.125V34.375c0-1.898-3.032-2.96-6.25-3.102zm-28.126 14.04c0 .453-1.914 1.562-5.468 1.562-3.555 0-5.469-1.11-5.469-1.562v-3.438a12.42 12.42 0 005.469 1.094 12.42 12.42 0 005.469-1.094v3.438zm0-5.47c0 .454-1.914 1.563-5.468 1.563-3.555 0-5.469-1.109-5.469-1.562v-3.438A12.422 12.422 0 008.594 37.5c1.882.055 3.752-.32 5.469-1.094v3.438zm0-5.468c0 .453-1.914 1.563-5.468 1.563-3.555 0-5.469-1.11-5.469-1.563 0-.453 1.914-1.562 5.469-1.562 3.554 0 5.469 1.109 5.469 1.562zm.782-13.281a4.687 4.687 0 110-9.375h.96a.78.78 0 00.61-.297.795.795 0 00.156-.656 6.144 6.144 0 01-.164-1.39 6.25 6.25 0 0111.672-3.102.788.788 0 001.024.312 2.98 2.98 0 011.367-.336 3.125 3.125 0 013.125 3.125 3.02 3.02 0 01-.266 1.25.809.809 0 00.063.742.792.792 0 00.656.352h1.11a4.687 4.687 0 110 9.375H14.843zm15.625 24.219c0 .453-1.914 1.562-5.469 1.562-3.555 0-5.469-1.11-5.469-1.562v-3.438A12.42 12.42 0 0025 42.97a12.42 12.42 0 005.469-1.094v3.438zm0-5.47c0 .454-1.914 1.563-5.469 1.563-3.555 0-5.469-1.109-5.469-1.562v-3.438A12.422 12.422 0 0025 37.5c1.882.055 3.752-.32 5.469-1.094v3.438zm0-5.468c0 .453-1.914 1.563-5.469 1.563-3.555 0-5.469-1.11-5.469-1.563 0-.453 1.914-1.562 5.469-1.562 3.555 0 5.469 1.109 5.469 1.562zM25 28.125a.78.78 0 110-1.561.78.78 0 010 1.561zm21.875 17.188c0 .453-1.914 1.562-5.469 1.562-3.554 0-5.468-1.11-5.468-1.562v-3.438a12.42 12.42 0 005.468 1.094 12.42 12.42 0 005.469-1.094v3.438zm0-5.47c0 .454-1.914 1.563-5.469 1.563-3.554 0-5.468-1.109-5.468-1.562v-3.438a12.422 12.422 0 005.468 1.094c1.883.055 3.752-.32 5.469-1.094v3.438zm-5.469-3.905c-3.554 0-5.468-1.11-5.468-1.563 0-.453 1.914-1.562 5.468-1.562 3.555 0 5.469 1.109 5.469 1.562 0 .453-1.914 1.563-5.469 1.563z" fill="#004CBF"/><path d="M37.5 38.281h1.563v1.563H37.5V38.28zm3.125.782h1.563v1.562h-1.563v-1.563zM37.5 43.75h1.563v1.563H37.5V43.75zm3.125.781h1.563v1.563h-1.563V44.53zM17.969 9.375h1.562a3.125 3.125 0 013.125-3.125V4.687a4.692 4.692 0 00-4.687 4.688zm20.312 7.031H36.72a1.563 1.563 0 01-1.563 1.563v1.562a3.125 3.125 0 003.125-3.125z" fill="#004CBF"/></svg>