<svg width="320" height="1183" fill="none" xmlns="http://www.w3.org/2000/svg"><g clip-path="url(#clip0_92_3286)"><path fill="url(#paint0_linear_92_3286)" d="M0 0h320v1183H0z"/><path d="M-660.597-329c409.8 63.046 978.075 779.623 925.632 1028.799-34.388 163.347-437.282 159.678-547.355 189.138-150.107 40.12 134.117-110.073 192.005-283.708 68.777-206.332-35.622-748.759 295.571-653.387C494.294 35.12 556.882 304.843 764.074 298.596c187.391-5.732 333.376-232.125 426.996-421.263" stroke="url(#paint1_linear_92_3286)" stroke-width="3" stroke-miterlimit="10" stroke-dasharray="10 10"/><path d="M-660.625-312.465c392.605 70.297 939.301 764.263 895.599 1003.007-28.657 156.412-410.23 151.197-512.078 177.676-141.195 36.653 130.907-107.694 188.307-274.28 68.778-199.741-26.135-718.84 293.595-626.879 285.226 81.817 342.799 357.816 551.854 358.217 187.734-.344 339.478-221.837 437.228-406.934" stroke="url(#paint2_linear_92_3286)" stroke-width="3" stroke-miterlimit="10" stroke-dasharray="10 10"/><path d="M-660.659-296.016c375.411 77.547 900.528 748.845 865.595 977.215-22.926 149.477-383.206 142.714-476.83 166.213-132.311 33.07 127.697-105.316 184.61-264.88 68.779-193.15-16.62-688.865 291.618-600.343 281.415 80.384 333.973 363.376 544.919 369.68 188.05 5.732 345.547-211.52 447.457-392.605" stroke="url(#paint3_linear_92_3286)" stroke-width="3" stroke-miterlimit="10" stroke-dasharray="10 10"/><path d="M-660.659-279.452c358.217 84.826 861.755 733.342 835.562 951.424-17.195 142.456-356.182 134.231-441.581 154.75C-390.163 856.01-142.162 723.67-85.764 571.156-16.786 384.568-92.871-87.763 203.904-2.708c277.575 78.98 325.06 368.677 537.898 381.143C930.167 389.583 1093.46 177.289 1199.52.158" stroke="url(#paint4_linear_92_3286)" stroke-width="3" stroke-miterlimit="10" stroke-dasharray="10 10"/><path d="M-660.686-262.945c341.194 92.076 822.981 717.752 805.558 925.632-11.463 135.406-329.13 125.72-406.304 143.115-114.629 25.792 121.335-100.53 177.188-246.023C-15.15 379.782-81.837-69.164 203.447 12.424 477.211 89.97 519.652 386.058 734.439 405.029 923.062 421.679 1092.2 214.2 1202.36 41.081" stroke="url(#paint5_linear_92_3286)" stroke-width="3" stroke-miterlimit="10" stroke-dasharray="10 10"/><path d="M-660.714-246.438c324.057 99.355 784.208 702.105 775.525 899.84-5.732 128.271-302.048 117.209-371.027 131.624-105.688 22.066 118.24-98.181 173.492-236.624C-13.488 374.968-70.803-50.537 203.018 27.583c269.895 76.143 307.293 378.707 524 404.069 188.938 22.123 363.952-180.541 478.172-349.62" stroke="url(#paint6_linear_92_3286)" stroke-width="3" stroke-miterlimit="10" stroke-dasharray="10 10"/><path d="M-660.714-229.903c306.891 106.606 745.377 686 745.492 874.049 0 121.02-275.111 108.612-335.778 120.075-96.805 18.254 115.145-95.773 169.795-227.167 69.408-166.901 21.407-569.049 283.707-494.31 266.084 74.68 298.38 383.721 517.065 415.531 189.138 27.511 369.933-170.139 488.403-335.291" stroke="url(#paint7_linear_92_3286)" stroke-width="3" stroke-miterlimit="10" stroke-dasharray="10 10"/><path d="M-660.743-213.396C-371.017-99.541 45.775 456.526 54.745 634.861c5.731 113.712-247.886 100.014-300.501 108.583-87.949 14.328 112.108-93.395 166.213-217.796C-9.906 365.167-48.765-12.882 202.244 57.845c262.1 73.85 289.439 388.709 510.101 426.995 189.511 32.898 376.045-159.794 498.635-320.963" stroke="url(#paint8_linear_92_3286)" stroke-width="3" stroke-miterlimit="10" stroke-dasharray="10 10"/><path d="M-660.77-196.889C-388.181-75.754 6.774 456.785 24.685 625.577c11.291 106.29-220.661 91.388-265.223 97.062-79.009 10.088 109.098-90.987 162.4-208.31C-8.298 360.496-38.016 5.805 201.674 73.006c258.26 72.474 280.584 393.609 503.137 438.457 189.769 38.229 382.15-149.448 508.87-306.633" stroke="url(#paint9_linear_92_3286)" stroke-width="3" stroke-miterlimit="10" stroke-dasharray="10 10"/><path d="M-660.77-180.383C-405.347-51.998-32.343 456.813-5.348 616.291c16.736 98.782-193.437 82.676-229.975 85.571-70.038 5.531 106.032-88.609 158.705-198.911C-6.465 355.681-26.87 24.373 201.358 88.193c254.42 71.099 271.7 398.481 496.173 449.921 190.055 43.53 388.249-139.132 519.129-292.305" stroke="url(#paint10_linear_92_3286)" stroke-width="3" stroke-miterlimit="10" stroke-dasharray="10 10"/><path d="M-660.798-163.876C-422.512-28.213-71.689 456.67-35.38 607.006c22.008 91.188-165.984 73.907-194.87 74.079-60.869.344 103.166-86.201 155.007-189.511C-4.746 350.838-16.008 43.029 200.641 103.325c250.552 69.752 262.788 403.323 489.21 461.383 190.342 48.717 394.329-128.786 529.329-277.976" stroke="url(#paint11_linear_92_3286)" stroke-width="3" stroke-miterlimit="10" stroke-dasharray="10 10"/><path d="M-660.827-147.341C-439.678-4.455-111.294 456.355-65.413 597.75c27.08 83.479-139.16 69.723-159.45 62.53-51.239 5.732 100.301-83.765 151.282-180.054C-2.682 346.024-4.803 61.628 200.326 118.485c246.74 68.347 253.933 408.109 482.246 472.846C873.229 645.35 1083 472.89 1222.16 327.683" stroke="url(#paint12_linear_92_3286)" stroke-width="3" stroke-miterlimit="10" stroke-dasharray="10 10"/><path d="M-660.827-130.835C-456.873 19.329-151.299 455.924-95.475 588.464c31.924 75.77-112.021 61.556-124.172 51.039-42.241 2.636 97.635-81.33 147.585-170.655C-.676 341.208 6.201 80.226 199.868 133.557c242.899 66.973 245.077 412.895 475.31 484.309C866.151 677.101 1081.68 509.771 1225 368.548" stroke="url(#paint13_linear_92_3286)" stroke-width="3" stroke-miterlimit="10" stroke-dasharray="10 10"/><path d="M-660.854-114.328C-474.037 43.087-191.733 455.524-125.506 579.18c36.452 68.09-84.94 53.389-88.838 39.518-33.271-.487 94.942-78.865 143.889-161.197C1.503 336.395 17.322 98.797 199.525 148.775c239.06 65.568 236.223 417.624 468.347 495.772 191.288 64.393 412.668-97.75 560.018-234.99" stroke="url(#paint14_linear_92_3286)" stroke-width="3" stroke-miterlimit="10" stroke-dasharray="10 10"/><path d="M-660.888-97.822c169.68 164.694 428.227 553.087 505.344 667.716 40.693 60.496-57.831 45.221-53.675 28.027-24.273-3.64 92.333-76.372 140.191-151.884C3.62 331.408 28.264 117.28 198.976 163.82c235.248 64.163 227.396 422.323 461.383 507.234 191.632 69.58 418.711-87.404 570.281-220.661" stroke="url(#paint15_linear_92_3286)" stroke-width="3" stroke-miterlimit="10" stroke-dasharray="10 10"/><path d="M-660.888-81.314C-508.373 90.63-274.014 455.408-185.606 560.61c44.677 53.102-30.72 37.054-18.369 16.535-15.303-6.763 89.783-73.85 136.466-142.369C5.94 326.967 39.297 135.908 198.517 179.066c231.437 62.702 218.598 426.995 454.448 518.698 192.004 74.681 424.785-77.088 580.515-206.333" stroke="url(#paint16_linear_92_3286)" stroke-width="3" stroke-miterlimit="10" stroke-dasharray="10 10"/><path d="M-660.916-64.808c135.378 179.223 344.92 520.933 445.278 616.133 48.46 45.995-3.611 28.886 16.879 5.015-6.304-9.887 87.348-71.214 132.77-132.942C8.376 322.353 50.33 154.449 198.088 194.14c227.597 61.24 209.8 431.579 447.456 530.16 192.377 79.782 430.896-66.743 590.746-192.004" stroke="url(#paint17_linear_92_3286)" stroke-width="3" stroke-miterlimit="10" stroke-dasharray="10 10"/><path d="M-660.944-48.273c118.211 186.444 302.822 505.888 415.273 590.341 52.185 39.174 23.47 20.69 52.128-6.505 2.694-13.011 85.026-68.549 128.958-123.542 75.483-94.14 125.863-239.031 262.1-202.665C421.3 269.107 398.575 645.578 638.036 750.98c192.749 84.854 436.994-56.398 600.974-177.676" stroke="url(#paint18_linear_92_3286)" stroke-width="3" stroke-miterlimit="10" stroke-dasharray="10 10"/><path d="M-660.944-31.766c101.045 193.724 260.638 491.645 385.24 564.55 55.939 32.726 54.707 16.907 87.376-17.997 13.613-14.558 82.791-65.912 125.405-114.114C13.821 313.612 72.454 191.475 197.2 224.517c219.973 58.231 192.29 440.778 433.528 553.086 193.179 89.927 443.102-46.081 611.232-163.347" stroke="url(#paint19_linear_92_3286)" stroke-width="3" stroke-miterlimit="10" stroke-dasharray="10 10"/><path d="M-660.971-15.175c83.908 200.975 218.712 478.177 355.351 538.76 59.922 26.594 79.552 6.677 122.682-29.518 21.636-18.168 80.613-62.845 121.679-104.685 78.263-79.696 144.891-179.309 258.145-149.648 216.191 56.655 183.579 445.363 426.593 564.549 193.609 94.971 449.171-35.707 621.431-149.018" stroke="url(#paint20_linear_92_3286)" stroke-width="3" stroke-miterlimit="10" stroke-dasharray="10 10"/><path d="M-661 1.248c66.772 208.253 177.188 465.281 325.203 512.966 64.107 20.662 105.488-2.865 157.931-41.008 30.033-21.866 78.521-59.779 117.982-95.257C20.128 305.99 94.608 228.3 196.284 254.722c212.523 54.736 175.068 449.577 419.63 576.013 194.182 99.756 455.276-25.391 631.696-134.69" stroke="url(#paint21_linear_92_3286)" stroke-width="3" stroke-miterlimit="10" stroke-dasharray="10 10"/><path d="M-661 17.754c49.606 215.503 136.151 452.786 295.171 487.175 205.387 44.562 363.747-285.542 561.683-234.991 208.683 53.332 166.213 454.42 412.666 587.476 194.498 105.058 461.38-15.017 641.92-120.361" stroke="url(#paint22_linear_92_3286)" stroke-width="3" stroke-miterlimit="10" stroke-dasharray="10 10"/></g><defs><linearGradient id="paint0_linear_92_3286" x1="0" y1="0" x2="405.391" y2="30.024" gradientUnits="userSpaceOnUse"><stop offset=".318" stop-color="#318DDF"/><stop offset=".802" stop-color="#4CBCED"/><stop offset="1" stop-color="#64E6FA"/></linearGradient><linearGradient id="paint1_linear_92_3286" x1="-660.597" y1="-329" x2="1352.89" y2="504.65" gradientUnits="userSpaceOnUse"><stop stop-color="#64E6FA"/><stop offset=".323" stop-color="#3493E1"/><stop offset="1" stop-color="#318DDF"/></linearGradient><linearGradient id="paint2_linear_92_3286" x1="-660.625" y1="-312.465" x2="1335.94" y2="542.01" gradientUnits="userSpaceOnUse"><stop stop-color="#64E6FA"/><stop offset=".323" stop-color="#3493E1"/><stop offset="1" stop-color="#318DDF"/></linearGradient><linearGradient id="paint3_linear_92_3286" x1="-660.659" y1="-296.016" x2="1317.34" y2="579.929" gradientUnits="userSpaceOnUse"><stop stop-color="#64E6FA"/><stop offset=".323" stop-color="#3493E1"/><stop offset="1" stop-color="#318DDF"/></linearGradient><linearGradient id="paint4_linear_92_3286" x1="-660.659" y1="-279.452" x2="1296.9" y2="618.534" gradientUnits="userSpaceOnUse"><stop stop-color="#64E6FA"/><stop offset=".323" stop-color="#3493E1"/><stop offset="1" stop-color="#318DDF"/></linearGradient><linearGradient id="paint5_linear_92_3286" x1="-660.686" y1="-262.945" x2="1274.4" y2="657.741" gradientUnits="userSpaceOnUse"><stop stop-color="#64E6FA"/><stop offset=".323" stop-color="#3493E1"/><stop offset="1" stop-color="#318DDF"/></linearGradient><linearGradient id="paint6_linear_92_3286" x1="-660.714" y1="-246.438" x2="1249.77" y2="697.415" gradientUnits="userSpaceOnUse"><stop stop-color="#64E6FA"/><stop offset=".323" stop-color="#3493E1"/><stop offset="1" stop-color="#318DDF"/></linearGradient><linearGradient id="paint7_linear_92_3286" x1="-660.714" y1="-229.903" x2="1222.67" y2="737.534" gradientUnits="userSpaceOnUse"><stop stop-color="#64E6FA"/><stop offset=".323" stop-color="#3493E1"/><stop offset="1" stop-color="#318DDF"/></linearGradient><linearGradient id="paint8_linear_92_3286" x1="-660.743" y1="-213.396" x2="1193.1" y2="778.167" gradientUnits="userSpaceOnUse"><stop stop-color="#64E6FA"/><stop offset=".323" stop-color="#3493E1"/><stop offset="1" stop-color="#318DDF"/></linearGradient><linearGradient id="paint9_linear_92_3286" x1="-660.77" y1="-196.889" x2="1160.43" y2="818.811" gradientUnits="userSpaceOnUse"><stop stop-color="#64E6FA"/><stop offset=".323" stop-color="#3493E1"/><stop offset="1" stop-color="#318DDF"/></linearGradient><linearGradient id="paint10_linear_92_3286" x1="-660.77" y1="-180.383" x2="1124.84" y2="859.718" gradientUnits="userSpaceOnUse"><stop stop-color="#64E6FA"/><stop offset=".323" stop-color="#3493E1"/><stop offset="1" stop-color="#318DDF"/></linearGradient><linearGradient id="paint11_linear_92_3286" x1="-660.798" y1="-163.876" x2="1087.11" y2="899.399" gradientUnits="userSpaceOnUse"><stop stop-color="#64E6FA"/><stop offset=".323" stop-color="#3493E1"/><stop offset="1" stop-color="#318DDF"/></linearGradient><linearGradient id="paint12_linear_92_3286" x1="-660.827" y1="-147.341" x2="1050" y2="937.354" gradientUnits="userSpaceOnUse"><stop stop-color="#64E6FA"/><stop offset=".323" stop-color="#3493E1"/><stop offset="1" stop-color="#318DDF"/></linearGradient><linearGradient id="paint13_linear_92_3286" x1="-660.827" y1="-130.835" x2="1007.85" y2="975.485" gradientUnits="userSpaceOnUse"><stop stop-color="#64E6FA"/><stop offset=".323" stop-color="#3493E1"/><stop offset="1" stop-color="#318DDF"/></linearGradient><linearGradient id="paint14_linear_92_3286" x1="-660.854" y1="-114.328" x2="1001.75" y2="997.329" gradientUnits="userSpaceOnUse"><stop stop-color="#64E6FA"/><stop offset=".323" stop-color="#3493E1"/><stop offset="1" stop-color="#318DDF"/></linearGradient><linearGradient id="paint15_linear_92_3286" x1="-660.888" y1="-97.822" x2="1019.08" y2="1009.18" gradientUnits="userSpaceOnUse"><stop stop-color="#64E6FA"/><stop offset=".323" stop-color="#3493E1"/><stop offset="1" stop-color="#318DDF"/></linearGradient><linearGradient id="paint16_linear_92_3286" x1="-660.888" y1="-81.314" x2="1036.58" y2="1020.8" gradientUnits="userSpaceOnUse"><stop stop-color="#64E6FA"/><stop offset=".323" stop-color="#3493E1"/><stop offset="1" stop-color="#318DDF"/></linearGradient><linearGradient id="paint17_linear_92_3286" x1="-660.916" y1="-64.808" x2="1053.71" y2="1032.33" gradientUnits="userSpaceOnUse"><stop stop-color="#64E6FA"/><stop offset=".323" stop-color="#3493E1"/><stop offset="1" stop-color="#318DDF"/></linearGradient><linearGradient id="paint18_linear_92_3286" x1="-660.944" y1="-48.273" x2="1070.81" y2="1043.58" gradientUnits="userSpaceOnUse"><stop stop-color="#64E6FA"/><stop offset=".323" stop-color="#3493E1"/><stop offset="1" stop-color="#318DDF"/></linearGradient><linearGradient id="paint19_linear_92_3286" x1="-660.944" y1="-31.766" x2="1087.85" y2="1054.81" gradientUnits="userSpaceOnUse"><stop stop-color="#64E6FA"/><stop offset=".323" stop-color="#3493E1"/><stop offset="1" stop-color="#318DDF"/></linearGradient><linearGradient id="paint20_linear_92_3286" x1="-660.971" y1="-15.175" x2="1104.71" y2="1066" gradientUnits="userSpaceOnUse"><stop stop-color="#64E6FA"/><stop offset=".323" stop-color="#3493E1"/><stop offset="1" stop-color="#318DDF"/></linearGradient><linearGradient id="paint21_linear_92_3286" x1="-661" y1="1.248" x2="1121.14" y2="1076.74" gradientUnits="userSpaceOnUse"><stop stop-color="#64E6FA"/><stop offset=".323" stop-color="#3493E1"/><stop offset="1" stop-color="#318DDF"/></linearGradient><linearGradient id="paint22_linear_92_3286" x1="-661" y1="17.754" x2="1137.9" y2="1087.29" gradientUnits="userSpaceOnUse"><stop stop-color="#64E6FA"/><stop offset=".323" stop-color="#3493E1"/><stop offset="1" stop-color="#318DDF"/></linearGradient><clipPath id="clip0_92_3286"><path fill="#fff" d="M0 0h320v1183H0z"/></clipPath></defs></svg>