<svg width="50" height="50" fill="none" xmlns="http://www.w3.org/2000/svg"><path d="M46.92 11.29V9.677h-1.617V1.613h-1.616v8.064H42.07V4.032h-1.616v5.645h-1.617V6.452h-1.616v3.225h-1.616V8.065H33.99v1.612h-1.616v4.84h7.272v11.29h-5.64l-.681-3.4a1.797 1.797 0 00-1.76-1.44c-.852 0-1.591.606-1.758 1.44l-.682 3.4h-5.64v-11.29h7.273v-1.614h-7.273c-.892 0-1.616.724-1.616 1.613v11.29c0 .89.724 1.613 1.616 1.613h5.317l-.323 1.613H17.02V16.13h-1.616v8.065H5.707V16.13H4.091v12.903H.05v4.839h1.616V50H42.07V33.871h1.616v-4.839h-9.035l-.323-1.613h5.317c.892 0 1.617-.723 1.617-1.613v-11.29c0-.89-.725-1.613-1.617-1.613H33.99V11.29h12.93zM5.706 25.807h9.697v3.225H5.707v-3.226zm34.748 9.677h-3.233v1.613h3.233v11.29H3.283v-11.29h32.323v-1.613H3.283V33.87h37.172v1.613zm1.616-3.226H1.667v-1.613H42.07v1.613zm-11.944-3.226l1.264-6.309c.033-.165.316-.165.35 0l1.263 6.31h-2.877z" fill="#004CBF"/><path d="M2.475 16.228c0-1.112.755-2.077 1.836-2.348l3.572-.89.998.996-.808 4.839 2.483 2.477 2.481-2.477-.808-4.839.998-.996 3.573.89a2.422 2.422 0 011.836 2.348V27.42h1.617V16.23c0-.9-.3-1.774-.855-2.483a4.037 4.037 0 00-2.207-1.43l-3.403-.849v-1.419a4.818 4.818 0 001.616-3.596V4.839A4.848 4.848 0 0010.556 0a4.848 4.848 0 00-4.849 4.839v1.613a4.82 4.82 0 001.616 3.596v1.42l-3.403.849a4.035 4.035 0 00-2.207 1.429 4.02 4.02 0 00-.854 2.482V27.42h1.616V16.23zm8.08 2.793l-.75-.75.75-4.494.752 4.495-.751.749zM7.324 4.839a3.232 3.232 0 016.465 0v1.613a3.232 3.232 0 01-6.465 0V4.839zm3.233 6.451a4.84 4.84 0 001.616-.282v.755l-1.616 1.613-1.617-1.613v-.755a4.82 4.82 0 001.617.282z" fill="#004CBF"/></svg>