<svg width="50" height="50" fill="none" xmlns="http://www.w3.org/2000/svg"><g clip-path="url(#clip0_5_131)" fill="#004CBF"><path d="M35.938 23.438H14.061c-3.446 0-6.25-3.027-6.25-6.748a6.6 6.6 0 015.47-6.69v-.266c0-5.37 4.03-9.734 8.984-9.734a8.645 8.645 0 016.654 3.198 5.719 5.719 0 011.549-.215c3.446 0 6.25 3.026 6.25 6.747V10a6.6 6.6 0 015.468 6.694c0 3.717-2.803 6.744-6.25 6.744zM22.265 1.563c-4.093 0-7.422 3.663-7.422 8.167v.995a.781.781 0 01-.781.781c-2.586 0-4.688 2.325-4.688 5.184 0 2.858 2.102 5.185 4.688 5.185h21.874c2.586 0 4.688-2.327 4.688-5.185 0-2.859-2.102-5.184-4.688-5.184a.781.781 0 01-.78-.781V9.73c0-2.859-2.103-5.185-4.688-5.185a4.276 4.276 0 00-1.542.294.781.781 0 01-.909-.263 7.16 7.16 0 00-5.752-3.013zm-2.735 37.5H.781A.781.781 0 010 38.28v-7.81a.781.781 0 01.781-.782h18.75a.781.781 0 01.782.782v7.812a.781.781 0 01-.782.782zM1.563 37.5H18.75v-6.25H1.562v6.25z"/><path d="M10.938 36.719H3.125a.781.781 0 01-.781-.782v-3.124a.781.781 0 01.781-.782h7.813a.781.781 0 01.78.782v3.124a.781.781 0 01-.78.782zm-7.032-1.563h6.25v-1.562h-6.25v1.562zm11.719 1.563a2.344 2.344 0 110-4.688 2.344 2.344 0 010 4.688zm0-3.125a.781.781 0 100 1.562.781.781 0 000-1.562zM19.531 50H.781A.781.781 0 010 49.219v-7.813a.781.781 0 01.781-.781h18.75a.781.781 0 01.782.781v7.813a.781.781 0 01-.782.781zM1.563 48.437H18.75v-6.25H1.562v6.25z"/><path d="M15.625 47.656a2.344 2.344 0 110-4.688 2.344 2.344 0 010 4.688zm0-3.125a.781.781 0 100 1.563.781.781 0 000-1.563zm-12.5 0h8.594v1.563H3.125V44.53zm-1.563-6.25h1.563v3.125H1.562v-3.125zm15.626 0h1.562v3.125h-1.563v-3.125zm32.03.782h-18.75a.781.781 0 01-.78-.782V30.47a.781.781 0 01.78-.782h18.75a.781.781 0 01.782.782v7.812a.781.781 0 01-.781.782zM31.25 37.5h17.188v-6.25H31.25v6.25z"/><path d="M40.625 36.719h-7.813a.781.781 0 01-.78-.782v-3.124a.781.781 0 01.78-.782h7.813a.781.781 0 01.781.782v3.124a.781.781 0 01-.781.782zm-7.031-1.563h6.25v-1.562h-6.25v1.562zm11.718 1.563a2.344 2.344 0 110-4.688 2.344 2.344 0 010 4.688zm0-3.125a.781.781 0 100 1.562.781.781 0 000-1.562zM49.22 50H30.47a.781.781 0 01-.782-.781v-7.813a.781.781 0 01.782-.781h18.75a.781.781 0 01.781.781v7.813a.781.781 0 01-.781.781zm-17.97-1.563h17.188v-6.25H31.25v6.25z"/><path d="M45.313 47.656a2.344 2.344 0 110-4.687 2.344 2.344 0 010 4.687zm0-3.125a.781.781 0 100 1.563.781.781 0 000-1.563zm-12.5 0h8.593v1.563h-8.593V44.53zm-1.563-6.25h1.563v3.125H31.25v-3.125zm15.625 0h1.563v3.125h-1.563v-3.125zM25 36.72a2.344 2.344 0 110-4.688 2.344 2.344 0 010 4.688zm0-3.125a.781.781 0 100 1.562.781.781 0 000-1.562z"/><path d="M24.219 27.344h1.562v5.468H24.22v-5.468zm2.343 6.25h3.907v1.562h-3.907v-1.562zm-7.03 0h3.905v1.562h-3.906v-1.562z"/><path d="M26.563 28.125h-3.125a.781.781 0 01-.782-.781v-4.688a.782.782 0 01.782-.781h3.125a.781.781 0 01.78.781v4.688a.781.781 0 01-.78.781zm-2.344-1.563h1.562v-3.125H24.22v3.125zM46.875 6.25a3.125 3.125 0 110-6.25 3.125 3.125 0 010 6.25zm0-4.688a1.563 1.563 0 100 3.126 1.563 1.563 0 000-3.125z"/><path d="M45.313 17.969h-3.907v-1.563h3.907a.781.781 0 00.78-.781V5.469h1.563v10.156a2.344 2.344 0 01-2.343 2.344zM3.124 6.25a3.125 3.125 0 110-6.25 3.125 3.125 0 010 6.25zm0-4.688a1.563 1.563 0 100 3.126 1.563 1.563 0 000-3.125z"/><path d="M8.594 17.969H4.688a2.344 2.344 0 01-2.344-2.344V5.469h1.562v10.156a.781.781 0 00.781.781h3.907v1.563zm36.718 10.156H43.75v-2.802l-4.459-4.458 1.105-1.105 4.688 4.688a.78.78 0 01.228.552v3.125zm-39.062 0H4.687V25a.78.78 0 01.23-.552l4.687-4.688 1.105 1.105-4.459 4.458v2.802z"/></g><defs><clipPath id="clip0_5_131"><path fill="#fff" d="M0 0h50v50H0z"/></clipPath></defs></svg>