<svg width="50" height="50" fill="none" xmlns="http://www.w3.org/2000/svg"><g clip-path="url(#clip0_5_93)" fill="#004CBF"><path d="M46.47 23.815h-2.106c-.607 0-1.101.494-1.101 1.101v.994l-4.635.001v-.998a1.1 1.1 0 00-1.098-1.098h-2.21a1.03 1.03 0 00-1.03 1.03v20.494c0 .568.463 1.03 1.03 1.03h11.15a1.03 1.03 0 001.03-1.03V24.844a1.03 1.03 0 00-1.03-1.03zm-.435 21.088h-10.28V25.28h1.408v.631c0 .807.656 1.464 1.463 1.464h4.68c.784 0 1.422-.638 1.422-1.422v-.673h1.306v19.623z"/><path d="M41.487 23.715h-1.12a.73.73 0 00-.732.732c0 .405.328.733.732.733h1.12a.732.732 0 100-1.465zM23.361 36.119a.77.77 0 00-.108-.263.78.78 0 00-.203-.203.739.739 0 00-.55-.109.745.745 0 00-.466.312.702.702 0 00-.108.263.704.704 0 00.042.423.676.676 0 00.158.239.74.74 0 00.66.2.739.739 0 00.375-.2.738.738 0 00.2-.662zm17.767 5.995a.733.733 0 10-.142 1.45.733.733 0 00.143-1.451zm2.606-6.2h-5.497a.733.733 0 100 1.465h5.497a.732.732 0 100-1.465zm0 3.31h-5.497a.732.732 0 100 1.464h5.497a.732.732 0 100-1.465zm0-9.93h-5.497a.733.733 0 000 1.466h5.497a.732.732 0 000-1.465zm0 3.31h-5.497a.733.733 0 100 1.465h5.497a.732.732 0 100-1.465zM28.726 15.262H16.68l-.52-2.22a.733.733 0 00-.713-.565h-2.304a.73.73 0 00-.524 1.253.733.733 0 00.524.212h1.723l2.126 9.016v.002l.424 1.764a1.5 1.5 0 00.322.628 1.968 1.968 0 00-.299 1.041c0 1.094.89 1.983 1.983 1.983s1.983-.89 1.983-1.983c0-.179-.026-.352-.071-.518h3.414c-.047.17-.07.343-.071.518 0 1.094.89 1.983 1.983 1.983s1.983-.89 1.983-1.983c0-.993-.736-1.816-1.69-1.958a.732.732 0 00-.184-.024h-7.892a.038.038 0 01-.037-.03l-.206-.86h8.83a.732.732 0 00.71-.557l1.577-6.407.004-.019a1.052 1.052 0 00-1.028-1.276zM26.66 25.876a.519.519 0 11-.001 1.037.519.519 0 010-1.037zm-7.238 0a.519.519 0 11-.001 1.037.519.519 0 01.001-1.037zm7.467-3.82h-8.605l-1.26-5.33H28.2l-1.31 5.33zM7.472 6.852a.732.732 0 100 1.464.732.732 0 000-1.464zm2.91.014a.733.733 0 10-.285 1.434.733.733 0 00.284-1.434zm2.767 0a.731.731 0 10-.287 1.438.731.731 0 00.287-1.438zm24.43-.014H16.34a.733.733 0 100 1.464h21.24a.732.732 0 100-1.464z"/><path d="M34.102 1.13H3.567A3.57 3.57 0 000 4.699v18.736a.732.732 0 101.465 0V4.698c0-1.16.943-2.102 2.102-2.102h30.535a.732.732 0 100-1.465z"/><path d="M49.268 38.98a.732.732 0 00.732-.733V24.589a3.279 3.279 0 00-3.275-3.275h-1.438V4.698A3.57 3.57 0 0041.72 1.13h-4.2a.732.732 0 100 1.465h4.2c1.162 0 2.102.946 2.102 2.102v16.616h-1.4V5.192c0-.671-.547-1.216-1.217-1.216H4.081c-.669 0-1.216.544-1.216 1.216V30.03c0 .67.546 1.216 1.216 1.216h27.71v1.396H1.464v-5.789a.733.733 0 00-1.465 0v9.412a3.57 3.57 0 003.567 3.567h13.537l-.355 2.997c-.063.522-.356 1.043-.729 1.295l-.619.42h-1.33c-1.193 0-2.163.97-2.163 2.163 0 1.193.97 2.163 2.163 2.163h17.145a2.16 2.16 0 001.69-.815 3.26 3.26 0 002.159.815h11.66A3.279 3.279 0 0050 45.594v-3.93a.732.732 0 10-1.465 0v3.93c0 .998-.812 1.81-1.81 1.81h-11.66c-.998 0-1.81-.812-1.81-1.81V24.59c0-.998.812-1.81 1.81-1.81h11.66c.998 0 1.81.812 1.81 1.81v13.658a.732.732 0 00.733.732zm-45.701-.614a2.104 2.104 0 01-2.102-2.102v-2.158H31.79v4.26H3.567zm28.223 1.465v4.79a2.153 2.153 0 00-.574-.078h-1.33l-.62-.42c-.372-.252-.665-.773-.728-1.293l-.355-2.999h3.607zm-4.127 4.712h-10.04c.306-.448.513-.984.58-1.539v-.002l.376-3.17h8.129l.375 3.172c.067.555.274 1.091.58 1.54zm3.553 2.861H14.07a.699.699 0 010-1.396h17.145a.699.699 0 010 1.396zm9.74-26.09h-5.89a3.279 3.279 0 00-3.276 3.275v5.192H4.33V10.99h36.626v10.324zm0-11.79H4.33V5.442h36.626v4.084z"/></g><defs><clipPath id="clip0_5_93"><path fill="#fff" d="M0 0h50v50H0z"/></clipPath></defs></svg>