<svg width="50" height="51" fill="none" xmlns="http://www.w3.org/2000/svg"><path d="M37.624 12.262L17.06 24.927a3.077 3.077 0 00-1.339 3.45l2.223 7.812a1.514 1.514 0 001.58 1.105 1.515 1.515 0 001.403-1.32l.578-4.284a2.53 2.53 0 01.782-1.509l16.969-15.773a1.35 1.35 0 00.158-1.811 1.351 1.351 0 00-1.79-.335zM20.93 28.723a4.528 4.528 0 00-1.399 2.7l-.28 2.079-1.614-5.672a1.077 1.077 0 01.469-1.207l15.064-9.278-12.24 11.378z" fill="url(#paint0_linear_53_1424)"/><path d="M49.187 4.007a2.297 2.297 0 00-2.315-.392L1.472 21.13A2.283 2.283 0 000 23.286a2.286 2.286 0 001.496 2.145L12.1 29.389l4.137 13.303a2.298 2.298 0 003.649 1.1l6.166-5.027a.844.844 0 011.028-.03L38.2 46.81a2.293 2.293 0 002.182.285 2.29 2.29 0 001.422-1.676l8.147-39.19a2.3 2.3 0 00-.765-2.222zm-1.185 1.817l-8.148 39.19a.299.299 0 01-.19.223.3.3 0 01-.292-.038L28.25 37.124a2.833 2.833 0 00-3.457.096l-6.167 5.028a.298.298 0 01-.282.057.3.3 0 01-.205-.204l-4.282-13.77a.995.995 0 00-.602-.638L2.194 23.565a.29.29 0 01-.202-.289.29.29 0 01.198-.288l45.4-17.514a.296.296 0 01.309.052.298.298 0 01.103.298z" fill="url(#paint1_linear_53_1424)"/><path d="M41.746 24.979a.996.996 0 00-1.184.762l-.152.697a.996.996 0 001.947.423l.151-.697a.996.996 0 00-.762-1.185zm-.996 4.588a.996.996 0 00-1.185.762l-2.29 10.552a.996.996 0 001.946.422l2.291-10.551a.996.996 0 00-.762-1.185z" fill="url(#paint2_linear_53_1424)"/><defs><linearGradient id="paint0_linear_53_1424" x1="15.604" y1="12.06" x2="44.325" y2="19.564" gradientUnits="userSpaceOnUse"><stop offset=".318" stop-color="#318DDF"/><stop offset=".802" stop-color="#4CBCED"/><stop offset="1" stop-color="#64E6FA"/></linearGradient><linearGradient id="paint1_linear_53_1424" x1="0" y1="3.461" x2="58.019" y2="21.599" gradientUnits="userSpaceOnUse"><stop offset=".318" stop-color="#318DDF"/><stop offset=".802" stop-color="#4CBCED"/><stop offset="1" stop-color="#64E6FA"/></linearGradient><linearGradient id="paint2_linear_53_1424" x1="37.252" y1="24.956" x2="43.929" y2="25.52" gradientUnits="userSpaceOnUse"><stop offset=".318" stop-color="#318DDF"/><stop offset=".802" stop-color="#4CBCED"/><stop offset="1" stop-color="#64E6FA"/></linearGradient></defs></svg>