<svg width="85" height="85" fill="none" xmlns="http://www.w3.org/2000/svg"><g clip-path="url(#clip0_78_800)" fill="#004CBF"><path d="M21.213 65.2a6.577 6.577 0 00-6.57 6.57 6.577 6.577 0 006.57 6.57 6.577 6.577 0 006.57-6.57 6.577 6.577 0 00-6.57-6.57zm0 10.644a4.08 4.08 0 01-4.075-4.075 4.081 4.081 0 012.828-3.879v2.549a1.245 1.245 0 001.725 1.152 1.244 1.244 0 00.77-1.152V67.89a4.082 4.082 0 012.827 3.878 4.08 4.08 0 01-4.075 4.075zM35.85 3.992H6.577A1.247 1.247 0 005.329 5.24v10.644a1.247 1.247 0 001.248 1.248H35.85a1.248 1.248 0 001.247-1.248V5.24a1.247 1.247 0 00-1.247-1.248zm-1.247 10.645H7.824v-8.15h26.779v8.15z"/><path d="M84.95 29.897c-.03-1.019-1.264-1.576-2.047-.918-.937.784-7.167 3.559-16.44 3.559-5.59 0-10.794-3.507-10.845-3.542a1.247 1.247 0 00-1.484.054c-.447.357-4.547 3.488-10.662 3.488-.356 0-.706-.006-1.052-.014V1.247A1.245 1.245 0 0041.172 0H1.255A1.247 1.247 0 00.007 1.247v82.498a1.248 1.248 0 001.248 1.247h39.918a1.245 1.245 0 001.247-1.247v-5.872c3.456 2.895 7.393 5.202 11.77 6.889.439.323 1.117.311 1.556 0 7.988-3.079 14.484-8.198 19.31-15.222A1.248 1.248 0 0073 68.127c-4.512 6.565-10.577 11.362-18.032 14.26-24.564-9.546-27.592-36.921-27.525-50.339 2.974 1.355 8.611 2.984 16.03 2.984 5.681 0 9.791-2.332 11.492-3.5 1.774 1.063 6.401 3.5 11.5 3.5 7.419 0 13.057-1.63 16.03-2.985.108 14.604-3.342 24.707-6.333 30.697a1.26 1.26 0 00.558 1.673 1.26 1.26 0 001.674-.558c3.258-6.527 7.041-17.716 6.557-33.962zM27.873 54.388c.073.25.143.5.219.748.35 1.148.735 2.285 1.155 3.41H6.576a1.247 1.247 0 100 2.495H30.24c1.773 4.144 3.971 7.86 6.568 11.094a41.037 41.037 0 003.154 3.494 1.24 1.24 0 00-.037.298v6.57H2.502V39.752h22.723a78.98 78.98 0 00.639 5.488H6.577a1.247 1.247 0 100 2.495h19.706c.261 1.395.565 2.782.91 4.159H6.578a1.245 1.245 0 00-1.153 1.724 1.246 1.246 0 001.153.77h21.295zm6.73-22.737c-4.261-.883-6.976-2.176-7.569-2.672-.784-.658-2.018-.1-2.048.918a93.595 93.595 0 00-.04 3.368H7.825v-8.15h26.777v6.536zm5.323.748a43.888 43.888 0 01-2.828-.311v-8.22a1.248 1.248 0 00-1.247-1.248H6.577a1.247 1.247 0 00-1.248 1.247v10.645a1.248 1.248 0 001.248 1.248h18.422c.017.5.038 1 .063 1.497H2.502V21.123h37.423V32.4zm0-13.77H2.502V2.494h37.423v16.133z"/><path d="M77.973 36.522c-3.614.888-7.486 1.338-11.51 1.338-4.327 0-8.283-1.498-10.84-2.754a1.248 1.248 0 00-1.135.018 23.541 23.541 0 01-11.016 2.736c-4.024 0-7.896-.45-11.509-1.338-.803-.197-1.594.462-1.542 1.288.345 5.598 1.274 10.904 2.76 15.77 3.78 12.379 10.978 20.972 21.391 25.541a1.258 1.258 0 001.003 0c10.252-4.498 17.378-13.091 21.18-25.54 1.486-4.867 2.415-10.173 2.76-15.77.051-.826-.739-1.486-1.542-1.289zM53.826 76.008c-6.868-3.472-12.118-8.99-15.679-16.464h15.679V76.01zm0-18.958H37.049a50.694 50.694 0 01-1.482-4.197c-1.282-4.198-2.133-8.742-2.535-13.532 3.321.687 6.825 1.034 10.44 1.034 4.25 0 7.778-1.032 10.354-2.148V57.05zm2.495 18.956V59.544h15.482c-3.544 7.512-8.73 13.029-15.482 16.462zm18.048-23.154a51.939 51.939 0 01-1.477 4.198H56.32V38.16c2.703 1.131 6.27 2.194 10.143 2.194 3.615 0 7.119-.347 10.44-1.034-.402 4.79-1.253 9.334-2.534 13.532z"/></g><defs><clipPath id="clip0_78_800"><path fill="#fff" d="M0 0h85v85H0z"/></clipPath></defs></svg>