<svg width="85" height="85" fill="none" xmlns="http://www.w3.org/2000/svg"><path d="M28.305 56.239h-7.083a1.416 1.416 0 01-1.091-2.321l5.977-7.206a2.03 2.03 0 00-1.549-3.328 2.581 2.581 0 00-2.57 2.58 1.417 1.417 0 01-2.833 0 5.418 5.418 0 015.415-5.414 4.865 4.865 0 013.717 7.97l-4.052 4.885h4.068a1.417 1.417 0 01.001 2.834zm13.134-.996v-1.529h1.445a1.417 1.417 0 100-2.833h-1.445v-8.493a1.417 1.417 0 00-2.574-.816l-6.986 9.91a1.417 1.417 0 001.158 2.232h5.569v1.53a1.417 1.417 0 102.833-.001zm-2.833-8.387v4.025h-2.837l2.837-4.025zm17.527 25.486l6.716-12.856a1.416 1.416 0 00-1.255-2.073H52.13a1.416 1.416 0 100 2.833h7.126l-5.635 10.785a1.417 1.417 0 002.512 1.31zm-25.264 2.1l31.811-31.9a1.417 1.417 0 00-2.006-2L28.864 72.44a1.416 1.416 0 102.005 2zM1.417 55.985A1.42 1.42 0 000 57.403v2.833a1.417 1.417 0 002.833 0v-2.833a1.421 1.421 0 00-1.416-1.417zM85 15.031v62.404a5.852 5.852 0 01-5.85 5.85H5.85A5.852 5.852 0 010 77.436V67.32a1.416 1.416 0 112.833 0v10.115a3.029 3.029 0 003.018 3.017h73.298a3.03 3.03 0 003.018-3.017V31.62H2.833v18.7a1.416 1.416 0 11-2.833 0V15.03a5.851 5.851 0 015.85-5.836h10.81v-3.16a4.33 4.33 0 014.32-4.32h3.217a4.321 4.321 0 014.32 4.32v3.16h27.895v-3.16a4.33 4.33 0 014.32-4.32h3.216a4.33 4.33 0 014.321 4.32v3.16h10.88A5.85 5.85 0 0185 15.03zm-25.755.141a1.488 1.488 0 001.488 1.488h3.215a1.489 1.489 0 001.488-1.488V6.035a1.488 1.488 0 00-1.488-1.488h-3.215a1.487 1.487 0 00-1.488 1.488v9.137zm-39.752 0a1.486 1.486 0 001.488 1.488h3.216a1.489 1.489 0 001.487-1.488V6.035a1.488 1.488 0 00-1.487-1.488H20.98a1.488 1.488 0 00-1.488 1.488v9.137zm62.674-.142a3.018 3.018 0 00-3.018-3.003H68.27v3.145a4.33 4.33 0 01-4.32 4.321h-3.216a4.33 4.33 0 01-4.321-4.32v-3.146H28.517v3.145a4.32 4.32 0 01-4.32 4.321H20.98a4.33 4.33 0 01-4.321-4.32v-3.146H5.85a3.018 3.018 0 00-3.017 3.004v13.755h79.334V15.03z" fill="#004CBF"/></svg>