<svg width="85" height="85" fill="none" xmlns="http://www.w3.org/2000/svg"><path d="M58.267 64.715H26.733a6.194 6.194 0 01-6.186-6.187V26.995a6.194 6.194 0 016.186-6.187h31.534a6.194 6.194 0 016.186 6.187v31.533a6.194 6.194 0 01-6.186 6.187zm-31.534-41.25a3.532 3.532 0 00-3.529 3.53v31.533a3.532 3.532 0 003.53 3.53h31.533a3.532 3.532 0 003.529-3.53V26.995a3.532 3.532 0 00-3.53-3.53H26.734zm45.78 2.748a4.288 4.288 0 01-4.285-4.284 4.288 4.288 0 014.284-4.284 4.287 4.287 0 014.284 4.285 4.29 4.29 0 01-4.284 4.284zm0-5.908c-.898 0-1.627.731-1.627 1.627 0 .897.73 1.626 1.626 1.626a1.63 1.63 0 001.626-1.626c0-.898-.73-1.627-1.626-1.627z" fill="#004CBF"/><path d="M72.512 32.295h-9.386a1.328 1.328 0 010-2.656h8.059v-4.754a1.328 1.328 0 012.655 0v6.082c0 .733-.595 1.328-1.328 1.328zm0 35.582a4.288 4.288 0 01-4.284-4.284 4.288 4.288 0 014.284-4.284 4.287 4.287 0 014.284 4.284 4.291 4.291 0 01-4.284 4.284zm0-5.91c-.897 0-1.626.73-1.626 1.626 0 .898.73 1.626 1.626 1.626.896 0 1.626-.728 1.626-1.626 0-.898-.73-1.626-1.626-1.626z" fill="#004CBF"/><path d="M72.512 61.967a1.328 1.328 0 01-1.328-1.328v-4.754h-8.058a1.328 1.328 0 010-2.655h9.386c.733 0 1.328.595 1.328 1.328v6.081c0 .733-.595 1.328-1.328 1.328zm4.124-9.284a4.288 4.288 0 01-4.284-4.284 4.287 4.287 0 014.284-4.284A4.288 4.288 0 0180.92 48.4a4.288 4.288 0 01-4.284 4.284zm0-5.91a1.627 1.627 0 101.626 1.626c0-.895-.728-1.626-1.626-1.626z" fill="#004CBF"/><path d="M73.682 49.727H63.126a1.328 1.328 0 010-2.655h10.556a1.328 1.328 0 010 2.655zm2.954-7.942a4.288 4.288 0 01-4.284-4.284 4.288 4.288 0 014.284-4.284A4.288 4.288 0 0180.92 37.5a4.29 4.29 0 01-4.284 4.284zm0-5.91a1.627 1.627 0 101.626 1.626c0-.896-.728-1.626-1.626-1.626z" fill="#004CBF"/><path d="M73.682 38.83H63.126a1.328 1.328 0 010-2.655h10.556a1.328 1.328 0 010 2.656zM21.668 16.51a4.288 4.288 0 01-4.284-4.285 4.288 4.288 0 014.284-4.284 4.287 4.287 0 014.284 4.284 4.288 4.288 0 01-4.284 4.285zm0-5.91a1.627 1.627 0 000 3.252c.898 0 1.626-.731 1.626-1.627 0-.895-.728-1.626-1.626-1.626z" fill="#004CBF"/><path d="M30.704 22.941a1.328 1.328 0 01-1.328-1.328v-8.059h-4.752a1.328 1.328 0 010-2.655h6.08c.733 0 1.328.595 1.328 1.328v9.386c0 .733-.593 1.328-1.328 1.328zm32.628-6.432a4.288 4.288 0 01-4.284-4.285 4.288 4.288 0 014.284-4.284 4.287 4.287 0 014.284 4.284 4.29 4.29 0 01-4.284 4.285zm0-5.91a1.627 1.627 0 000 3.252 1.63 1.63 0 001.626-1.627 1.63 1.63 0 00-1.626-1.626z" fill="#004CBF"/><path d="M54.296 22.94a1.328 1.328 0 01-1.327-1.327v-9.389c0-.733.594-1.328 1.327-1.328h6.08a1.328 1.328 0 010 2.656h-4.754v8.059a1.325 1.325 0 01-1.326 1.33zm-6.158-10.556A4.288 4.288 0 0143.854 8.1a4.288 4.288 0 014.284-4.284A4.288 4.288 0 0152.422 8.1a4.291 4.291 0 01-4.284 4.284zm0-5.91c-.898 0-1.626.731-1.626 1.626 0 .898.73 1.627 1.626 1.627A1.63 1.63 0 0049.764 8.1a1.63 1.63 0 00-1.626-1.626z" fill="#004CBF"/><path d="M48.138 22.94a1.328 1.328 0 01-1.328-1.327V11.057a1.328 1.328 0 012.656 0v10.556c0 .733-.595 1.328-1.328 1.328zM37.24 12.385A4.288 4.288 0 0132.955 8.1a4.288 4.288 0 014.284-4.284A4.288 4.288 0 0141.523 8.1a4.291 4.291 0 01-4.284 4.284zm0-5.91c-.897 0-1.626.731-1.626 1.626 0 .898.73 1.627 1.626 1.627A1.63 1.63 0 0038.866 8.1c0-.895-.729-1.626-1.627-1.626z" fill="#004CBF"/><path d="M37.24 22.94a1.328 1.328 0 01-1.328-1.327V11.056a1.328 1.328 0 012.655 0v10.557c0 .733-.595 1.328-1.328 1.328zM21.667 77.058a4.288 4.288 0 01-4.284-4.284 4.288 4.288 0 014.284-4.284 4.287 4.287 0 014.284 4.284 4.29 4.29 0 01-4.284 4.284zm0-5.91c-.898 0-1.626.73-1.626 1.626 0 .898.73 1.626 1.626 1.626.898 0 1.626-.73 1.626-1.626 0-.895-.728-1.626-1.626-1.626z" fill="#004CBF"/><path d="M30.704 74.104h-6.08a1.328 1.328 0 010-2.656h4.754V63.39a1.328 1.328 0 012.656 0v9.387a1.33 1.33 0 01-1.33 1.328zm32.628 2.954a4.288 4.288 0 01-4.284-4.284 4.288 4.288 0 014.284-4.284 4.287 4.287 0 014.284 4.284 4.291 4.291 0 01-4.284 4.284zm0-5.91c-.898 0-1.626.73-1.626 1.626 0 .897.73 1.626 1.626 1.626a1.63 1.63 0 001.626-1.626 1.63 1.63 0 00-1.626-1.627z" fill="#004CBF"/><path d="M60.376 74.104h-6.08a1.328 1.328 0 01-1.327-1.328v-9.387a1.328 1.328 0 012.655 0v8.06h4.752a1.328 1.328 0 010 2.655zm-12.238 7.078a4.288 4.288 0 01-4.284-4.284 4.287 4.287 0 014.284-4.284 4.288 4.288 0 014.284 4.284 4.288 4.288 0 01-4.284 4.284zm0-5.91c-.898 0-1.626.73-1.626 1.626 0 .895.73 1.626 1.626 1.626.898 0 1.626-.731 1.626-1.626a1.63 1.63 0 00-1.626-1.627z" fill="#004CBF"/><path d="M48.138 75.27a1.328 1.328 0 01-1.328-1.327V63.386a1.328 1.328 0 012.656 0v10.557c0 .733-.595 1.328-1.328 1.328zM37.24 81.18a4.288 4.288 0 01-4.284-4.283 4.287 4.287 0 014.284-4.284 4.288 4.288 0 014.284 4.284 4.289 4.289 0 01-4.284 4.284zm0-5.91c-.897 0-1.626.731-1.626 1.627 0 .895.729 1.626 1.626 1.626.898 0 1.627-.73 1.627-1.626 0-.896-.729-1.626-1.627-1.626z" fill="#004CBF"/><path d="M37.24 75.271a1.328 1.328 0 01-1.328-1.328V63.388a1.328 1.328 0 012.655 0v10.556c0 .734-.595 1.328-1.328 1.328zM12.487 26.213a4.288 4.288 0 01-4.284-4.284 4.288 4.288 0 014.284-4.284 4.288 4.288 0 014.284 4.285 4.288 4.288 0 01-4.284 4.284zm0-5.908c-.898 0-1.627.731-1.627 1.627 0 .897.731 1.626 1.627 1.626a1.627 1.627 0 000-3.253z" fill="#004CBF"/><path d="M21.874 32.295h-9.386a1.328 1.328 0 01-1.328-1.328v-6.082a1.328 1.328 0 012.655 0v4.754h8.06a1.328 1.328 0 010 2.656zm-9.386 35.582a4.288 4.288 0 01-4.284-4.284 4.288 4.288 0 014.284-4.284 4.288 4.288 0 014.284 4.284 4.29 4.29 0 01-4.284 4.284zm0-5.91c-.898 0-1.627.73-1.627 1.626a1.627 1.627 0 101.626-1.626z" fill="#004CBF"/><path d="M12.488 61.967a1.328 1.328 0 01-1.328-1.328v-6.082c0-.733.595-1.327 1.328-1.327h9.386a1.328 1.328 0 010 2.655h-8.058v4.754c0 .733-.595 1.328-1.328 1.328zm-4.124-9.284A4.288 4.288 0 014.08 48.4a4.287 4.287 0 014.284-4.284 4.287 4.287 0 014.284 4.284 4.288 4.288 0 01-4.284 4.284zm0-5.91a1.627 1.627 0 000 3.253 1.63 1.63 0 001.626-1.627c0-.895-.728-1.626-1.626-1.626z" fill="#004CBF"/><path d="M21.874 49.727H11.318a1.328 1.328 0 010-2.655h10.556a1.328 1.328 0 010 2.655zm-13.51-7.942A4.288 4.288 0 014.08 37.5a4.288 4.288 0 014.284-4.284 4.287 4.287 0 014.284 4.284 4.29 4.29 0 01-4.284 4.284zm0-5.91c-.898 0-1.626.73-1.626 1.626 0 .897.73 1.626 1.626 1.626a1.63 1.63 0 001.626-1.626c0-.896-.728-1.626-1.626-1.626z" fill="#004CBF"/><path d="M21.874 38.83H11.318a1.328 1.328 0 010-2.655h10.556a1.328 1.328 0 010 2.655zm17.613 9.787a1.328 1.328 0 01-1.328-1.328v-9.053a1.328 1.328 0 012.656 0v9.053a1.325 1.325 0 01-1.328 1.328z" fill="#004CBF"/><path d="M42.827 44.238h-3.34a1.328 1.328 0 010-2.656h3.34a1.01 1.01 0 000-2.019h-3.34a1.328 1.328 0 010-2.656h3.34a3.669 3.669 0 013.665 3.666 3.669 3.669 0 01-3.665 3.665zm-7.86 4.378h-2.771a5.862 5.862 0 01-5.855-5.855 5.862 5.862 0 015.855-5.856h2.772a1.328 1.328 0 010 2.656h-2.772a3.201 3.201 0 00-3.198 3.197 3.201 3.201 0 003.198 3.198h2.772c.733 0 1.328.595 1.328 1.328 0 .733-.595 1.332-1.328 1.332zm18.138 0a5.559 5.559 0 01-5.553-5.553v-4.83a1.328 1.328 0 012.656 0v4.83a2.897 2.897 0 002.895 2.895 2.897 2.897 0 002.894-2.895v-4.83a1.328 1.328 0 012.656 0v4.83a5.552 5.552 0 01-5.548 5.553z" fill="#004CBF"/></svg>