<svg width="85" height="85" fill="none" xmlns="http://www.w3.org/2000/svg"><path fill-rule="evenodd" clip-rule="evenodd" d="M31.634 0h50.331v64.908h-2.49V2.49H32.67L19.69 15.538v11.107H17.2V14.51L31.634 0zM17.2 65.285h2.49V82.51h59.785V67.398h2.49V85H17.2V65.285z" fill="#004CBF"/><path fill-rule="evenodd" clip-rule="evenodd" d="M30.907 13.861V1.245h2.49v15.106H18.445v-2.49h12.462zM18.445 35.038a6.225 6.225 0 100 12.45 6.225 6.225 0 000-12.45zm-8.716 6.225a8.715 8.715 0 1117.431 0 8.715 8.715 0 01-17.43 0zm56.048 24.89a3.735 3.735 0 100 7.47 3.735 3.735 0 000-7.47zm-6.225 3.735a6.225 6.225 0 1112.45 0 6.225 6.225 0 01-12.45 0z" fill="#004CBF"/><path fill-rule="evenodd" clip-rule="evenodd" d="M18.445 25.065l4.328 2.877 5.194.216 1.808 4.874 4.08 3.224-1.406 5.007 1.406 5.007-4.08 3.225-1.807 4.873-5.195.217-4.328 2.876-4.329-2.876-5.194-.217-1.808-4.873-4.08-3.225 1.407-5.007-1.406-5.006 4.079-3.225 1.808-4.873 5.194-.217 4.329-2.877zm0 2.99l-3.53 2.346-4.234.176-1.475 3.976L5.88 37.18l1.146 4.082-1.146 4.083 3.325 2.628 1.475 3.975 4.234.177 3.53 2.346 3.53-2.346 4.234-.177 1.475-3.975 3.325-2.628-1.146-4.083 1.146-4.082-3.325-2.628-1.475-3.976-4.234-.177-3.53-2.345z" fill="#004CBF"/><path fill-rule="evenodd" clip-rule="evenodd" d="M40.867 8.88h8.716v2.491h-6.226v2.49h26.155v-2.49H52.008v-2.49h19.994v7.47H40.867v-7.47zm31.127 17.431H37.131v-2.49h34.861v2.49zm0 9.96H37.131v-2.49h34.861v2.49zm0 9.961H37.131v-2.49h34.861v2.49zm-59.761 7.252h2.49V66.31l3.733-2.527 3.734 2.526V53.714h2.49v17.287l-6.224-4.213-6.223 4.213V53.484zm59.76 2.709h-34.86v-2.49h34.86v2.49zM42.91 68.884c-.015-.617-.629-1.054-1.19-.89-.888.259-1.979 1.112-2.94 2.27-.963 1.16-1.57 2.35-1.696 3.027l-2.448-.454c.237-1.279 1.145-2.859 2.227-4.163 1.084-1.305 2.567-2.606 4.16-3.07 2.164-.632 4.325 1.003 4.376 3.223.023 1.02-.187 1.936-.349 2.598l-.048.198-.003.01c.62-.165 1.547-.486 2.911-1.023l.912 2.317c-1.775.699-3.039 1.128-3.908 1.274-.417.07-.926.112-1.402-.052a1.704 1.704 0 01-.738-.491c-.21-.242-.32-.51-.376-.749-.098-.43-.035-.858.016-1.135.046-.246.115-.525.178-.78l.04-.161c.156-.64.293-1.282.277-1.949z" fill="#004CBF"/></svg>