<svg width="85" height="85" fill="none" xmlns="http://www.w3.org/2000/svg"><g clip-path="url(#clip0_78_828)" fill="#004CBF"><path d="M41.41 32.593l12.75-14.167a4.25 4.25 0 10-6.32-5.686l-9.753 10.838-1.08-1.083a4.356 4.356 0 00-6.012 0 4.25 4.25 0 000 6.011l4.25 4.25a4.251 4.251 0 006.164-.163zm-4.162-1.842l-4.25-4.25a1.417 1.417 0 112.004-2.003l2.139 2.138a1.417 1.417 0 002.054-.054l10.751-11.945a1.419 1.419 0 012.332.336 1.416 1.416 0 01-.224 1.558l-12.75 14.167a1.418 1.418 0 01-2.056.053z"/><path d="M80.75 32.584H68.924a3.796 3.796 0 00-3.664 2.806h-4.03c6.7-9.827 4.668-23.163-4.66-30.545-9.326-7.38-22.773-6.298-30.798 2.482-8.024 8.78-7.896 22.27.292 30.896l-6.324-.008a3.793 3.793 0 00-3.664-2.798H4.25A4.25 4.25 0 000 39.667v25.5a4.25 4.25 0 004.25 4.25h7.024a3.785 3.785 0 003.658-2.834h2.442l-1.6 4.25a4.94 4.94 0 002.89 6.376 4.971 4.971 0 003.835-.162c.008.017.01.035.018.053a4.96 4.96 0 006.611 2.442 4.943 4.943 0 006.629 2.493c.007.016.008.033.015.05a4.959 4.959 0 009.159-.29l.085-.226 4.817 2.353a4.932 4.932 0 006.604-2.333 5.006 5.006 0 00.172-3.837l.05-.016a4.958 4.958 0 002.998-6.376l.046-.016a4.96 4.96 0 003-6.375A4.942 4.942 0 0064.6 63.75h5.468a3.786 3.786 0 003.658 2.834h7.024a4.25 4.25 0 004.25-4.25v-25.5a4.25 4.25 0 00-4.25-4.25zm-58.083-9.917A19.833 19.833 0 1157.682 35.4l-13.27.017a5.752 5.752 0 00-4.25 1.88l-.864.953-9.05-.013a19.662 19.662 0 01-7.581-15.57zM11.274 66.583H4.25a1.417 1.417 0 01-1.417-1.416v-25.5A1.417 1.417 0 014.25 38.25h11.826a.961.961 0 01.947 1.133l-4.801 26.41a.962.962 0 01-.948.79zm8.382 7.974a2.107 2.107 0 01-1.232-2.726l2-5.306a2.125 2.125 0 013.987 1.461l-2.028 5.337a2.125 2.125 0 01-2.727 1.234zm6.629 2.487a2.114 2.114 0 01-1.238-2.725c.167-.441 2.55-6.76 2.499-6.612a2.125 2.125 0 013.976 1.49l-2.497 6.613a2.133 2.133 0 01-2.74 1.234zm6.628 2.494a2.115 2.115 0 01-1.238-2.726l2.5-6.613a2.125 2.125 0 013.976 1.492l-2.498 6.611a2.123 2.123 0 01-2.74 1.236zm6.628 2.487a2.11 2.11 0 01-1.237-2.725l1.499-3.967a2.125 2.125 0 013.972 1.495l-1.499 3.966a2.125 2.125 0 01-2.735 1.231zM63.005 61.2a2.142 2.142 0 01-2.815.992l-3.825-1.828a1.417 1.417 0 00-1.221 2.55l3.825 1.824.011.01a2.125 2.125 0 01-1.822 3.837l-4.108-1.967a1.417 1.417 0 00-1.224 2.55l4.108 1.967a2.125 2.125 0 01-1.823 3.837h-.021l-3.88-1.863a1.417 1.417 0 00-1.226 2.55l3.896 1.87a2.14 2.14 0 01.992 2.842 2.101 2.101 0 01-2.803.991l-5.047-2.453.408-1.081a4.915 4.915 0 00-5.337-6.623 4.932 4.932 0 00-7.024-4.74c0-.017-.01-.036-.017-.053a4.944 4.944 0 00-7.526-1.877 4.967 4.967 0 00-6.177-1.758c-.52.24-.993.57-1.4.972h-3.476l4.125-22.692 17.128.026-6.73 7.406a5.642 5.642 0 007.932 8.004l7.405-6.69 16.675 8.553a2.136 2.136 0 01.997 2.844zM47.579 47.773l1.535-1.387a1.417 1.417 0 10-1.898-2.104l-11.18 10.096a2.808 2.808 0 01-3.944-3.988l10.17-11.192a2.918 2.918 0 012.153-.948c14.309-.011 15.858-.02 20.987-.027l4.125 22.694h-3.541a4.939 4.939 0 00-2.72-5.1L47.58 47.773zm34.588 14.56a1.417 1.417 0 01-1.417 1.417h-7.024a.961.961 0 01-.948-.789l-4.8-26.41a.963.963 0 01.946-1.134H80.75a1.416 1.416 0 011.417 1.416v25.5z"/></g><defs><clipPath id="clip0_78_828"><path fill="#fff" d="M0 0h85v85H0z"/></clipPath></defs></svg>