<svg width="85" height="85" fill="none" xmlns="http://www.w3.org/2000/svg"><path fill-rule="evenodd" clip-rule="evenodd" d="M78.725 25.09a6.307 6.307 0 01-6.12-4.829h-12.72v10.292h12.898c.8 0 1.446.645 1.446 1.446v38.932h3.204c.55 0 1.051.31 1.29.8a1.425 1.425 0 01-.143 1.519l-7.566 9.85a1.444 1.444 0 01-1.148.573H15.133c-.454 0-.873-.215-1.148-.573L6.42 73.25a1.424 1.424 0 01-.144-1.518c.24-.49.742-.8 1.291-.8h3.204V31.998c0-.8.645-1.446 1.446-1.446h12.898V20.26H12.396a6.296 6.296 0 01-6.12 4.83A6.282 6.282 0 010 18.814a6.282 6.282 0 016.275-6.276 6.296 6.296 0 016.12 4.83H26.56c.801 0 1.447.645 1.447 1.446v11.738h6.562v-16.83a6.28 6.28 0 01-4.841-6.109 6.282 6.282 0 0112.563 0 6.28 6.28 0 01-4.841 6.109v16.83h10.1v-16.83a6.28 6.28 0 01-4.84-6.109 6.282 6.282 0 0112.563 0 6.28 6.28 0 01-4.842 6.108v16.83h6.562V18.816c0-.801.646-1.447 1.447-1.447h14.164c.658-2.761 3.156-4.829 6.12-4.829A6.282 6.282 0 0185 18.815a6.282 6.282 0 01-6.275 6.275zm-5.941 48.734H54.376v3.538c0 .8-.646 1.446-1.435 1.446h-20.87a1.444 1.444 0 01-1.447-1.446v-3.538H10.495l5.343 6.957h53.324l5.343-6.957h-1.721zm-21.29 0H33.506v2.103h17.99v-2.103zm-37.83-2.894h57.674V33.446H13.663V70.93zm54.698-1.53H16.639c-.8 0-1.446-.645-1.446-1.446V36.422c0-.801.645-1.447 1.446-1.447h51.722c.8 0 1.446.646 1.446 1.447v31.533c0 .8-.645 1.446-1.446 1.446zm-50.276-2.893h48.83v-28.64h-48.83v28.64zm7.04-8.02h-1.147a1.441 1.441 0 01-1.434-1.447v-9.718c0-.789.645-1.434 1.434-1.434h1.148a6.3 6.3 0 010 12.599zm.3-9.706v6.813a3.43 3.43 0 003.12-3.407 3.43 3.43 0 00-3.12-3.406zm10.53 9.706h-1.147c-.8 0-1.446-.646-1.446-1.447v-9.718a1.44 1.44 0 011.446-1.434h1.148a6.307 6.307 0 016.299 6.3 6.3 6.3 0 01-6.3 6.299zm.3-9.706v6.813a3.43 3.43 0 003.12-3.407 3.43 3.43 0 00-3.12-3.406zm12 9.706c-2.235 0-4.064-1.817-4.064-4.053V49.94c0-2.235 1.83-4.052 4.064-4.052 2.236 0 4.065 1.817 4.065 4.052v4.494c0 2.236-1.83 4.053-4.065 4.053zm0-9.718c-.645 0-1.17.526-1.17 1.171v4.494c0 .646.525 1.172 1.17 1.172.646 0 1.172-.526 1.172-1.172V49.94c0-.645-.526-1.171-1.172-1.171zm10.101 10.184c-2.26 0-4.1-1.841-4.1-4.1a1.441 1.441 0 112.88 0c0 .67.55 1.22 1.22 1.22.67 0 1.22-.55 1.22-1.22 0-.681-.55-1.22-1.22-1.22a4.107 4.107 0 010-8.212c2.26 0 4.112 1.841 4.112 4.1 0 .802-.646 1.447-1.446 1.447a1.444 1.444 0 01-1.447-1.446c0-.67-.55-1.22-1.219-1.22-.67 0-1.22.55-1.22 1.22 0 .67.55 1.219 1.22 1.219a4.12 4.12 0 014.112 4.112c0 2.259-1.853 4.1-4.112 4.1zM6.276 15.42a3.39 3.39 0 00-3.383 3.395 3.39 3.39 0 003.382 3.394 3.392 3.392 0 003.395-3.394 3.392 3.392 0 00-3.395-3.395zm29.727-4.41h.012c1.865 0 3.383-1.53 3.383-3.396a3.392 3.392 0 00-3.395-3.394 3.39 3.39 0 00-3.382 3.394c0 1.865 1.518 3.395 3.382 3.395zm12.982 0h.012a3.408 3.408 0 003.394-3.396 3.4 3.4 0 00-3.394-3.394 3.392 3.392 0 00-3.395 3.394c0 1.865 1.518 3.395 3.383 3.395zm29.74 4.41a3.392 3.392 0 00-3.395 3.395 3.392 3.392 0 003.395 3.394 3.4 3.4 0 003.394-3.394 3.4 3.4 0 00-3.394-3.395z" fill="#004CBF"/></svg>