<svg width="85" height="85" fill="none" xmlns="http://www.w3.org/2000/svg"><path d="M79.688 46.484h-4.213a3.992 3.992 0 00-3.49-2.646 7.956 7.956 0 00-6.907-3.994H63.75c0-5.67-3.992-10.523-9.442-11.688a4 4 0 00-2.511-2.693v-8.197h2.885a3.99 3.99 0 003.755 2.656c.696 0 1.35-.18 1.92-.495 1.448 4.15 5.397 7.136 10.034 7.136 5.858 0 10.625-4.767 10.625-10.625 0-5.86-4.767-10.626-10.625-10.626-4.637 0-8.586 2.986-10.034 7.135a3.96 3.96 0 00-1.92-.494 3.99 3.99 0 00-3.755 2.656h-4.213a1.328 1.328 0 00-1.328 1.329v9.525a4 4 0 00-1.824 1.323c-2.734-3.473-6.903-5.536-11.458-5.536-6.674 0-12.318 4.5-14.057 10.625h-5.864V28.99a3.99 3.99 0 002.656-3.756c0-.695-.18-1.35-.495-1.92 4.15-1.447 7.135-5.396 7.135-10.033 0-5.858-4.766-10.625-10.625-10.625-5.858 0-10.625 4.767-10.625 10.625 0 4.637 2.986 8.586 7.135 10.034a3.958 3.958 0 00-.494 1.92 3.99 3.99 0 002.656 3.755v4.213a1.329 1.329 0 001.328 1.328h6.702a14.534 14.534 0 00.49 5.313h-1.88a7.956 7.956 0 00-6.906 3.994 3.989 3.989 0 00-3.718 3.974 3.99 3.99 0 002.656 3.756V70.62a3.99 3.99 0 00-2.656 3.756 3.989 3.989 0 003.984 3.984 3.989 3.989 0 003.985-3.984 3.99 3.99 0 00-2.657-3.756V53.755a7.958 7.958 0 005.313 2.026h6.637c-.182.436-.346.88-.492 1.328h-2.16a1.328 1.328 0 00-1.329 1.328v7.97a1.329 1.329 0 001.328 1.327h2.16c.309.953.7 1.877 1.169 2.762l-1.612 1.612a1.328 1.328 0 000 1.878l5.313 5.313a1.328 1.328 0 001.878 0l1.612-1.612c.884.47 1.809.86 2.761 1.168v2.16a1.328 1.328 0 001.329 1.329h7.968a1.328 1.328 0 001.328-1.328v-2.161a17.17 17.17 0 002.762-1.168l1.612 1.612a1.329 1.329 0 001.878 0l5.313-5.313a1.329 1.329 0 000-1.878l-1.612-1.612c.47-.885.86-1.809 1.168-2.762h2.16a1.328 1.328 0 001.329-1.328v-7.969a1.328 1.328 0 00-1.328-1.328h-2.16a17.922 17.922 0 00-.493-1.328h6.637a7.956 7.956 0 006.907-3.994 3.992 3.992 0 003.49-2.646h2.884v18.593h-2.884a3.991 3.991 0 00-3.756-2.656 3.989 3.989 0 00-3.985 3.984 3.989 3.989 0 003.985 3.985 3.991 3.991 0 003.756-2.656h4.213a1.328 1.328 0 001.328-1.329v-21.25a1.328 1.328 0 00-1.329-1.328zM67 23.147a4.01 4.01 0 013.39-1.897c1.396 0 2.675.746 3.39 1.897a7.92 7.92 0 01-3.39.76 7.92 7.92 0 01-3.39-.76zm.733-7.21a2.66 2.66 0 012.657-2.656 2.66 2.66 0 012.656 2.656 2.66 2.66 0 01-2.656 2.657 2.66 2.66 0 01-2.657-2.657zm2.657-7.968c4.394 0 7.968 3.574 7.968 7.968a7.94 7.94 0 01-2.397 5.69 6.71 6.71 0 00-1.864-1.89 5.296 5.296 0 001.605-3.8 5.318 5.318 0 00-5.312-5.312 5.319 5.319 0 00-5.313 5.313 5.3 5.3 0 001.605 3.8 6.706 6.706 0 00-1.864 1.89 7.944 7.944 0 01-2.397-5.69c0-4.395 3.575-7.97 7.969-7.97zm-11.954 6.64a1.33 1.33 0 011.329 1.329 1.33 1.33 0 01-1.328 1.328 1.33 1.33 0 01-1.329-1.328 1.33 1.33 0 011.328-1.329zM14.61 18.594A4.01 4.01 0 0118 20.49a7.921 7.921 0 01-3.39.759 7.921 7.921 0 01-3.39-.759 4.011 4.011 0 013.39-1.897zm-2.656-5.313a2.66 2.66 0 012.656-2.656 2.66 2.66 0 012.657 2.656 2.66 2.66 0 01-2.657 2.656 2.66 2.66 0 01-2.656-2.656zm-5.312 0c0-4.394 3.574-7.969 7.968-7.969s7.97 3.575 7.97 7.97c0 2.226-.92 4.242-2.398 5.69a6.709 6.709 0 00-1.864-1.891 5.296 5.296 0 001.605-3.8 5.319 5.319 0 00-5.313-5.312 5.318 5.318 0 00-5.312 5.312c0 1.488.616 2.835 1.605 3.8a6.706 6.706 0 00-1.864 1.89 7.944 7.944 0 01-2.397-5.69zm9.296 11.953a1.33 1.33 0 01-1.328 1.328 1.33 1.33 0 01-1.328-1.328 1.33 1.33 0 011.328-1.328 1.33 1.33 0 011.329 1.328zm34.532 2.657a1.33 1.33 0 011.328 1.328 1.33 1.33 0 01-1.328 1.328 1.33 1.33 0 01-1.328-1.328 1.33 1.33 0 011.328-1.328zM13.28 46.484a1.33 1.33 0 011.328 1.328 1.33 1.33 0 01-1.328 1.329 1.33 1.33 0 01-1.328-1.328 1.33 1.33 0 011.328-1.329zm0 29.22a1.33 1.33 0 01-1.328-1.329 1.33 1.33 0 011.328-1.328 1.33 1.33 0 011.328 1.328 1.33 1.33 0 01-1.328 1.328zm46.485-15.938v5.312h-1.83a1.328 1.328 0 00-1.286.997 14.529 14.529 0 01-1.673 3.952 1.329 1.329 0 00.194 1.632l1.388 1.388-3.434 3.434-1.388-1.388a1.328 1.328 0 00-1.632-.195 14.529 14.529 0 01-3.952 1.674 1.328 1.328 0 00-.997 1.286v1.83h-5.312v-1.83a1.329 1.329 0 00-.997-1.286 14.529 14.529 0 01-3.952-1.674 1.327 1.327 0 00-1.632.195l-1.388 1.388-3.434-3.434 1.388-1.388a1.328 1.328 0 00.194-1.632 14.529 14.529 0 01-1.673-3.952 1.327 1.327 0 00-1.286-.997h-1.83v-5.312h1.83a1.328 1.328 0 001.286-.997c.36-1.393.923-2.725 1.673-3.952a1.328 1.328 0 00-.194-1.632l-1.388-1.388 3.434-3.434.788.788a10.713 10.713 0 003.646 4.638c-2.74 1.975-4.434 5.193-4.434 8.633 0 5.859 4.766 10.625 10.625 10.625s10.625-4.766 10.625-10.625c0-3.44-1.693-6.658-4.434-8.633a10.713 10.713 0 003.646-4.638l.788-.788 3.434 3.434-1.388 1.388a1.328 1.328 0 00-.194 1.632 14.529 14.529 0 011.673 3.952 1.328 1.328 0 001.286.997h1.83zM37.779 44.933l3.984 2.656a1.328 1.328 0 001.474 0l3.984-2.656a1.327 1.327 0 00.591-1.105v-5.602c1.487 1.22 2.657 3.204 2.657 6.93a8.007 8.007 0 01-4.554 7.2 1.328 1.328 0 00-.759 1.2v16.378a7.93 7.93 0 01-5.312 0V53.557a1.328 1.328 0 00-.76-1.2 8.007 8.007 0 01-4.553-7.2c0-3.727 1.17-5.71 2.657-6.93v5.601a1.329 1.329 0 00.59 1.105zm10.033 11.553a8.013 8.013 0 012.657 5.936 7.95 7.95 0 01-2.657 5.933V56.486zm-10.624 0v11.87a7.95 7.95 0 01-2.657-5.934c0-2.287.998-4.443 2.657-5.935zm27.89-3.361h-6.09l.389-.389a1.327 1.327 0 000-1.878l-5.313-5.313a1.324 1.324 0 00-.939-.389c0-5.193-1.929-8.528-6.07-10.496a1.327 1.327 0 00-1.899 1.2v7.258l-2.656 1.77-2.656-1.77v-7.259a1.327 1.327 0 00-1.898-1.2c-4.142 1.969-6.071 5.304-6.071 10.497a1.325 1.325 0 00-.94.39l-5.312 5.312a1.328 1.328 0 000 1.878l.39.389h-6.091a5.304 5.304 0 01-4.25-2.127 3.98 3.98 0 000-6.371 5.305 5.305 0 014.25-2.127h3.765a1.328 1.328 0 001.217-1.86 11.846 11.846 0 01-.922-6.109h2.809a3.99 3.99 0 003.756 2.657 3.989 3.989 0 003.984-3.985 3.989 3.989 0 00-3.984-3.984 3.99 3.99 0 00-3.756 2.656h-2.2c1.645-4.637 6.074-7.969 11.268-7.969 5.705 0 9.226 3.656 11.05 7.1a3.988 3.988 0 003.56 2.197 3.99 3.99 0 003.64-2.365 9.31 9.31 0 016.985 9.006c0 .37-.026.761-.076 1.162a1.329 1.329 0 001.318 1.494h2.742a5.306 5.306 0 014.25 2.127 3.981 3.981 0 000 6.371 5.305 5.305 0 01-4.25 2.127zm-35.86-19.922a1.33 1.33 0 011.329-1.328 1.33 1.33 0 011.328 1.328 1.33 1.33 0 01-1.328 1.328 1.33 1.33 0 01-1.328-1.328zm42.5 15.938a1.33 1.33 0 01-1.327-1.328 1.33 1.33 0 011.328-1.329 1.33 1.33 0 011.328 1.328 1.33 1.33 0 01-1.328 1.329zm0 21.25a1.33 1.33 0 01-1.327-1.329 1.33 1.33 0 011.328-1.328 1.33 1.33 0 011.328 1.329 1.33 1.33 0 01-1.328 1.328z" fill="#004CBF"/></svg>