<svg width="85" height="85" fill="none" xmlns="http://www.w3.org/2000/svg"><g clip-path="url(#clip0_78_808)"><path d="M42.5 74.375a1.768 1.768 0 00-1.77 1.77v7.084a1.77 1.77 0 103.54 0v-7.083a1.772 1.772 0 00-1.77-1.771zM23.668 6.341a1.769 1.769 0 10-3.064 1.77l1.77 3.07a1.767 1.767 0 002.418.648 1.769 1.769 0 00.646-2.42l-1.77-3.068zM62.626 73.82a1.77 1.77 0 10-3.065 1.77l1.771 3.069a1.767 1.767 0 002.418.648 1.769 1.769 0 00.647-2.42l-1.771-3.067zM11.178 22.372l-3.064-1.77a1.776 1.776 0 00-2.418.648 1.77 1.77 0 00.647 2.42l3.064 1.77a1.773 1.773 0 002.418-.648 1.77 1.77 0 00-.647-2.42zm67.479 38.959l-3.064-1.771a1.775 1.775 0 00-2.418.648 1.77 1.77 0 00.647 2.42l3.064 1.77a1.773 1.773 0 002.418-.648c.49-.846.2-1.93-.647-2.42zM10.625 42.5a1.768 1.768 0 00-1.77-1.77H1.77a1.77 1.77 0 100 3.54h7.083a1.77 1.77 0 001.771-1.77zM9.408 59.56l-3.065 1.77a1.769 1.769 0 000 3.068 1.769 1.769 0 001.771 0l3.064-1.77a1.77 1.77 0 00.647-2.42 1.77 1.77 0 00-2.417-.648zm15.384 13.61a1.777 1.777 0 00-2.418.649l-1.771 3.068a1.769 1.769 0 103.064 1.77l1.771-3.067a1.769 1.769 0 00-.646-2.42zM42.5 0a1.77 1.77 0 00-1.77 1.77V42.5a1.772 1.772 0 001.77 1.77h40.73A1.772 1.772 0 0085 42.5C85 19.066 65.936 0 42.5 0zm1.77 40.73V3.58c20.075.903 36.244 17.074 37.15 37.148H44.27z" fill="#004CBF"/></g><defs><clipPath id="clip0_78_808"><path fill="#fff" d="M0 0h85v85H0z"/></clipPath></defs></svg>